<?xml version="1.0" encoding="utf-8"?>
<!-- Generator: Adobe Illustrator 27.5.0, SVG Export Plug-In . SVG Version: 6.00 Build 0)  -->
<svg version="1.1" xmlns="http://www.w3.org/2000/svg" xmlns:xlink="http://www.w3.org/1999/xlink" x="0px" y="0px"
	 viewBox="0 0 750 500" style="enable-background:new 0 0 750 500;" xml:space="preserve">
<g id="Background_Complete">
	<g>
		<g>
			<path style="fill:#EBEBEB;" d="M655.611,245.454c0,0-7.528-3.122-12.575,14.417c-5.047,17.538-6.349,27.341-6.349,27.341
				s-1.503,3.761-4.224,2.019s-7.067-7.335-10.757-5.463c-3.826,1.942-4.285,6.72-2.228,13.213
				c2.057,6.493,6.043,20.883,6.398,22.186c0.349,1.279-0.024,3.334-2.068,2.445c-2.044-0.889-14.656-10.438-18.829-4.182
				c-4.173,6.256,4.531,23.402,5.446,25.295c0.916,1.893,0.69,2.82-0.162,3.497c-0.852,0.677-4.789-2.932-8.488-5.501
				c-3.699-2.569-8.438-4.899-10.542-1.088c-2.105,3.811-0.347,17.6,16.894,37.213l8.584,8.565l11.812-2.973
				c24.89-7.902,33.512-18.805,33.676-23.156c0.164-4.351-5.098-4.8-9.591-4.509c-4.494,0.292-9.729,1.351-10.109,0.331
				c-0.38-1.02-0.095-1.931,1.666-3.079c1.761-1.149,18.065-11.343,17.72-18.855c-0.345-7.512-16.077-5.843-18.286-6.135
				s-1.468-2.246-0.509-3.161c0.977-0.932,11.817-11.201,16.93-15.701c5.113-4.5,7.186-8.829,4.911-12.467
				c-2.194-3.508-8.804-0.96-12.033-0.872s-2.576-3.909-2.576-3.909s3.945-9.068,8.673-26.695c4.728-17.627-3.54-18.828-3.54-18.828
				"/>
		</g>
		<g>
			<g>
				<path style="fill:#E0E0E0;" d="M651.064,261.153c0,0-0.02,0.129-0.079,0.375c-0.065,0.263-0.156,0.624-0.271,1.089
					c-0.252,0.974-0.616,2.378-1.083,4.178c-0.945,3.627-2.35,8.865-4.113,15.331c-3.52,12.933-8.535,30.756-14.138,50.422
					c-5.606,19.672-10.665,37.483-14.257,50.395c-1.786,6.444-3.233,11.665-4.24,15.294c-0.499,1.791-0.888,3.188-1.158,4.157
					c-0.133,0.46-0.236,0.818-0.311,1.078c-0.072,0.242-0.12,0.364-0.12,0.364s0.02-0.129,0.079-0.375
					c0.065-0.263,0.155-0.624,0.271-1.089c0.252-0.974,0.616-2.378,1.082-4.177c0.945-3.627,2.35-8.865,4.112-15.33
					c3.52-12.933,8.535-30.758,14.141-50.431c5.604-19.666,10.663-37.475,14.255-50.387c1.786-6.444,3.234-11.665,4.24-15.295
					c0.499-1.791,0.888-3.188,1.158-4.158c0.133-0.46,0.236-0.819,0.311-1.079C651.016,261.274,651.064,261.153,651.064,261.153z"/>
			</g>
		</g>
		<g>
			<g>
				<path style="fill:#E0E0E0;" d="M627.472,291.837c0.026-0.013,0.189,0.253,0.463,0.746c0.276,0.492,0.654,1.215,1.111,2.113
					c0.911,1.798,2.103,4.314,3.366,7.115c1.23,2.759,2.342,5.254,3.202,7.184c0.384,0.852,0.711,1.576,0.979,2.172
					c0.233,0.512,0.35,0.802,0.324,0.815c-0.025,0.013-0.191-0.252-0.469-0.743c-0.275-0.493-0.653-1.216-1.101-2.119
					c-0.893-1.807-2.052-4.338-3.315-7.138c-1.249-2.749-2.378-5.235-3.252-7.158c-0.389-0.85-0.719-1.574-0.991-2.168
					C627.561,292.141,627.446,291.85,627.472,291.837z"/>
			</g>
		</g>
		<g>
			<g>
				<path style="fill:#E0E0E0;" d="M638.052,311.982c-0.052-0.102,5.025-2.792,11.338-6.007c6.315-3.216,11.475-5.74,11.527-5.637
					c0.052,0.102-5.023,2.792-11.339,6.008C643.265,309.56,638.104,312.084,638.052,311.982z"/>
			</g>
		</g>
		<g>
			<g>
				<path style="fill:#E0E0E0;" d="M628.083,341.799c-0.004-0.028,0.306-0.104,0.87-0.218c0.652-0.125,1.45-0.279,2.39-0.46
					c2.017-0.39,4.8-0.937,7.849-1.65c3.052-0.707,5.792-1.441,7.772-1.986c0.923-0.253,1.706-0.467,2.347-0.642
					c0.556-0.148,0.867-0.217,0.876-0.19c0.009,0.027-0.286,0.148-0.828,0.344c-0.542,0.195-1.33,0.462-2.312,0.77
					c-1.963,0.619-4.699,1.4-7.761,2.109c-3.059,0.716-5.86,1.219-7.893,1.535c-1.017,0.154-1.842,0.268-2.415,0.33
					C628.405,341.805,628.087,341.827,628.083,341.799z"/>
			</g>
		</g>
		<g>
			<g>
				<path style="fill:#E0E0E0;" d="M614.503,325.684c0.022-0.019,0.234,0.186,0.601,0.571c0.366,0.385,0.886,0.952,1.521,1.658
					c1.271,1.412,3.005,3.381,4.9,5.573c1.896,2.193,3.595,4.193,4.809,5.654c0.607,0.731,1.093,1.327,1.421,1.745
					c0.329,0.418,0.5,0.658,0.478,0.677c-0.022,0.019-0.234-0.186-0.601-0.571c-0.366-0.385-0.886-0.952-1.521-1.658
					c-1.271-1.412-3.005-3.382-4.901-5.574c-1.896-2.192-3.594-4.192-4.808-5.653c-0.607-0.731-1.093-1.327-1.422-1.745
					C614.653,325.943,614.481,325.703,614.503,325.684z"/>
			</g>
		</g>
		<g>
			<g>
				<path style="fill:#E0E0E0;" d="M602.358,350.889c0.021-0.019,0.291,0.245,0.76,0.74c0.518,0.561,1.174,1.271,1.956,2.119
					c1.638,1.801,3.88,4.308,6.336,7.094c2.457,2.787,4.664,5.325,6.246,7.176c0.743,0.883,1.365,1.622,1.857,2.206
					c0.431,0.527,0.66,0.827,0.638,0.846c-0.021,0.019-0.291-0.245-0.76-0.739c-0.518-0.561-1.173-1.271-1.956-2.119
					c-1.638-1.801-3.88-4.309-6.337-7.095c-2.456-2.786-4.663-5.324-6.245-7.175c-0.743-0.883-1.365-1.622-1.857-2.206
					C602.565,351.208,602.336,350.908,602.358,350.889z"/>
			</g>
		</g>
		<g>
			<g>
				<path style="fill:#E0E0E0;" d="M619.861,370.467c-0.006-0.028,0.385-0.134,1.095-0.302c0.788-0.181,1.798-0.413,3.009-0.691
					c2.54-0.584,6.046-1.402,9.89-2.412c3.847-1.004,7.306-2.003,9.806-2.742c1.192-0.35,2.187-0.643,2.962-0.871
					c0.701-0.202,1.093-0.301,1.102-0.274c0.009,0.027-0.366,0.178-1.052,0.428c-0.686,0.249-1.684,0.594-2.925,0.997
					c-2.48,0.811-5.933,1.857-9.788,2.863c-3.852,1.012-7.375,1.786-9.934,2.298c-1.28,0.253-2.318,0.446-3.039,0.562
					C620.267,370.443,619.867,370.495,619.861,370.467z"/>
			</g>
		</g>
	</g>
	<g>
		<g>
			<path style="fill:#E0E0E0;" d="M625.313,412.835c2.219-2.685,6.034-3.796,9.45-3.115c3.415,0.682,6.386,2.992,8.264,5.925
				c0.869,1.356,1.539,3.023,1.037,4.553c-0.469,1.43-1.905,2.392-3.39,2.638c-1.485,0.246-3.008-0.117-4.415-0.654
				C631.435,420.343,627.105,417.677,625.313,412.835"/>
		</g>
		<g>
			<path style="fill:#E0E0E0;" d="M617.123,408.063c5.115-5.268,7.431-13.111,5.998-20.313c-0.365-1.834-1.263-3.913-3.099-4.27
				c-1.839-0.358-3.457,1.244-4.446,2.834c-4.116,6.617-3.666,15.768,1.081,21.949"/>
		</g>
		<g>
			<path style="fill:#E0E0E0;" d="M656.502,383.139c0.731,3.031-0.113,6.302-1.82,8.911c-1.707,2.609-4.208,4.614-6.893,6.199
				c-5.195,3.066-12.077,3.989-18.109,3.945c0.479-6.682,5.915-12.236,8.85-14.88C643.168,383.136,654.09,378.4,656.502,383.139"/>
		</g>
		<g>
			<g>
				<path style="fill:#FAFAFA;" d="M607.706,417.899c0.724-0.37,1.247-0.994,2.574-1.591c2.65-1.175,6.415-2.751,10.86-3.434
					c4.451-0.68,8.611,0.005,11.306,1.188c1.355,0.579,2.373,1.211,3.021,1.714c0.651,0.5,0.966,0.827,0.94,0.857
					c-0.078,0.113-1.446-1.114-4.138-2.126c-2.664-1.037-6.692-1.624-11.029-0.964c-4.339,0.665-8.086,2.147-10.773,3.206"/>
			</g>
		</g>
		<g>
			<g>
				<path style="fill:#FAFAFA;" d="M607.623,417.959c1.183-0.859,2.732-1.986,4.602-3.344c3.892-2.814,9.259-6.714,15.13-11.1
					c5.868-4.386,11.128-8.427,14.93-11.362c1.833-1.408,3.352-2.575,4.511-3.466c1.071-0.812,1.677-1.244,1.706-1.207
					c0.029,0.036-0.521,0.537-1.541,1.412c-1.019,0.876-2.515,2.119-4.38,3.635c-3.728,3.033-8.948,7.138-14.822,11.529
					c-5.878,4.39-11.294,8.233-15.26,10.949c-1.982,1.359-3.598,2.441-4.727,3.17"/>
			</g>
		</g>
		<g>
			<g>
				<path style="fill:#FAFAFA;" d="M619.032,391.804c0.046-0.009,0.157,0.406,0.319,1.172c0.089,0.382,0.177,0.852,0.224,1.406
					c0.053,0.553,0.151,1.182,0.143,1.884c0.066,1.401-0.045,3.076-0.34,4.909c-0.334,1.826-0.875,3.805-1.702,5.786
					c-0.853,1.97-1.903,3.734-2.987,5.241c-1.116,1.485-2.246,2.726-3.301,3.651c-0.499,0.492-1.021,0.859-1.456,1.204
					c-0.431,0.351-0.832,0.613-1.168,0.815c-0.664,0.414-0.966,0.343-0.991,0.304c-0.074-0.11,1.317-0.748,3.287-2.67
					c0.993-0.951,2.06-2.198,3.123-3.667c1.031-1.492,2.038-3.22,2.87-5.142c0.807-1.932,1.352-3.856,1.712-5.633
					c0.321-1.784,0.479-3.418,0.474-4.793C619.257,393.519,618.902,391.827,619.032,391.804z"/>
			</g>
		</g>
	</g>
	<g>
		<g>
			<g>
				<g>
					<path style="fill:#EBEBEB;" d="M159.746,403.921c12.227-15.226,9.889-36.171,4.045-53.904c-0.975-2.96-1.568-6.208-3.757-8.416
						c-2.19-2.207-6.032-3.03-8.34-0.987c-1.915,1.694-2.127,4.56-2.745,7.059c-0.822,3.325-2.596,6.396-5.054,8.747
						c-1.615,1.544-3.794,2.837-5.976,2.35c-2.995-0.669-4.34-4.143-5.191-7.122c-1.585-5.553-3.171-11.105-4.756-16.656
						c-0.851-2.979-1.729-6.017-3.479-8.569c-1.75-2.552-4.56-4.576-7.62-4.542c-3.061,0.035-6.082,2.688-5.829,5.773
						c0.105,1.284,0.72,2.469,0.998,3.727c0.278,1.259,0.103,2.793-0.969,3.479c-1.085,0.696-2.521,0.2-3.664-0.41
						c-3.947-2.105-7.16-5.364-10.231-8.642c-3.071-3.277-6.111-6.663-9.853-9.124c-3.742-2.461-8.353-3.93-12.682-2.926
						c-4.33,1.004-8.098,4.959-7.952,9.454c0.146,4.508,3.835,8.046,7.489,10.661c5.42,3.881,11.393,6.968,17.671,9.134
						c1.132,0.391,2.358,0.813,3.038,1.81c1.225,1.794-0.077,4.312-1.844,5.535c-2.001,1.386-4.473,1.859-6.712,2.81
						c-2.239,0.951-4.452,2.708-4.688,5.156c-0.33,3.395,3.143,5.838,6.255,7.193c6.23,2.715,12.913,4.344,19.668,4.795
						c2.421,0.161,4.929,0.19,7.142,1.211c2.213,1.022,4.059,3.383,3.606,5.788c-0.453,2.409-2.993,3.879-5.409,4.123
						c-2.414,0.245-4.829-0.399-7.254-0.585c-4.537-0.348-9.732,1.476-11.317,5.773c-1.042,2.824-0.248,6.101,1.431,8.614
						c1.678,2.513,4.14,4.381,6.656,6.031c8.796,5.77,18.988,9.505,29.429,10.021C142.289,411.798,151.333,410.12,159.746,403.921"
						/>
				</g>
			</g>
		</g>
		<g>
			<g>
				<g>
					<g>
						<path style="fill:#E0E0E0;" d="M69.793,317.876c-0.005,0.009,0.121,0.076,0.371,0.198c0.277,0.132,0.645,0.306,1.113,0.529
							c0.98,0.461,2.425,1.141,4.263,2.067c3.675,1.842,8.916,4.698,14.941,8.939c3.018,2.109,6.229,4.558,9.63,7.248
							c3.396,2.698,7.007,5.604,10.688,8.801c3.68,3.195,7.446,6.672,11.051,10.564c1.811,1.938,3.528,4.018,5.28,6.138
							c1.746,2.121,3.517,4.274,5.31,6.452c7.14,8.736,13.674,17.289,18.962,25.517c5.301,8.216,9.327,16.089,12.088,22.951
							c2.779,6.86,4.32,12.671,5.188,16.714c0.423,2.025,0.721,3.606,0.884,4.683c0.088,0.514,0.157,0.919,0.209,1.222
							c0.05,0.275,0.08,0.416,0.09,0.415c0.01-0.002-0.001-0.144-0.032-0.423c-0.039-0.305-0.088-0.713-0.152-1.231
							c-0.127-1.085-0.389-2.674-0.781-4.711c-0.805-4.065-2.291-9.915-5.032-16.819c-2.723-6.906-6.728-14.83-12.022-23.087
							c-5.278-8.268-11.816-16.852-18.962-25.595c-1.795-2.179-3.568-4.332-5.315-6.454c-1.749-2.114-3.484-4.211-5.307-6.157
							c-3.631-3.909-7.419-7.39-11.119-10.581c-3.699-3.195-7.326-6.092-10.737-8.775c-3.418-2.678-6.651-5.113-9.693-7.207
							c-6.073-4.212-11.362-7.023-15.072-8.805c-1.854-0.897-3.315-1.545-4.312-1.972c-0.478-0.201-0.853-0.359-1.136-0.478
							C69.93,317.917,69.797,317.867,69.793,317.876z"/>
					</g>
				</g>
			</g>
		</g>
		<g>
			<g>
				<g>
					<g>
						<path style="fill:#E0E0E0;" d="M122.093,355.863c0.038-0.005,0.007-0.486-0.08-1.353c-0.084-0.867-0.247-2.118-0.471-3.66
							c-0.445-3.083-1.205-7.321-2.06-11.989c-0.856-4.671-1.554-8.907-1.951-11.989c-0.202-1.54-0.354-2.789-0.448-3.653
							c-0.099-0.864-0.172-1.341-0.211-1.339c-0.039,0.002-0.041,0.484-0.01,1.355c0.026,0.871,0.116,2.13,0.269,3.681
							c0.295,3.105,0.932,7.369,1.79,12.044c0.856,4.605,1.631,8.771,2.223,11.953c0.259,1.44,0.475,2.653,0.649,3.627
							C121.949,355.396,122.054,355.868,122.093,355.863z"/>
					</g>
				</g>
			</g>
		</g>
		<g>
			<g>
				<g>
					<g>
						<path style="fill:#E0E0E0;" d="M81.774,359.893c0.01,0.038,0.573-0.058,1.578-0.263c1.006-0.199,2.461-0.496,4.27-0.804
							c3.612-0.646,8.633-1.363,14.207-1.911c5.577-0.539,10.644-0.812,14.315-0.903c1.836-0.059,3.323-0.067,4.35-0.078
							c1.028-0.007,1.597-0.03,1.599-0.07c0.001-0.04-0.567-0.093-1.596-0.154c-1.029-0.057-2.52-0.111-4.362-0.105
							c-3.683-0.013-8.772,0.197-14.366,0.737c-5.59,0.551-10.621,1.335-14.225,2.085c-1.805,0.361-3.251,0.718-4.245,0.987
							C82.308,359.685,81.764,359.854,81.774,359.893z"/>
					</g>
				</g>
			</g>
		</g>
		<g>
			<g>
				<g>
					<g>
						<path style="fill:#E0E0E0;" d="M151.165,393.478c0.02,0.003,0.062-0.184,0.126-0.543c0.068-0.426,0.15-0.945,0.249-1.574
							c0.211-1.368,0.464-3.355,0.744-5.815c0.564-4.919,1.13-11.738,1.652-19.271c0.523-7.536,1.025-14.351,1.485-19.275
							c0.231-2.395,0.421-4.366,0.563-5.83c0.058-0.635,0.105-1.158,0.144-1.588c0.027-0.363,0.032-0.555,0.012-0.559
							c-0.019-0.002-0.062,0.185-0.126,0.544c-0.068,0.426-0.15,0.944-0.25,1.573c-0.21,1.368-0.464,3.355-0.744,5.815
							c-0.564,4.919-1.13,11.738-1.652,19.274c-0.523,7.534-1.025,14.348-1.485,19.273c-0.232,2.395-0.421,4.366-0.563,5.829
							c-0.058,0.635-0.105,1.159-0.144,1.588C151.15,393.283,151.145,393.475,151.165,393.478z"/>
					</g>
				</g>
			</g>
		</g>
		<g>
			<g>
				<g>
					<g>
						<path style="fill:#E0E0E0;" d="M95.576,391.955c0.001,0.02,0.195,0.04,0.565,0.061c0.436,0.017,0.971,0.038,1.62,0.063
							c1.492,0.044,3.506,0.102,5.956,0.173c5.029,0.147,11.972,0.43,19.644,0.753c7.674,0.324,14.627,0.542,19.66,0.585
							c2.517,0.022,4.553,0.02,5.96-0.011c0.649-0.018,1.185-0.033,1.62-0.044c0.37-0.017,0.565-0.036,0.565-0.056
							c-0.001-0.02-0.195-0.04-0.565-0.061c-0.435-0.016-0.97-0.037-1.62-0.062c-1.492-0.044-3.505-0.102-5.955-0.173
							c-5.029-0.146-11.973-0.429-19.647-0.753c-7.672-0.323-14.624-0.542-19.657-0.585c-2.517-0.022-4.553-0.02-5.961,0.011
							c-0.649,0.018-1.184,0.032-1.62,0.044C95.77,391.916,95.576,391.935,95.576,391.955z"/>
					</g>
				</g>
			</g>
		</g>
	</g>
	<g>
		<g>
			<polygon style="fill:#F5F5F5;" points="278.839,194.782 281.639,223.82 295.79,223.82 299.18,194.782 			"/>
		</g>
		<g>
			<path style="fill:#E0E0E0;" d="M278.839,191.028c0,0-1.179,1.179-1.327,3.832h22.995c0,0,0.442-2.358-1.327-3.832H278.839z"/>
		</g>
		<g>
			<polygon style="fill:#E0E0E0;" points="281.461,188.368 280.683,191.241 298.04,191.372 296.894,188.335 			"/>
		</g>
		<g>
			<path style="fill:#EBEBEB;" d="M278.549,202.051c0,0.269,1.684,14.615,1.684,14.615h17.301l1.647-14.615H278.549z"/>
		</g>
	</g>
</g>
<g id="Background_Simple" style="display:none;">
	<path style="display:inline;fill:#EBEBEB;" d="M603.714,113.123c31.99,53.322,28.636,128.392-11.347,177.796
		c-39.983,49.404-101.91,87.413-171.857,99.061c-49.931,8.314-131.841,9.869-177.463-9.031
		c-45.622-18.901-85.377-61.084-85.536-103.672c-0.069-18.379,5.405-42.495,27.954-61.655
		c21.541-18.303,61.433-16.098,92.123-15.308c30.69,0.79,65.596,0.191,86.156-18.885c15.798-14.658,18.124-35.919,26.449-54.385
		c14.155-31.399,48.306-55.916,87.553-62.856c5.451-0.964,10.976-1.584,16.525-1.874c43.167-2.255,84.11,16.327,106.755,47.153
		L603.714,113.123z"/>
</g>
<g id="Floor">
	<g>
		<g>
			<path style="fill:#263238;" d="M691.484,444.284c0,0.144-141.706,0.26-316.469,0.26c-174.824,0-316.499-0.117-316.499-0.26
				c0-0.144,141.676-0.26,316.499-0.26C549.778,444.024,691.484,444.14,691.484,444.284z"/>
		</g>
	</g>
</g>
<g id="Clock">
	<g>
		<g>
			
				<ellipse transform="matrix(0.7071 -0.7071 0.7071 0.7071 87.9037 446.1717)" style="fill:#E8505B;" cx="582.529" cy="116.977" rx="40.243" ry="40.243"/>
		</g>
		<g>
			<g>
				<path style="fill:#FAFAFA;" d="M600.801,118.215c0,0.033-0.504,0.065-1.422,0.094c-1.006,0.02-2.319,0.047-3.911,0.079
					c-3.319,0.046-7.943,0.077-13.163,0.085l-0.258,0l0-0.259c-0.001-0.835-0.001-1.716-0.002-2.609
					c0-5.83,0.029-11.107,0.076-14.926c0.034-1.841,0.062-3.366,0.083-4.523c0.031-1.068,0.065-1.659,0.101-1.659
					c0.036,0,0.07,0.59,0.101,1.659c0.021,1.158,0.049,2.682,0.083,4.523c0.047,3.82,0.076,9.096,0.076,14.926
					c-0.001,0.894-0.001,1.774-0.002,2.609l-0.258-0.258c5.22,0.008,9.844,0.039,13.163,0.085c1.592,0.032,2.905,0.058,3.911,0.079
					C600.297,118.15,600.801,118.181,600.801,118.215z"/>
			</g>
		</g>
		<g>
			<g>
				<path style="fill:#FAFAFA;" d="M582.428,83.344c0.144,0,0.26,1.514,0.26,3.38c0,1.867-0.116,3.381-0.26,3.381
					c-0.144,0-0.26-1.513-0.26-3.381C582.168,84.857,582.285,83.344,582.428,83.344z"/>
			</g>
		</g>
		<g>
			<g>
				<path style="fill:#FAFAFA;" d="M600.765,88.773c0.102,0.102-0.871,1.239-2.172,2.54c-1.301,1.301-2.438,2.274-2.54,2.172
					c-0.102-0.102,0.871-1.239,2.172-2.54C599.526,89.644,600.663,88.671,600.765,88.773z"/>
			</g>
		</g>
		<g>
			<g>
				<path style="fill:#FAFAFA;" d="M611.486,100.485c0.066,0.131-1.211,0.899-2.773,1.851c-1.565,0.949-2.834,1.729-2.92,1.61
					c-0.083-0.113,1.064-1.093,2.65-2.055C610.025,100.927,611.423,100.359,611.486,100.485z"/>
			</g>
		</g>
		<g>
			<g>
				<path style="fill:#FAFAFA;" d="M617.769,117.865c0,0.144-2.064,0.26-4.609,0.26c-2.546,0-4.61-0.117-4.61-0.26
					s2.064-0.26,4.61-0.26C615.705,117.605,617.769,117.722,617.769,117.865z"/>
			</g>
		</g>
		<g>
			<g>
				<path style="fill:#FAFAFA;" d="M553.848,117.251c0,0.144-1.949,0.26-4.353,0.26c-2.405,0-4.354-0.117-4.354-0.26
					c0-0.144,1.949-0.26,4.354-0.26C551.899,116.99,553.848,117.107,553.848,117.251z"/>
			</g>
		</g>
		<g>
			<g>
				<path style="fill:#FAFAFA;" d="M558.369,130.19c0.094,0.109-1.378,1.445-3.289,2.984c-1.912,1.54-3.531,2.694-3.617,2.579
					c-0.086-0.115,1.387-1.451,3.29-2.984C556.655,131.236,558.275,130.082,558.369,130.19z"/>
			</g>
		</g>
		<g>
			<g>
				<path style="fill:#FAFAFA;" d="M569.522,140.197c0.12,0.088-0.972,1.767-2.239,3.881c-1.272,2.111-2.243,3.864-2.376,3.799
					c-0.126-0.059,0.644-1.933,1.93-4.067C568.117,141.673,569.41,140.114,569.522,140.197z"/>
			</g>
		</g>
		<g>
			<g>
				<path style="fill:#FAFAFA;" d="M582.428,153.104c-0.144,0-0.26-2.064-0.26-4.609c0-2.546,0.116-4.61,0.26-4.61
					c0.144,0,0.26,2.064,0.26,4.61C582.689,151.04,582.572,153.104,582.428,153.104z"/>
			</g>
		</g>
		<g>
			<g>
				<path style="fill:#FAFAFA;" d="M602.298,146.962c-0.073,0.116-1.877-0.921-3.801-2.604c-1.93-1.677-3.203-3.322-3.098-3.41
					c0.113-0.1,1.541,1.368,3.441,3.017C600.733,145.622,602.382,146.837,602.298,146.962z"/>
			</g>
		</g>
		<g>
			<g>
				<path style="fill:#FAFAFA;" d="M611.623,136.919c-0.102,0.102-1.468-1.1-3.052-2.684c-1.584-1.584-2.786-2.951-2.684-3.053
					c0.102-0.102,1.468,1.1,3.052,2.684C610.523,135.45,611.725,136.817,611.623,136.919z"/>
			</g>
		</g>
		<g>
			<g>
				<path style="fill:#FAFAFA;" d="M557.946,104.856c-0.102,0.102-1.308-0.94-2.694-2.326c-1.386-1.386-2.427-2.592-2.326-2.694
					c0.102-0.102,1.308,0.939,2.694,2.326C557.006,103.548,558.047,104.754,557.946,104.856z"/>
			</g>
		</g>
		<g>
			<g>
				<path style="fill:#FAFAFA;" d="M569.454,92.733c-0.102,0.102-1.287-0.914-2.648-2.268c-1.361-1.355-2.382-2.536-2.28-2.638
					c0.101-0.102,1.287,0.913,2.648,2.269C568.535,91.45,569.556,92.631,569.454,92.733z"/>
			</g>
		</g>
	</g>
</g>
<g id="Mobile">
	<g>
		<g>
			<g>
				<g>
					<g>
						<g>
							<g>
								<path style="fill:#263238;" d="M598.425,444.295l-73.253-0.338c-8.811-0.039-15.921-7.193-15.883-15.979l0.775-183.135
									c0.038-8.791,7.216-15.886,16.03-15.845l73.254,0.338c8.81,0.04,15.92,7.194,15.883,15.979l-0.777,183.136
									C614.417,437.242,607.239,444.337,598.425,444.295z"/>
							</g>
						</g>
					</g>
					<g>
						<g>
							<g>
								<path style="fill:#FFFFFF;" d="M599.244,235.656l-14.203-0.065c-1.904-0.008-3.455,1.594-3.463,3.579l-0.012,2.569
									c-0.007,1.985-1.559,3.588-3.463,3.58l-27.684-0.128c-1.904-0.009-3.442-1.626-3.434-3.612l0.012-2.569
									c0.008-1.985-1.529-3.603-3.434-3.611l-4.995-0.024l-12.43-0.057c-6.174-0.028-11.201,4.941-11.227,11.097l-0.758,178.753
									c-0.026,6.154,4.954,11.163,11.124,11.191l73.107,0.337c6.173,0.029,11.2-4.939,11.226-11.097l0.758-178.754
									C610.393,240.694,605.414,235.685,599.244,235.656z"/>
							</g>
						</g>
					</g>
				</g>
			</g>
		</g>
		<g>
			<g>
				<path style="fill:#E8505B;" d="M549.016,383.247l0.722,13.284c0.026,0.473,0.415,0.845,0.889,0.848l23.903,0.175
					c0.495,0.004,0.9-0.395,0.903-0.89l0.076-10.34c0.004-0.498-0.398-0.903-0.896-0.903l-14.701-0.013
					c-0.237,0-0.465-0.095-0.633-0.263l-2.536-2.535c-0.167-0.167-0.392-0.261-0.628-0.263l-6.197-0.045
					C549.401,382.298,548.988,382.731,549.016,383.247z"/>
			</g>
			<g>
				
					<rect x="549.353" y="383.762" transform="matrix(1 0.0073 -0.0073 1 2.8847 -4.1111)" style="fill:#F5F5F5;" width="26.118" height="15.607"/>
			</g>
			<g>
				<path style="fill:#E8505B;" d="M547.323,385.052l1.875,16.289c0.033,0.289,0.277,0.509,0.569,0.511l25.452,0.186
					c0.301,0.002,0.553-0.227,0.579-0.527l1.401-16.265c0.029-0.335-0.234-0.624-0.57-0.626l-28.728-0.211
					C547.554,384.406,547.283,384.708,547.323,385.052z"/>
			</g>
		</g>
		<g>
			<g>
				<g>
					<g>
						<path style="fill:#E8505B;" d="M590.526,333.211c-0.108,0-0.262-1.012-0.446-2.814c-0.189-0.889-0.35-1.988-0.663-3.231
							c-0.178-0.618-0.368-1.276-0.569-1.972c-0.21-0.694-0.534-1.393-0.813-2.146c-1.235-2.959-3.231-6.29-6.215-9.293
							c-2.989-2.98-7.007-5.537-11.65-6.997c-4.671-1.359-9.431-1.522-13.577-0.718c-4.164,0.783-7.671,2.468-10.351,4.227
							c-2.691,1.77-4.553,3.644-5.787,4.967c-0.622,0.663-1.078,1.203-1.393,1.569c-0.322,0.36-0.514,0.536-0.558,0.506
							c-0.045-0.03,0.06-0.265,0.302-0.689c0.235-0.429,0.62-1.037,1.182-1.775c1.116-1.472,2.911-3.526,5.626-5.486
							c2.702-1.947,6.329-3.826,10.695-4.729c4.345-0.926,9.376-0.807,14.317,0.635c4.91,1.54,9.135,4.29,12.219,7.48
							c3.083,3.214,5.07,6.772,6.219,9.9c0.258,0.795,0.556,1.535,0.736,2.264c0.166,0.73,0.323,1.42,0.47,2.068
							c0.24,1.299,0.317,2.44,0.415,3.358C590.686,332.198,590.634,333.212,590.526,333.211z"/>
					</g>
				</g>
				<g>
					<g>
						<path style="fill:#E8505B;" d="M576.953,323.124c0.261-0.344,6.455,3.928,13.833,9.54c0.141,0.107,0.281,0.214,0.411,0.313
							l-1.21,0.364c2.993-8.53,5.702-15.242,6.102-15.103c0.399,0.139-1.659,7.079-4.628,15.617l-0.353,1.015l-0.857-0.651
							c-0.13-0.099-0.271-0.206-0.412-0.313C582.462,328.296,576.692,323.467,576.953,323.124z"/>
					</g>
				</g>
			</g>
			<g>
				<g>
					<g>
						<path style="fill:#E8505B;" d="M536.95,328.495c0.107,0.013,0.139,1.007,0.105,2.766c0.054,0.88,0.116,1.957,0.234,3.194
							c0.205,1.231,0.376,2.636,0.823,4.137c0.805,3.007,2.281,6.475,4.742,9.767c2.417,3.314,5.914,6.342,10.156,8.426l0.786,0.402
							l0.817,0.321c0.542,0.214,1.081,0.427,1.616,0.639c0.547,0.177,1.101,0.318,1.644,0.478c0.547,0.145,1.078,0.341,1.633,0.413
							c2.184,0.453,4.334,0.682,6.387,0.636c4.108-0.062,7.763-1.008,10.628-2.234c2.891-1.196,5.009-2.643,6.434-3.672
							c0.713-0.52,1.256-0.942,1.623-1.232c0.375-0.282,0.591-0.413,0.629-0.374c0.038,0.038-0.105,0.244-0.414,0.603
							c-0.301,0.368-0.786,0.87-1.455,1.474c-1.336,1.197-3.421,2.832-6.368,4.209c-2.918,1.406-6.721,2.519-11.043,2.665
							c-2.159,0.088-4.427-0.119-6.735-0.577c-0.586-0.073-1.148-0.272-1.727-0.421c-0.575-0.165-1.161-0.311-1.739-0.496
							c-0.566-0.221-1.137-0.444-1.711-0.668l-0.863-0.339l-0.832-0.423c-0.555-0.285-1.107-0.568-1.655-0.85
							c-0.526-0.32-1.035-0.661-1.547-0.988c-1.051-0.617-1.937-1.434-2.869-2.149c-0.461-0.365-0.853-0.801-1.275-1.193
							c-0.404-0.412-0.847-0.778-1.205-1.217c-0.365-0.431-0.727-0.857-1.085-1.279l-0.528-0.632l-0.465-0.669
							c-2.523-3.51-3.958-7.196-4.655-10.356c-0.393-1.578-0.495-3.047-0.62-4.323c-0.039-1.283-0.012-2.39,0.028-3.287
							C536.67,329.452,536.844,328.481,536.95,328.495z"/>
					</g>
				</g>
				<g>
					<g>
						<path style="fill:#E8505B;" d="M549.189,340.166c-0.301,0.309-5.926-4.688-12.563-11.16c-0.127-0.124-0.253-0.247-0.37-0.361
							l1.245-0.213c-4.013,8.1-7.523,14.431-7.902,14.243c-0.379-0.187,2.512-6.823,6.502-14.935l0.474-0.964l0.771,0.751
							c0.117,0.114,0.244,0.237,0.37,0.361C544.353,334.359,549.49,339.857,549.189,340.166z"/>
					</g>
				</g>
			</g>
		</g>
	</g>
</g>
<g id="Computer">
	<g>
		<g>
			<g>
				<g>
					<g>
						<g>
							<g>
								<path style="fill:#263238;" d="M457.099,441.345H157.93c-8.045,0-14.567-6.522-14.567-14.567V231.992
									c0-4.281,3.47-7.751,7.751-7.751h313.812c3.722,0,6.74,3.018,6.74,6.74v195.796
									C471.666,434.823,465.144,441.345,457.099,441.345z"/>
							</g>
						</g>
						<g>
							<g>
								<path style="fill:#263238;" d="M471.604,444.284H143.355c-7.578,0-13.721-6.143-13.721-13.721v-5.275h355.691v5.275
									C485.325,438.141,479.182,444.284,471.604,444.284z"/>
							</g>
						</g>
						<g>
							<g>
								<rect x="152.175" y="232.867" style="fill:#455A64;" width="309.76" height="183.34"/>
							</g>
						</g>
						<g>
							<g>
								<polygon style="fill:#455A64;" points="275.15,425.288 279.564,432.309 341.672,432.309 345.771,425.288 								"/>
							</g>
						</g>
					</g>
					<g>
						<g>
							<rect x="162.506" y="245.076" style="fill:#FFFFFF;" width="285.194" height="171.061"/>
						</g>
					</g>
					<g>
						<g>
							<path style="fill:#263238;" d="M174.68,253.513c0,1.321-1.071,2.392-2.393,2.392c-1.321,0-2.392-1.071-2.392-2.392
								c0-1.322,1.071-2.393,2.392-2.393C173.609,251.119,174.68,252.191,174.68,253.513z"/>
						</g>
					</g>
					<g>
						<g>
							<path style="fill:#263238;" d="M184.444,253.513c0,1.321-1.071,2.392-2.393,2.392s-2.393-1.071-2.393-2.392
								c0-1.322,1.072-2.393,2.393-2.393S184.444,252.191,184.444,253.513z"/>
						</g>
					</g>
					<g>
						<g>
							<path style="fill:#263238;" d="M194.209,253.513c0,1.321-1.072,2.392-2.393,2.392c-1.321,0-2.393-1.071-2.393-2.392
								c0-1.322,1.071-2.393,2.393-2.393C193.138,251.119,194.209,252.191,194.209,253.513z"/>
						</g>
					</g>
					<g>
						<g>
							<g>
								<path style="fill:#263238;" d="M447.7,263.982c0,0.15-63.848,0.272-142.59,0.272c-78.77,0-142.604-0.122-142.604-0.272
									c0-0.151,63.834-0.273,142.604-0.273C383.852,263.709,447.7,263.831,447.7,263.982z"/>
							</g>
						</g>
					</g>
					<g>
						<g>
							<rect x="143.363" y="425.434" style="fill:#455A64;" width="328.303" height="1.047"/>
						</g>
					</g>
				</g>
			</g>
			<g>
				<g>
					<path style="fill:#E8505B;" d="M257.808,302.184l2.87,52.801c0.102,1.881,1.65,3.358,3.534,3.371l95.014,0.696
						c1.969,0.014,3.577-1.57,3.591-3.539l0.301-41.1c0.015-1.978-1.584-3.589-3.562-3.591l-58.435-0.052
						c-0.944-0.001-1.849-0.376-2.517-1.044l-10.082-10.078c-0.662-0.662-1.558-1.037-2.494-1.044l-24.634-0.18
						C259.339,298.41,257.697,300.132,257.808,302.184z"/>
				</g>
				<g>
					
						<rect x="259.148" y="304.23" transform="matrix(1 0.0073 -0.0073 1 2.4642 -2.2696)" style="fill:#F5F5F5;" width="103.816" height="62.036"/>
				</g>
				<g>
					<path style="fill:#E8505B;" d="M251.077,309.357l7.452,64.749c0.132,1.151,1.102,2.022,2.261,2.03l101.173,0.741
						c1.196,0.009,2.198-0.904,2.301-2.096l5.568-64.653c0.115-1.332-0.93-2.479-2.267-2.489l-114.193-0.836
						C251.995,306.792,250.92,307.989,251.077,309.357z"/>
				</g>
			</g>
		</g>
		<g>
			<g>
				<g>
					<g>
						<path style="fill:#E0E0E0;" d="M332.575,342.261c-0.311,0.027-0.144-2.834-1.861-6.858c-0.855-1.988-2.216-4.222-4.233-6.233
							c-2.021-1.996-4.725-3.707-7.845-4.689c-3.139-0.913-6.339-1.03-9.131-0.502c-2.804,0.514-5.174,1.631-6.996,2.799
							c-3.648,2.404-5.146,4.834-5.372,4.652c-0.073-0.047,0.193-0.708,0.936-1.74c0.741-1.026,1.953-2.455,3.807-3.82
							c1.844-1.356,4.334-2.667,7.341-3.302c2.992-0.65,6.462-0.576,9.87,0.419c3.387,1.062,6.298,2.966,8.414,5.173
							c2.116,2.223,3.468,4.683,4.237,6.841c0.811,2.16,0.951,4.036,1.037,5.294C332.752,341.57,332.683,342.261,332.575,342.261z"
							/>
					</g>
				</g>
				<g>
					<g>
						<path style="fill:#E0E0E0;" d="M323.329,335.389c0.261-0.344,4.548,2.478,9.574,6.301c0.096,0.073,0.191,0.146,0.28,0.213
							l-1.21,0.364c2.043-5.809,3.992-10.345,4.392-10.206c0.399,0.139-0.899,4.903-2.917,10.721l-0.352,1.015l-0.858-0.651
							c-0.089-0.067-0.184-0.14-0.28-0.213C326.931,339.11,323.068,335.732,323.329,335.389z"/>
					</g>
				</g>
			</g>
			<g>
				<g>
					<g>
						<path style="fill:#E0E0E0;" d="M296.079,339.048c0.317,0.013-0.191,2.749,0.963,6.837c0.566,2.024,1.578,4.352,3.244,6.559
							c1.637,2.223,3.992,4.251,6.843,5.652c0.69,0.398,1.456,0.606,2.163,0.917c0.743,0.209,1.467,0.46,2.203,0.602
							c1.468,0.308,2.914,0.467,4.296,0.443c2.764-0.029,5.231-0.647,7.173-1.453c1.961-0.786,3.408-1.741,4.393-2.416
							c0.988-0.678,1.507-1.11,1.596-1.019c0.063,0.062-0.312,0.643-1.211,1.491c-0.896,0.842-2.311,1.986-4.327,2.953
							c-1.996,0.986-4.611,1.771-7.588,1.884c-1.488,0.067-3.051-0.071-4.643-0.383c-0.797-0.145-1.586-0.405-2.392-0.629
							c-0.771-0.327-1.599-0.558-2.35-0.985c-3.094-1.519-5.618-3.762-7.315-6.203c-1.729-2.426-2.699-4.971-3.157-7.148
							c-0.259-1.087-0.317-2.098-0.39-2.975c-0.013-0.882,0.019-1.64,0.061-2.254C295.821,339.692,295.973,339.034,296.079,339.048z
							"/>
					</g>
				</g>
				<g>
					<g>
						<path style="fill:#E0E0E0;" d="M304.416,346.998c-0.301,0.309-4.211-3.015-8.732-7.424c-0.086-0.084-0.172-0.168-0.252-0.246
							l1.245-0.213c-2.738,5.516-5.227,9.78-5.606,9.592c-0.379-0.187,1.492-4.756,4.206-10.284l0.474-0.964l0.772,0.751
							c0.08,0.078,0.166,0.161,0.252,0.246C301.296,342.864,304.717,346.69,304.416,346.998z"/>
					</g>
				</g>
			</g>
		</g>
	</g>
</g>
<g id="Character">
	<g>
		<g>
			<g>
				<g>
					<g>
						<path style="fill:#B78876;" d="M218.165,156.853l-4.842,15.174c-1.859,6.266-7.116,10.975-13.611,12.194l-32.387,6.079
							l-8.809-0.283l8.809-10.905l24.346-8.301c2.391-0.527,4.285-2.326,4.912-4.664l9.692-21.084l12.276,7.529L218.165,156.853z"/>
					</g>
				</g>
				<g>
					<g>
						<path style="fill:#455A64;" d="M265.92,141.997c-0.454,2.349-7.305,19.448-7.305,19.448s-26.657-9.028-26.303-10.36
							c0.286-1.074,5.403-18.195,11.543-27.677c2.381-3.677,6.306-6.15,10.678-6.427c1.202-0.076,3.803,1.167,4.516,1.571
							C264.661,121.724,269.43,123.845,265.92,141.997z"/>
					</g>
				</g>
				<g>
					<g>
						<g>
							<g>
								<path style="fill:#E8505B;" d="M228.296,108.868c-12.06,1.352-14.013,9.539-19.639,17.608l-8.129,15.006l14.949,9.168
									l-0.518,23.035l-7.124,21.956l56.25-5.291l-5.192-18.84l7.497-29.581c0.569-4.03,2.12-11.525,1.071-15.49
									c-3.279-12.394-16.165-16.016-25.024-18.318c-1.827-0.475-10.649-0.445-12.178-0.07"/>
							</g>
						</g>
					</g>
					<g>
						<g>
							<g>
								<path style="fill:#263238;" d="M265.432,141.758c-0.007-0.002-0.048,0.106-0.121,0.32c-0.077,0.233-0.181,0.548-0.313,0.948
									c-0.272,0.856-0.66,2.078-1.154,3.631c-0.986,3.165-2.39,7.675-4.095,13.148l0.188-0.093
									c-6.987-2.579-15.659-5.781-25.035-9.242c-0.214-0.089-0.428-0.177-0.626-0.258l0.104,0.208
									c1.625-5.992,3.651-11.572,5.863-16.462c2.221-4.88,4.703-9.087,7.444-12.069c1.365-1.488,2.8-2.651,4.208-3.407
									c1.401-0.764,2.767-1.129,3.89-1.15c0.28-0.006,0.547-0.055,0.795-0.023c0.247,0.026,0.479,0.051,0.696,0.074
									c0.215,0.027,0.417,0.034,0.596,0.071c0.175,0.047,0.336,0.09,0.481,0.129c0.274,0.071,0.49,0.127,0.656,0.169
									c0.148,0.036,0.226,0.052,0.228,0.047c0.002-0.006-0.071-0.033-0.216-0.081c-0.164-0.051-0.379-0.119-0.649-0.204
									c-0.145-0.044-0.306-0.093-0.481-0.146c-0.179-0.043-0.383-0.056-0.6-0.089c-0.219-0.028-0.454-0.059-0.704-0.091
									c-0.251-0.037-0.522,0.007-0.807,0.007c-1.143,0.001-2.543,0.352-3.977,1.113c-1.441,0.753-2.907,1.92-4.298,3.412
									c-2.793,2.992-5.311,7.211-7.558,12.103c-2.238,4.905-4.276,10.488-5.91,16.51l-0.04,0.149l0.145,0.06
									c0.198,0.082,0.412,0.17,0.627,0.259c9.379,3.509,18.079,6.629,25.071,9.183l0.144,0.053l0.044-0.146
									c1.655-5.488,3.019-10.01,3.976-13.184c0.461-1.563,0.824-2.792,1.079-3.654c0.115-0.406,0.205-0.724,0.272-0.961
									C265.412,141.873,265.439,141.76,265.432,141.758z"/>
							</g>
						</g>
					</g>
					<g>
						<g>
							<g>
								<path style="fill:#263238;" d="M235.343,147.015c-0.031,0.094,5.751,2.092,12.913,4.463
									c7.165,2.372,12.996,4.218,13.027,4.125c0.031-0.093-5.75-2.091-12.915-4.463
									C241.206,148.769,235.374,146.922,235.343,147.015z"/>
							</g>
						</g>
					</g>
				</g>
				<g>
					<polygon style="fill:#263238;" points="232.309,194.967 234.466,142.96 216.119,142.96 210.951,197.758 					"/>
				</g>
				<g style="opacity:0.3;">
					<g>
						<g>
							<path d="M258.525,159.386c-0.998,4.198-2.527,10.439-4.154,14.437c-1.197,2.943-2.518,5.887-4.545,8.333
								c-2.762,3.331-6.72,5.55-10.904,6.654c-4.184,1.104-8.592,1.147-12.889,0.633l21.417-12.099l5.696-19.796L258.525,159.386z"
								/>
						</g>
					</g>
				</g>
				<g>
					<g>
						<path style="fill:#B78876;" d="M256.072,158.284l-5.282,17.274c-1.859,6.345-7.116,11.114-13.611,12.348l-32.387,6.155
							l-8.81-0.287l8.81-11.043l24.346-8.406c2.391-0.534,4.285-2.355,4.912-4.723l4.508-17.393L256.072,158.284z"/>
					</g>
				</g>
				<g>
					<g>
						<g>
							<path style="fill:#263238;" d="M214.974,173.052c0.036,0.001,0.088-0.582,0.151-1.636c0.056-1.144,0.129-2.648,0.218-4.464
								c0.161-3.77,0.348-8.979,0.522-14.732c0.174-5.756,0.303-10.967,0.37-14.74c0.021-1.818,0.039-3.324,0.053-4.469
								c0.001-1.056-0.016-1.641-0.052-1.642s-0.088,0.58-0.151,1.633c-0.056,1.144-0.129,2.647-0.218,4.463
								c-0.161,3.77-0.348,8.98-0.523,14.738c-0.174,5.755-0.303,10.967-0.37,14.74c-0.021,1.818-0.039,3.324-0.053,4.469
								C214.922,172.467,214.938,173.051,214.974,173.052z"/>
						</g>
					</g>
				</g>
				<g style="opacity:0.3;">
					<g>
						<g>
							<path style="fill:none;stroke:#000000;stroke-width:0.25;stroke-miterlimit:10;" d="M237.179,158.135"/>
						</g>
					</g>
				</g>
				<g>
					<g>
						<g>
							<path style="fill:#263238;" d="M202.719,137.487c-0.073,0.124,2.754,1.92,6.313,4.012c3.561,2.092,6.505,3.687,6.578,3.563
								c0.073-0.124-2.753-1.92-6.314-4.012C205.737,138.958,202.792,137.363,202.719,137.487z"/>
						</g>
					</g>
				</g>
			</g>
			<g>
				<g>
					<g>
						<g>
							<g>
								<g>
									<g>
										<g>
											<g>
												<path style="fill:#E8505B;" d="M128.612,307.606l-0.202-9.895l18.979-6.741l0.784,13.777l-1.067,0.515
													c-4.766,2.252-24.39,11.114-28.05,11.451C114.973,317.087,128.612,307.606,128.612,307.606z"/>
											</g>
										</g>
									</g>
								</g>
							</g>
						</g>
						<g style="opacity:0.4;">
							<g>
								<g>
									<g>
										<g>
											<path style="fill:#FFFFFF;" d="M122.054,312.5c0,0-4.645,3.656-3.636,4.256c1.008,0.6,21.177-7.61,29.756-12.01
												l-0.189-0.383l-23.443,9.777C124.542,314.14,123.1,312.125,122.054,312.5z"/>
										</g>
									</g>
								</g>
							</g>
						</g>
						<g>
							<g>
								<g>
									<g>
										<g>
											<g>
												<path style="fill:#263238;" d="M148.258,304.239c0.003,0.007-0.097,0.061-0.29,0.156
													c-0.255,0.122-0.535,0.257-0.851,0.408c-0.857,0.393-1.911,0.875-3.154,1.445c-2.672,1.201-6.385,2.812-10.524,4.501
													c-4.141,1.688-7.922,3.135-10.672,4.145c-1.287,0.463-2.378,0.855-3.265,1.173c-0.331,0.113-0.625,0.213-0.893,0.304
													c-0.205,0.067-0.314,0.099-0.317,0.091c-0.003-0.007,0.101-0.054,0.301-0.135c0.264-0.104,0.552-0.217,0.878-0.344
													c0.88-0.337,1.962-0.752,3.238-1.242c2.734-1.049,6.504-2.519,10.642-4.207c4.137-1.688,7.858-3.274,10.546-4.437
													c1.255-0.543,2.318-1.003,3.183-1.378c0.322-0.137,0.608-0.258,0.869-0.368
													C148.148,304.272,148.254,304.232,148.258,304.239z"/>
											</g>
										</g>
									</g>
								</g>
							</g>
						</g>
						<g>
							<g>
								<g>
									<g>
										<g>
											<g>
												<path style="fill:#263238;" d="M124.658,314.412c-0.062,0.035-0.424-0.711-1.223-1.288
													c-0.789-0.591-1.609-0.714-1.595-0.784c-0.009-0.059,0.884-0.034,1.732,0.597
													C124.427,313.559,124.716,314.403,124.658,314.412z"/>
											</g>
										</g>
									</g>
								</g>
							</g>
						</g>
						<g>
							<g>
								<g>
									<g>
										<g>
											<g>
												<path style="fill:#263238;" d="M128.794,309.646c-0.037,0.052-0.41-0.15-0.833-0.451
													c-0.423-0.301-0.736-0.587-0.699-0.639c0.037-0.052,0.41,0.15,0.833,0.451
													C128.518,309.308,128.831,309.594,128.794,309.646z"/>
											</g>
										</g>
									</g>
								</g>
							</g>
						</g>
						<g>
							<g>
								<g>
									<g>
										<g>
											<g>
												<path style="fill:#263238;" d="M129.916,308.308c-0.022,0.06-0.376-0.013-0.792-0.162
													c-0.416-0.15-0.735-0.319-0.714-0.379c0.022-0.06,0.376,0.012,0.792,0.162
													C129.618,308.078,129.938,308.248,129.916,308.308z"/>
											</g>
										</g>
									</g>
								</g>
							</g>
						</g>
						<g>
							<g>
								<g>
									<g>
										<g>
											<g>
												<path style="fill:#263238;" d="M130.142,306.272c0.025,0.059-0.367,0.279-0.874,0.493
													c-0.507,0.213-0.939,0.338-0.963,0.279c-0.025-0.059,0.366-0.279,0.874-0.492
													C129.686,306.339,130.117,306.214,130.142,306.272z"/>
											</g>
										</g>
									</g>
								</g>
							</g>
						</g>
						<g>
							<g>
								<g>
									<g>
										<g>
											<g>
												<path style="fill:#263238;" d="M129.973,304.97c0.041,0.045-0.326,0.431-0.907,0.718
													c-0.58,0.291-1.109,0.351-1.12,0.291c-0.015-0.065,0.466-0.221,1.017-0.497
													C129.516,305.209,129.931,304.919,129.973,304.97z"/>
											</g>
										</g>
									</g>
								</g>
							</g>
						</g>
						<g>
							<g>
								<g>
									<g>
										<g>
											<g>
												<path style="fill:#263238;" d="M127.567,308.349c0.011,0.023-0.403,0.254-1.138,0.455
													c-0.367,0.1-0.814,0.186-1.317,0.225c-0.253,0.011-0.509,0.047-0.808-0.003c-0.143-0.029-0.31-0.084-0.424-0.238
													c-0.116-0.151-0.103-0.379-0.013-0.524c0.856-1.004,2.191-0.836,2.822-0.439c0.338,0.196,0.553,0.434,0.679,0.607
													c0.124,0.176,0.166,0.288,0.154,0.294c-0.034,0.031-0.259-0.415-0.911-0.758c-0.321-0.167-0.751-0.282-1.226-0.235
													c-0.449,0.044-1.033,0.245-1.315,0.643c-0.126,0.207,0.031,0.39,0.28,0.428c0.236,0.044,0.507,0.019,0.749,0.013
													c0.49-0.027,0.929-0.094,1.293-0.172C127.12,308.489,127.553,308.314,127.567,308.349z"/>
											</g>
										</g>
									</g>
								</g>
							</g>
						</g>
						<g>
							<g>
								<g>
									<g>
										<g>
											<g>
												<path style="fill:#263238;" d="M127.296,308.525c-0.011,0.019-0.297-0.203-0.452-0.735
													c-0.074-0.262-0.103-0.596-0.028-0.956c0.098-0.333,0.214-0.786,0.71-0.963c0.277-0.073,0.527,0.174,0.563,0.382
													c0.06,0.207,0.04,0.414,0.014,0.586c-0.053,0.352-0.151,0.659-0.257,0.905c-0.214,0.493-0.441,0.74-0.463,0.724
													c-0.031-0.02,0.143-0.296,0.31-0.783c0.082-0.243,0.159-0.54,0.198-0.875c0.058-0.303-0.011-0.777-0.316-0.713
													c-0.295,0.088-0.47,0.489-0.551,0.786c-0.078,0.318-0.07,0.623-0.021,0.869
													C127.105,308.25,127.33,308.501,127.296,308.525z"/>
											</g>
										</g>
									</g>
								</g>
							</g>
						</g>
						<g>
							<g>
								<g>
									<g>
										<g>
											<g>
												<path style="fill:#263238;" d="M145.93,299.553c0.012,0.042-0.526,0.158-1.286,0.577
													c-0.755,0.41-1.723,1.182-2.37,2.332c-0.645,1.152-0.8,2.381-0.756,3.239c0.039,0.867,0.22,1.386,0.178,1.398
													c-0.013,0.004-0.071-0.12-0.145-0.356c-0.075-0.236-0.154-0.588-0.195-1.031c-0.088-0.878,0.044-2.161,0.717-3.362
													c0.674-1.2,1.7-1.981,2.495-2.364c0.399-0.196,0.741-0.312,0.982-0.371C145.79,299.554,145.926,299.539,145.93,299.553z
													"/>
											</g>
										</g>
									</g>
								</g>
							</g>
						</g>
						<g>
							<g>
								<g>
									<g>
										<g>
											<g>
												<path style="fill:#263238;" d="M141.107,292.947c0.059-0.025,0.789,1.572,1.63,3.566
													c0.842,1.995,1.476,3.631,1.417,3.656c-0.059,0.025-0.788-1.572-1.63-3.566
													C141.682,294.609,141.048,292.972,141.107,292.947z"/>
											</g>
										</g>
									</g>
								</g>
							</g>
						</g>
						<g>
							<g>
								<g>
									<g>
										<g>
											<g>
												<path style="fill:#263238;" d="M138.787,306.394c0.03,0.052-1.044,0.71-2.474,1.306c-1.429,0.6-2.652,0.903-2.668,0.845
													c-0.02-0.064,1.163-0.463,2.578-1.058C137.641,306.896,138.755,306.334,138.787,306.394z"/>
											</g>
										</g>
									</g>
								</g>
							</g>
						</g>
						<g>
							<g>
								<g>
									<g>
										<g>
											<g>
												<path style="fill:#263238;" d="M142.247,304.979c0.061,0.026,0.005,0.283-0.005,0.595
													c-0.014,0.313,0.021,0.573-0.042,0.594c-0.057,0.023-0.205-0.242-0.19-0.603
													C142.024,305.204,142.191,304.952,142.247,304.979z"/>
											</g>
										</g>
									</g>
								</g>
							</g>
						</g>
						<g>
							<g>
								<g>
									<g>
										<g>
											<g>
												<path style="fill:#263238;" d="M142.891,302.824c0.059,0.024,0.02,0.255-0.088,0.514
													c-0.107,0.26-0.242,0.45-0.301,0.426c-0.059-0.024-0.02-0.255,0.088-0.514
													C142.697,302.991,142.832,302.8,142.891,302.824z"/>
											</g>
										</g>
									</g>
								</g>
							</g>
						</g>
						<g>
							<g>
								<g>
									<g>
										<g>
											<g>
												<path style="fill:#263238;" d="M144.456,301.322c0.012,0.065-0.224,0.158-0.446,0.355
													c-0.227,0.192-0.353,0.411-0.416,0.39c-0.061-0.013-0.014-0.325,0.264-0.565
													C144.136,301.262,144.451,301.26,144.456,301.322z"/>
											</g>
										</g>
									</g>
								</g>
							</g>
						</g>
						<g>
							<g>
								<g>
									<g>
										<g>
											<g>
												<path style="fill:#263238;" d="M145.642,300.431c0.044,0.047-0.021,0.178-0.144,0.295
													c-0.124,0.117-0.259,0.173-0.303,0.127c-0.044-0.046,0.021-0.178,0.144-0.295
													C145.463,300.442,145.598,300.385,145.642,300.431z"/>
											</g>
										</g>
									</g>
								</g>
							</g>
						</g>
					</g>
				</g>
			</g>
			<g>
				<g>
					<g>
						<g>
							<path style="fill:#263238;" d="M204.788,196.508l-55.725,1.042c-8.909,0.167-16.338,6.862-17.426,15.706l-11.05,89.803
								h30.265l9.241-77.565h43.94L204.788,196.508z"/>
						</g>
					</g>
					<g>
						<g>
							<g>
								<path style="fill:#455A64;" d="M120.964,297.35c-0.001,0.144,6.629,0.302,14.806,0.353
									c8.18,0.051,14.668-0.154,14.811-0.168c0.939-0.092-6.628-0.301-14.808-0.352
									C127.596,297.131,120.965,297.206,120.964,297.35z"/>
							</g>
						</g>
					</g>
				</g>
				<g>
					<g>
						<g>
							<g>
								<path style="fill:#263238;" d="M257.096,225.495c22.243-7.364,6.991-36.784,6.991-36.784l-97.212,9.143
									c-7.805-0.053-14.16,6.26-14.16,14.064l0,0c0,7.768,6.297,14.065,14.065,14.065L257.096,225.495"/>
							</g>
						</g>
						<g>
							<g>
								<g>
									<polygon style="fill:#455A64;" points="227.376,194.288 227.099,192.189 202.217,191.211 190.006,160.419 143.49,163.577 
										159.187,197.758 									"/>
								</g>
							</g>
							<g>
								<g>
									<path style="fill:#FFFFFF;" d="M171.701,180.394c0.721,1.137,2.227,1.475,3.364,0.755c1.137-0.72,1.475-2.227,0.755-3.364
										c-0.721-1.137-2.227-1.475-3.364-0.755C171.319,177.75,170.981,179.256,171.701,180.394z"/>
								</g>
							</g>
						</g>
					</g>
					<g>
						<g>
							<g>
								<path style="fill:#455A64;" d="M235.436,193.675c-0.001-0.009-0.095-0.012-0.279-0.011
									c-0.212,0.005-0.481,0.011-0.816,0.019c-0.753,0.029-1.801,0.07-3.134,0.122c-2.758,0.129-6.684,0.314-11.52,0.541
									c-9.756,0.507-23.174,1.204-37.995,1.973c-1.854,0.083-3.69,0.236-5.493,0.26c-1.814,0.027-3.599,0.098-5.351,0.198
									c-1.752,0.101-3.471,0.225-5.153,0.397c-1.667,0.184-3.361,0.354-4.897,0.951c-1.535,0.566-2.939,1.397-4.072,2.471
									c-1.136,1.075-1.947,2.4-2.47,3.754c-0.529,1.357-0.819,2.734-1.006,4.058c-0.182,1.325-0.279,2.608-0.269,3.836
									c0.01,2.453,0.463,4.684,1.293,6.46c0.822,1.783,1.967,3.082,3.045,3.93c1.083,0.854,2.084,1.279,2.773,1.483
									c0.692,0.207,0.705,0.139,0.032-0.096c-0.67-0.232-1.639-0.679-2.681-1.539c-1.038-0.853-2.135-2.144-2.913-3.894
									c-0.786-1.745-1.206-3.931-1.193-6.345c0.002-1.207,0.108-2.474,0.298-3.78c0.194-1.303,0.488-2.65,1.009-3.96
									c0.516-1.309,1.297-2.566,2.386-3.587c1.088-1.022,2.442-1.816,3.928-2.358c1.483-0.571,3.112-0.728,4.786-0.909
									c1.672-0.166,3.386-0.285,5.132-0.383c1.746-0.096,3.525-0.164,5.33-0.19c1.816-0.023,3.643-0.174,5.501-0.258
									c14.822-0.827,28.24-1.576,37.997-2.121c4.833-0.294,8.757-0.533,11.514-0.7c1.33-0.092,2.377-0.164,3.129-0.216
									c0.334-0.028,0.602-0.051,0.813-0.069C235.343,193.697,235.437,193.684,235.436,193.675z"/>
							</g>
						</g>
					</g>
				</g>
			</g>
			<g>
				<path style="fill:#263238;" d="M231.694,142.96c0,0,2.479-24.006,23.914-30.246c1.707,0.664,3.129,1.564,4.295,2.674
					c0,0-20.207-0.836-25.437,27.572H231.694z"/>
			</g>
			<g>
				<path style="fill:#263238;" d="M216.288,144.162c0,0-4.928-22.197,12.951-35.567c1.832,0.022,3.479,0.366,4.961,0.996
					c0,0-20.251,6.263-15.174,34.7L216.288,144.162z"/>
			</g>
			<g>
				<g>
					<g>
						<path style="fill:#263238;" d="M252.997,65.594c0.92-2.599,3.389-4.58,6.125-4.915c2.736-0.335,5.61,0.993,7.129,3.293
							c0.969,1.468,1.386,3.219,1.993,4.87c0.607,1.651,1.507,3.322,3.054,4.159c1.81,0.98,4.187,0.643,5.832,1.879
							c1.828,1.373,1.877,4.391,0.342,6.085c-1.535,1.694-4.206,2.06-6.329,1.213c0.445,1.364,0.894,2.758,0.869,4.192
							s-0.614,2.94-1.833,3.695c-1.234,0.764-2.875,0.604-4.157-0.076c-1.282-0.68-2.266-1.804-3.146-2.958
							c-0.257,0.997-0.52,2.011-1.052,2.893c-0.532,0.882-1.382,1.628-2.4,1.785c-1.248,0.193-2.502-0.553-3.225-1.589
							c-0.723-1.036-1.004-2.314-1.163-3.566c-0.394-3.099-0.139-6.265,0.6-9.301c0.473-1.944,1.149-3.935,0.776-5.9
							c-0.373-1.966-2.313-3.815-4.224-3.224"/>
					</g>
					<g>
						<g>
							<path style="fill:#455A64;" d="M278.083,79.01c0.006,0.017-0.105,0.07-0.324,0.155c-0.219,0.083-0.55,0.186-0.986,0.285
								c-0.868,0.185-2.185,0.334-3.774,0.046c-1.576-0.282-3.427-1.064-4.975-2.555c-0.772-0.738-1.472-1.637-2.002-2.677
								c-0.545-1.038-0.857-2.217-1.116-3.393c-0.263-1.179-0.496-2.324-0.932-3.338c-0.425-1.017-1.08-1.869-1.9-2.452
								c-1.643-1.192-3.627-1.368-5.099-0.985c-1.501,0.374-2.55,1.15-3.193,1.724c-0.65,0.584-0.929,0.992-0.968,0.962
								c-0.015-0.01,0.045-0.118,0.173-0.315c0.134-0.192,0.341-0.472,0.654-0.792c0.617-0.634,1.668-1.491,3.241-1.935
								c1.545-0.451,3.679-0.316,5.471,0.952c0.896,0.618,1.633,1.561,2.089,2.64c0.47,1.078,0.71,2.256,0.972,3.426
								c0.259,1.173,0.554,2.291,1.063,3.275c0.496,0.99,1.154,1.851,1.881,2.564c1.459,1.44,3.202,2.22,4.713,2.538
								c1.522,0.324,2.804,0.237,3.666,0.116C277.602,79.117,278.069,78.968,278.083,79.01z"/>
						</g>
					</g>
					<g>
						<g>
							<path style="fill:#455A64;" d="M261.304,90.763c-0.012,0.014-0.099-0.044-0.256-0.168c-0.162-0.119-0.374-0.329-0.612-0.629
								c-0.478-0.595-0.987-1.637-1.129-3.007c-0.159-1.36,0.008-3.018,0.537-4.73c0.487-1.716,1.231-3.533,1.513-5.519
								c0.308-1.982-0.145-3.912-1.039-5.388c-0.879-1.493-2.148-2.497-3.325-3.063c-1.182-0.581-2.255-0.765-2.989-0.837
								c-0.739-0.064-1.155-0.035-1.158-0.079c-0.004-0.028,0.408-0.126,1.169-0.124c0.755,0.011,1.878,0.143,3.134,0.706
								c1.25,0.547,2.626,1.58,3.579,3.148c0.971,1.54,1.472,3.624,1.145,5.707c-0.298,2.08-1.067,3.903-1.569,5.586
								c-0.543,1.67-0.736,3.247-0.631,4.558c0.091,1.315,0.519,2.318,0.927,2.925C261.01,90.459,261.338,90.725,261.304,90.763z"/>
						</g>
					</g>
				</g>
				<g>
					<path style="fill:#263238;" d="M218.81,78.706c-4.988-11.535,1.853-18.562,6.308-21.084c2.653-1.502,5.804-1.817,8.852-1.89
						c3.009-0.072,6.049,0.064,8.962,0.822c2.913,0.758,5.707,2.174,7.761,4.375c3.646,3.906,4.48,9.69,4.139,15.022
						c-0.402,6.28-2.206,12.475-5.314,17.947c-0.399,0.703-0.852,1.425-1.56,1.815c-0.709,0.389-1.743,0.302-2.158-0.392"/>
				</g>
				<g>
					<g>
						<g>
							<g>
								<g>
									<g>
										<g>
											<g>
												<path style="fill:#B78876;" d="M245.716,65.236c1.681,0.178,2.947,1.612,2.913,3.302l0,0l-1.845,43.976
													c-0.07,5.193-9.493,11.334-15.053,11.217l0,0c-5.615-0.118-4.429-6.092-4.045-11.018
													c0.435-5.586-0.136-11.306-0.136-11.306s-7.095-1.178-8.565-10.435c-0.731-4.604-0.5-12.152-0.111-18.322
													c0.35-5.554,5.249-9.699,10.782-9.114L245.716,65.236z"/>
											</g>
										</g>
									</g>
									<g>
										<g>
											<g>
												<g>
													<path style="fill:#263238;" d="M221.278,78.643c-0.022,0.627,0.49,1.163,1.145,1.198
														c0.653,0.035,1.202-0.443,1.224-1.07c0.022-0.627-0.49-1.163-1.144-1.199
														C221.849,77.537,221.301,78.016,221.278,78.643z"/>
												</g>
											</g>
										</g>
										<g>
											<g>
												<g>
													<g>
														<path style="fill:#263238;" d="M220.511,76.578c0.147,0.155,1.047-0.511,2.324-0.507
															c1.276-0.015,2.214,0.642,2.352,0.486c0.068-0.069-0.082-0.349-0.49-0.646c-0.402-0.296-1.087-0.584-1.883-0.581
															c-0.796,0.004-1.465,0.297-1.85,0.597C220.572,76.228,220.438,76.508,220.511,76.578z"/>
													</g>
												</g>
											</g>
										</g>
									</g>
									<g>
										<g>
											<g>
												<g>
													<path style="fill:#263238;" d="M233.768,78.643c-0.022,0.627,0.491,1.163,1.145,1.198
														c0.653,0.035,1.202-0.443,1.224-1.07c0.022-0.627-0.49-1.163-1.144-1.199C234.338,77.537,233.79,78.016,233.768,78.643
														z"/>
												</g>
											</g>
										</g>
										<g>
											<g>
												<g>
													<g>
														<path style="fill:#263238;" d="M233.069,76.816c0.147,0.155,1.048-0.511,2.325-0.507
															c1.276-0.015,2.214,0.642,2.352,0.486c0.068-0.069-0.08-0.349-0.49-0.646c-0.402-0.296-1.087-0.584-1.883-0.581
															c-0.796,0.005-1.465,0.297-1.85,0.597C233.13,76.467,232.997,76.747,233.069,76.816z"/>
													</g>
												</g>
											</g>
										</g>
									</g>
									<g>
										<g>
											<g>
												<g>
													<path style="fill:#263238;" d="M228.432,86.29c0.006-0.073-0.788-0.21-2.075-0.374
														c-0.326-0.034-0.635-0.099-0.69-0.321c-0.077-0.236,0.06-0.587,0.218-0.967c0.307-0.789,0.628-1.617,0.965-2.484
														c1.34-3.537,2.309-6.445,2.167-6.498c-0.143-0.053-1.345,2.771-2.684,6.308c-0.322,0.872-0.631,1.703-0.924,2.499
														c-0.123,0.371-0.336,0.791-0.169,1.28c0.088,0.244,0.327,0.421,0.536,0.477c0.209,0.064,0.393,0.067,0.554,0.077
														C227.624,86.357,228.427,86.363,228.432,86.29z"/>
												</g>
											</g>
										</g>
									</g>
									<g>
										<g>
											<g>
												<path style="fill:#AA6550;" d="M227.55,101.408c0,0,6.228,0.401,12.398-3.307c0,0-3.008,6.359-12.273,5.493
													L227.55,101.408z"/>
											</g>
										</g>
									</g>
									<g>
										<g>
											<g>
												<path style="fill:#AA6550;" d="M228.973,89.369c0.46-0.607,1.264-0.941,2.064-0.855c0.554,0.06,1.115,0.327,1.451,0.778
													c0.337,0.451,0.407,1.092,0.101,1.523c-0.345,0.485-1.065,0.597-1.675,0.424c-0.61-0.173-1.134-0.575-1.633-0.975
													c-0.138-0.111-0.279-0.226-0.365-0.378c-0.086-0.152-0.104-0.35,0.002-0.476"/>
											</g>
										</g>
									</g>
									<g>
										<g>
											<g>
												<g>
													<path style="fill:#263238;" d="M232.192,87.174c-0.208-0.012-0.21,1.375-1.397,2.359
														c-1.185,0.988-2.663,0.832-2.674,1.026c-0.019,0.087,0.329,0.269,0.953,0.286c0.612,0.021,1.506-0.176,2.232-0.778
														c0.724-0.604,1.036-1.409,1.083-1.978C232.442,87.51,232.287,87.166,232.192,87.174z"/>
												</g>
											</g>
										</g>
									</g>
								</g>
							</g>
						</g>
						<g>
							<g>
								<g>
									<path style="fill:#263238;" d="M232.494,74.579c0.126,0.347,1.402,0.183,2.9,0.363c1.503,0.151,2.711,0.589,2.91,0.278
										c0.089-0.149-0.122-0.476-0.611-0.812c-0.484-0.336-1.257-0.655-2.157-0.755c-0.9-0.098-1.724,0.045-2.27,0.267
										C232.717,74.141,232.44,74.414,232.494,74.579z"/>
								</g>
							</g>
						</g>
						<g>
							<g>
								<g>
									<path style="fill:#263238;" d="M220.981,72.88c0.225,0.29,1.105-0.011,2.163-0.025c1.058-0.051,1.954,0.195,2.161-0.109
										c0.09-0.147-0.051-0.438-0.442-0.713c-0.386-0.274-1.031-0.497-1.758-0.476c-0.727,0.023-1.357,0.286-1.725,0.583
										C221.004,72.44,220.882,72.739,220.981,72.88z"/>
								</g>
							</g>
						</g>
					</g>
				</g>
				<g>
					<path style="fill:#263238;" d="M218.873,72.651c1.619-7.895,3.82-4.77,6.304-8.538c3.601,3.647,11.896,7.851,16.954,8.676
						c0.517,0.084,1.06,0.162,1.481,0.474c0.78,0.579,0.841,1.702,0.838,2.673c-0.009,2.742,0.043,5.509,0.674,8.177
						c0.631,2.668,1.888,5.258,3.955,7.06c3.053-6.434,3.357-13.921,1.992-20.91c-0.558-2.855-1.504-5.847-3.778-7.66
						c-1.628-1.299-3.731-1.82-5.78-2.196c-5.059-0.928-10.411-1.152-15.228,0.654c-4.816,1.806-8.556,4.029-9.201,9.132"/>
				</g>
				<g>
					<g>
						<path style="fill:#455A64;" d="M253.858,67.107c0.016,0.032-0.351,0.231-1.036,0.565c-0.336,0.184-0.774,0.339-1.286,0.516
							c-0.261,0.091-0.534,0.186-0.819,0.285c-0.302,0.076-0.616,0.155-0.942,0.237c-1.318,0.352-2.936,0.554-4.733,0.649
							c-1.801,0.068-3.785-0.058-5.838-0.379c-2.054-0.335-3.96-0.91-5.647-1.54c-0.825-0.364-1.629-0.664-2.325-1.066
							c-0.351-0.187-0.693-0.369-1.023-0.545c-0.31-0.201-0.609-0.396-0.898-0.583c-0.584-0.353-1.06-0.747-1.479-1.09
							c-0.205-0.166-0.399-0.325-0.584-0.475c-0.157-0.158-0.306-0.308-0.446-0.45c-0.531-0.545-0.81-0.856-0.784-0.881
							c0.08-0.084,1.209,1.176,3.492,2.585c0.289,0.175,0.589,0.356,0.898,0.544c0.329,0.164,0.669,0.334,1.019,0.509
							c0.691,0.379,1.488,0.658,2.302,1.004c1.667,0.594,3.54,1.145,5.56,1.474c2.019,0.315,3.967,0.453,5.738,0.413
							c1.767-0.068,3.361-0.228,4.667-0.529C252.322,67.802,253.813,67.005,253.858,67.107z"/>
					</g>
				</g>
				<g>
					<g>
						<path style="fill:#455A64;" d="M251.237,60.869c0.022,0.029-0.262,0.258-0.798,0.653c-0.26,0.211-0.613,0.414-1.029,0.638
							c-0.213,0.117-0.434,0.239-0.665,0.365c-0.251,0.107-0.512,0.217-0.782,0.332c-2.19,0.956-5.471,1.601-9.095,1.622
							c-3.628,0.019-6.882-0.496-9.186-1.025c-1.155-0.258-2.077-0.522-2.704-0.73c-0.628-0.208-0.97-0.339-0.959-0.374
							c0.024-0.082,1.429,0.311,3.738,0.743c2.306,0.433,5.531,0.884,9.108,0.865c3.573-0.021,6.788-0.596,8.963-1.443
							C250.018,61.699,251.174,60.776,251.237,60.869z"/>
					</g>
				</g>
				<g>
					<g>
						<path style="fill:#455A64;" d="M222.786,58.861c0.002-0.062,0.32-0.125,0.817,0.001c0.494,0.121,1.144,0.477,1.647,1.083
							c0.502,0.608,0.73,1.313,0.756,1.821c0.03,0.512-0.09,0.812-0.152,0.803c-0.147-0.003-0.092-1.224-1.006-2.292
							C223.971,59.18,222.762,59.006,222.786,58.861z"/>
					</g>
				</g>
				<g>
					<g>
						<path style="fill:#263238;" d="M270.613,68.833c-0.008-0.005,0.061-0.143,0.275-0.335c0.208-0.194,0.592-0.427,1.143-0.498
							c0.541-0.073,1.256,0.003,1.93,0.435c0.684,0.402,1.231,1.319,1.124,2.342c-0.096,1.002-0.71,2.06-1.776,2.629
							c-1.082,0.573-2.525,0.393-3.603-0.378c-0.543-0.381-1.017-0.901-1.325-1.533c-0.31-0.63-0.446-1.335-0.492-2.034
							c-0.097-1.4,0.146-2.815-0.108-4.186c-0.52-2.772-2.677-4.905-4.944-5.714c-2.318-0.847-4.653-0.219-6.196,0.764
							c-1.581,0.994-2.475,2.29-2.932,3.218c-0.458,0.942-0.554,1.531-0.608,1.518c-0.018-0.004,0.001-0.149,0.052-0.426
							c0.046-0.278,0.161-0.682,0.372-1.176c0.412-0.98,1.29-2.362,2.916-3.442c0.808-0.533,1.799-0.977,2.93-1.187
							c1.127-0.228,2.398-0.129,3.626,0.28c2.426,0.84,4.73,3.081,5.297,6.072c0.271,1.496,0.014,2.926,0.105,4.247
							c0.039,0.659,0.163,1.297,0.43,1.85c0.262,0.551,0.677,1.017,1.155,1.359c0.952,0.696,2.208,0.856,3.129,0.385
							c0.927-0.472,1.504-1.408,1.606-2.282c0.109-0.893-0.323-1.675-0.92-2.063c-0.589-0.41-1.245-0.514-1.746-0.475
							C271.005,68.291,270.651,68.901,270.613,68.833z"/>
					</g>
				</g>
				<g>
					<g>
						<path style="fill:#263238;" d="M246.3,73.006c-0.001,0.035-0.344,0.063-0.965,0.077c-0.621,0.014-1.519,0.015-2.63-0.025
							c-2.209-0.091-5.33-0.312-8.566-1.48c-3.239-1.175-5.723-3.263-6.993-5.118c-0.646-0.922-1.04-1.751-1.243-2.343
							c-0.207-0.591-0.268-0.933-0.239-0.941c0.101-0.042,0.442,1.326,1.779,3.065c1.305,1.741,3.733,3.706,6.876,4.848
							c3.148,1.137,6.216,1.418,8.408,1.601C244.931,72.857,246.303,72.927,246.3,73.006z"/>
					</g>
				</g>
				<g>
					<g>
						<path style="fill:#263238;" d="M259.439,95.621c0.023,0.004-0.031,0.373-0.438,0.877c-0.398,0.486-1.217,1.098-2.398,1.17
							c-1.162,0.073-2.56-0.367-3.71-1.397c-0.561-0.519-1.062-1.251-1.133-2.147c-0.065-0.854,0.288-1.875,1.205-2.326
							c0.91-0.403,2.052-0.045,2.454,0.869c0.189,0.456,0.111,0.961-0.096,1.345c-0.205,0.39-0.531,0.694-0.908,0.874
							c-0.758,0.351-1.56,0.258-2.202,0.036c-0.656-0.224-1.19-0.604-1.589-1.02c-0.814-0.837-1.1-1.776-1.176-2.399
							c-0.068-0.636,0.032-0.981,0.056-0.976c0.046,0.002,0.018,0.35,0.143,0.942c0.131,0.581,0.455,1.436,1.235,2.171
							c0.382,0.366,0.878,0.69,1.465,0.872c0.578,0.185,1.275,0.231,1.858-0.057c0.561-0.262,0.998-1,0.742-1.593
							c-0.233-0.588-1.135-0.891-1.762-0.591c-0.65,0.307-0.969,1.114-0.916,1.819c0.047,0.714,0.457,1.36,0.953,1.833
							c1.022,0.952,2.316,1.405,3.364,1.378c1.066-0.018,1.848-0.525,2.265-0.939C259.275,95.934,259.395,95.6,259.439,95.621z"/>
					</g>
				</g>
			</g>
			<g>
				<g>
					<path style="fill:#455A64;" d="M216.87,144.008c0.036,0.065-0.081,0.198-0.057,0.42c0.023,0.238,0.184,0.424,0.455,0.311
						c0.271-0.115,0.25-0.36,0.097-0.543c-0.142-0.172-0.319-0.181-0.34-0.253c-0.039-0.055,0.206-0.237,0.562-0.041
						c0.16,0.095,0.344,0.282,0.369,0.583c0.03,0.309-0.197,0.62-0.486,0.733c-0.283,0.127-0.664,0.072-0.864-0.165
						c-0.197-0.229-0.203-0.491-0.158-0.672C216.556,143.989,216.857,143.941,216.87,144.008z"/>
				</g>
			</g>
			<g>
				<g>
					<path style="fill:#455A64;" d="M232.873,143.694c0.006,0.076-0.217,0.138-0.345,0.41c-0.145,0.275-0.072,0.675,0.355,0.718
						c0.426,0.053,0.586-0.321,0.506-0.621c-0.065-0.294-0.268-0.404-0.245-0.477c-0.006-0.066,0.352-0.084,0.587,0.339
						c0.102,0.198,0.17,0.501,0.016,0.817c-0.152,0.325-0.558,0.508-0.922,0.46c-0.366-0.034-0.721-0.303-0.797-0.653
						c-0.079-0.342,0.053-0.622,0.197-0.793C232.549,143.533,232.895,143.631,232.873,143.694z"/>
				</g>
			</g>
			<g>
				<g>
					<path style="fill:#455A64;" d="M217.897,152.591c0.038,0.006,0,0.529,0.033,1.477c0.043,0.941,0.129,2.328,0.654,3.917
						c0.286,0.781,0.701,1.604,1.351,2.312c0.643,0.721,1.604,1.186,2.66,1.367c1.058,0.211,2.247,0.092,3.269-0.455
						c1.033-0.537,1.865-1.491,2.473-2.594c1.059-1.944,1.521-4.112,1.706-6.039l0.244,0.259c-3.572-0.018-6.636-0.068-8.834-0.114
						c-1.037-0.027-1.897-0.049-2.587-0.068C218.255,152.633,217.916,152.612,217.897,152.591c-0.019-0.021,0.285-0.041,0.867-0.063
						c0.676-0.018,1.52-0.04,2.536-0.067c2.186-0.046,5.316-0.097,8.986-0.114l0.267-0.001l-0.023,0.261
						c-0.175,2.01-0.625,4.206-1.74,6.263c-0.64,1.161-1.541,2.201-2.692,2.793c-1.143,0.602-2.452,0.715-3.59,0.475
						c-1.143-0.207-2.205-0.746-2.89-1.545c-0.694-0.784-1.11-1.668-1.385-2.491c-0.499-1.669-0.525-3.08-0.507-4.033
						C217.757,153.111,217.864,152.585,217.897,152.591z"/>
				</g>
			</g>
			<g>
				<g>
					<path style="fill:#455A64;" d="M256.838,202.955c0.012,0.027-0.252,0.185-0.771,0.383c-0.517,0.2-1.306,0.402-2.303,0.469
						c-1.957,0.155-4.925-0.456-7.125-2.687c-2.176-2.256-2.711-5.239-2.507-7.192c0.091-0.995,0.314-1.778,0.527-2.29
						c0.211-0.513,0.375-0.773,0.402-0.76c0.102,0.035-0.478,1.144-0.561,3.074c-0.104,1.885,0.472,4.692,2.512,6.805
						c2.061,2.092,4.852,2.739,6.739,2.682C255.682,203.404,256.806,202.852,256.838,202.955z"/>
				</g>
			</g>
		</g>
		<g>
			<g>
				<path style="fill:#455A64;" d="M162.503,224.241c0-0.144,21.693-0.26,48.445-0.26c26.762,0,48.45,0.117,48.45,0.26
					c0,0.144-21.688,0.26-48.45,0.26C184.196,224.502,162.503,224.385,162.503,224.241z"/>
			</g>
		</g>
	</g>
</g>
<g id="Cloud">
	<g>
		<g>
			<path style="fill:#E8505B;" d="M491.972,179.554c0,0-0.3,0.024-0.915,0.036c-0.65,0.008-1.561,0.02-2.747,0.035
				c-2.467,0.016-6.053,0.04-10.692,0.071c-9.39,0.033-23.011,0.081-40.105,0.142c-34.335,0.053-82.59,0.128-138.417,0.214
				l-0.374,0.001l-0.105-0.359c-2.865-9.782-1.115-21.243,5.29-30.008c6.384-8.74,17.35-14.31,28.647-14.019l-0.513,0.661
				c-0.829-2.859-1.216-6.081-1.072-9.293c0.428-10.699,6.51-21.034,15.85-25.819c9.217-4.867,20.595-4.687,29.328,0.158
				l-0.715,0.253c4.975-12.138,15.473-20.939,26.862-25.018c11.423-4.151,24.092-3.606,34.052,1.605
				c10.011,5.129,17.135,13.865,21.081,23.031c4.051,9.217,4.609,19.114,2.594,27.613l-0.386-0.44
				c5.725-0.634,11.265,0.35,16.023,2.296c4.767,1.954,8.815,4.822,11.887,8.146c1.529,1.655,2.853,3.452,3.744,5.366
				c0.886,1.909,1.546,3.826,1.992,5.702c0.921,3.749,1.251,7.265,1.363,10.413c0.202,6.311-0.561,11.175-1.248,14.395
				c-0.373,1.609-0.694,2.819-0.994,3.629C492.124,179.173,491.972,179.554,491.972,179.554"/>
		</g>
		<g style="opacity:0.3;">
			<path d="M491.972,179.554c0,0-0.3,0.024-0.915,0.036c-0.65,0.008-1.561,0.02-2.747,0.035c-2.467,0.016-6.053,0.04-10.692,0.071
				c-9.39,0.033-23.011,0.081-40.105,0.142c-34.335,0.053-82.59,0.128-138.417,0.214l-0.374,0.001l-0.105-0.359
				c-2.865-9.782-1.115-21.243,5.29-30.008c6.384-8.74,17.35-14.31,28.647-14.019l-0.513,0.661
				c-0.829-2.859-1.216-6.081-1.072-9.293c0.428-10.699,6.51-21.034,15.85-25.819c9.217-4.867,20.595-4.687,29.328,0.158
				l-0.715,0.253c4.975-12.138,15.473-20.939,26.862-25.018c11.423-4.151,24.092-3.606,34.052,1.605
				c10.011,5.129,17.135,13.865,21.081,23.031c4.051,9.217,4.609,19.114,2.594,27.613l-0.386-0.44
				c5.725-0.634,11.265,0.35,16.023,2.296c4.767,1.954,8.815,4.822,11.887,8.146c1.529,1.655,2.853,3.452,3.744,5.366
				c0.886,1.909,1.546,3.826,1.992,5.702c0.921,3.749,1.251,7.265,1.363,10.413c0.202,6.311-0.561,11.175-1.248,14.395
				c-0.373,1.609-0.694,2.819-0.994,3.629C492.124,179.173,491.972,179.554,491.972,179.554"/>
		</g>
		<g>
			<path style="fill:#E8505B;" d="M476.698,179.554c0,0-0.301,0.024-0.915,0.036c-0.65,0.008-1.561,0.02-2.747,0.035
				c-2.467,0.016-6.053,0.04-10.693,0.071c-9.389,0.033-23.011,0.081-40.105,0.142c-34.335,0.053-82.59,0.128-138.417,0.214
				l-0.374,0.001l-0.105-0.359c-2.866-9.782-1.115-21.243,5.29-30.008c6.384-8.74,17.35-14.31,28.647-14.019l-0.513,0.661
				c-0.829-2.859-1.216-6.081-1.072-9.293c0.427-10.699,6.51-21.034,15.85-25.819c9.217-4.867,20.595-4.687,29.328,0.158
				l-0.715,0.253c4.975-12.138,15.473-20.939,26.861-25.018c11.423-4.151,24.092-3.606,34.052,1.605
				c10.01,5.129,17.135,13.865,21.081,23.031c4.051,9.217,4.609,19.114,2.594,27.613l-0.386-0.44
				c5.725-0.634,11.265,0.35,16.023,2.296c4.767,1.954,8.815,4.822,11.887,8.146c1.529,1.655,2.853,3.452,3.744,5.366
				c0.886,1.909,1.546,3.826,1.992,5.702c0.921,3.749,1.251,7.265,1.363,10.413c0.202,6.311-0.561,11.175-1.248,14.395
				c-0.373,1.609-0.694,2.819-0.994,3.629C476.85,179.173,476.698,179.554,476.698,179.554"/>
		</g>
		<g>
			<g>
				<g>
					<g>
						<path style="fill:#FAFAFA;" d="M416.817,134.893c-0.108,0-0.263-1.022-0.448-2.844c-0.191-0.899-0.353-2.01-0.668-3.266
							c-0.18-0.625-0.372-1.29-0.574-1.993c-0.212-0.701-0.539-1.409-0.821-2.169c-1.248-2.991-3.265-6.36-6.282-9.395
							c-3.021-3.013-7.083-5.598-11.777-7.074c-4.723-1.374-9.535-1.538-13.726-0.725c-4.209,0.792-7.755,2.496-10.463,4.274
							c-2.72,1.79-4.601,3.685-5.849,5.023c-0.628,0.671-1.089,1.217-1.407,1.586c-0.325,0.364-0.518,0.542-0.563,0.512
							c-0.045-0.03,0.061-0.268,0.307-0.695c0.238-0.433,0.627-1.047,1.196-1.792c1.128-1.487,2.943-3.562,5.687-5.542
							c2.73-1.966,6.396-3.865,10.808-4.777c4.391-0.935,9.474-0.815,14.466,0.642c4.961,1.556,9.23,4.334,12.346,7.558
							c3.115,3.247,5.123,6.842,6.285,10.003c0.261,0.803,0.562,1.551,0.745,2.288c0.168,0.738,0.326,1.435,0.475,2.09
							c0.243,1.313,0.321,2.466,0.421,3.394C416.977,133.868,416.925,134.893,416.817,134.893z"/>
					</g>
				</g>
				<g>
					<g>
						<path style="fill:#FAFAFA;" d="M403.099,124.697c0.261-0.343,6.519,3.977,13.976,9.649c0.142,0.109,0.284,0.217,0.416,0.317
							l-1.21,0.364c3.025-8.621,5.759-15.407,6.159-15.267c0.399,0.14-1.685,7.152-4.685,15.782l-0.353,1.015l-0.857-0.651
							c-0.132-0.1-0.273-0.208-0.416-0.316C408.672,129.918,402.837,125.04,403.099,124.697z"/>
					</g>
				</g>
			</g>
			<g>
				<g>
					<g>
						<path style="fill:#FAFAFA;" d="M362.668,130.126c0.107,0.014,0.138,1.017,0.103,2.796c0.054,0.89,0.117,1.978,0.235,3.229
							c0.206,1.244,0.379,2.665,0.831,4.183c0.813,3.04,2.305,6.547,4.792,9.874c2.443,3.351,5.978,6.412,10.267,8.519l0.795,0.407
							l0.826,0.324c0.548,0.217,1.093,0.432,1.634,0.646c0.553,0.179,1.113,0.321,1.663,0.483c0.553,0.146,1.09,0.345,1.651,0.417
							c2.208,0.458,4.382,0.689,6.457,0.642c4.153-0.063,7.848-1.02,10.743-2.261c2.923-1.21,5.062-2.673,6.503-3.714
							c0.72-0.526,1.269-0.952,1.639-1.247c0.379-0.285,0.597-0.418,0.635-0.38c0.038,0.038-0.106,0.246-0.419,0.609
							c-0.305,0.372-0.795,0.878-1.471,1.489c-1.351,1.209-3.458,2.861-6.436,4.252c-2.949,1.42-6.792,2.544-11.158,2.691
							c-2.182,0.089-4.473-0.121-6.805-0.583c-0.591-0.074-1.16-0.275-1.745-0.426c-0.581-0.166-1.173-0.315-1.757-0.502
							c-0.572-0.223-1.148-0.448-1.729-0.675l-0.872-0.343l-0.84-0.428c-0.561-0.288-1.118-0.574-1.672-0.859
							c-0.531-0.323-1.046-0.668-1.563-0.998c-1.062-0.623-1.957-1.449-2.899-2.171c-0.466-0.369-0.861-0.81-1.288-1.206
							c-0.408-0.416-0.856-0.786-1.217-1.229c-0.369-0.435-0.735-0.866-1.096-1.292l-0.534-0.639l-0.47-0.676
							c-2.55-3.546-4-7.27-4.705-10.464c-0.398-1.595-0.501-3.078-0.628-4.369c-0.039-1.297-0.013-2.415,0.027-3.322
							C362.387,131.093,362.561,130.112,362.668,130.126z"/>
					</g>
				</g>
				<g>
					<g>
						<path style="fill:#FAFAFA;" d="M375.037,141.922c-0.301,0.309-5.984-4.744-12.691-11.285c-0.128-0.125-0.256-0.25-0.374-0.365
							l1.245-0.213c-4.056,8.187-7.6,14.587-7.979,14.399c-0.379-0.187,2.546-6.892,6.579-15.091l0.474-0.964l0.771,0.751
							c0.118,0.115,0.246,0.24,0.374,0.365C370.144,136.059,375.338,141.613,375.037,141.922z"/>
					</g>
				</g>
			</g>
		</g>
	</g>
	<g>
		<g>
			<path style="fill:#E8505B;" d="M562.26,229.972c0,0-0.017-0.173-0.025-0.511c-0.006-0.358-0.014-0.856-0.024-1.504
				c-0.011-1.344-0.026-3.296-0.047-5.811c-0.019-5.081-0.046-12.434-0.08-21.608l0.176,0.176
				c-20.013,0.021-49.086,0.051-81.387,0.084c-37.363-0.046-70.397-0.086-90.345-0.11l-0.151,0l0.001-0.15
				c0.03-6.466,0.054-11.582,0.07-15.104c0.017-1.735,0.03-3.076,0.039-4.004c0.009-0.44,0.015-0.78,0.02-1.03
				c0.007-0.231,0.014-0.348,0.021-0.348c0.007,0,0.014,0.118,0.021,0.348c0.005,0.25,0.012,0.589,0.02,1.03
				c0.009,0.928,0.022,2.269,0.039,4.004c0.016,3.521,0.04,8.638,0.07,15.104l-0.15-0.15c19.948-0.024,52.982-0.064,90.345-0.11
				c32.3,0.034,61.373,0.064,81.387,0.084l0.177,0l-0.001,0.176c-0.034,9.174-0.061,16.527-0.08,21.608
				c-0.02,2.515-0.036,4.466-0.047,5.811c-0.01,0.648-0.019,1.146-0.025,1.504C562.277,229.799,562.26,229.972,562.26,229.972z"/>
		</g>
	</g>
	<g>
		<g>
			<path style="fill:#E8505B;" d="M310.451,224.241c-0.144,0-0.26-9.923-0.26-22.161c0-12.242,0.117-22.163,0.26-22.163
				c0.144,0,0.26,9.921,0.26,22.163C310.711,214.318,310.595,224.241,310.451,224.241z"/>
		</g>
	</g>
</g>
</svg>
