<?xml version="1.0" encoding="UTF-8"?>
<svg id="Layer_1" xmlns="http://www.w3.org/2000/svg" xmlns:xlink="http://www.w3.org/1999/xlink" viewBox="0 0 512 512">
  <defs>
    <style>
      .cls-1 {
        fill: #fff;
      }

      .cls-2 {
        fill: none;
      }

      .cls-3 {
        fill: url(#linear-gradient);
      }

      .cls-4 {
        clip-path: url(#clippath);
      }
    </style>
    <clipPath id="clippath">
      <path class="cls-2" d="M233.27,253.54c.53-9.16,3.53-44.09-11.04-37.64-4.07,1.8-6.42,5.01-7.33,8.53-1.17,4.51-.69,9.69,1.3,14.53,2.03,4.92,5.54,9.28,10.36,12,1.99,1.12,4.22,2,6.71,2.58M210.21,410.76c.04-.22,13.82-69.97,18.32-107.42-9.77-1.44-18.58-4.58-26.33-8.94-15.29-8.6-26.14-21.81-32.19-36.47-6.08-14.74-7.39-31.15-3.54-46,10.21-39.33,67.49-64.81,92.6-38.13,13.03,13.84,13.29,40.62,15.85,69.7,2.52-1.42,5.11-2.99,7.79-4.73,29.08-18.85,49.02-41.59,54.67-60.91,4.05-13.84-1.35-19.47-14.37-23.87-28.68-9.68-113.35-18.33-199.63,24.98,37.65-73.03,170.1-87.59,215.55-72.25,38.68,13.06,57.99,45.3,46.33,85.15-8.85,30.26-36.41,63.5-75.45,88.81-11.87,7.69-23.18,13.28-33.88,17.08-3.36,92.14-22.54,104.09-65.71,112.99Z"/>
    </clipPath>
    <linearGradient id="linear-gradient" x1="37.74" y1="459.87" x2="457.74" y2="39.16" gradientTransform="translate(470.55 -18.23) rotate(84.07)" gradientUnits="userSpaceOnUse">
      <stop offset="0" stop-color="#0050c9"/>
      <stop offset="1" stop-color="#06f"/>
    </linearGradient>
  </defs>
  <rect class="cls-1" width="512" height="512" rx="128" ry="128"/>
  <g class="cls-4">
    <rect class="cls-3" x="82.25" y="117.23" width="326.26" height="269.29" transform="translate(-30.5 469.91) rotate(-84.07)"/>
  </g>
</svg>