<?xml version="1.0" encoding="UTF-8"?>
<svg id="Layer_1" xmlns="http://www.w3.org/2000/svg" xmlns:xlink="http://www.w3.org/1999/xlink" viewBox="0 0 512 512">
  <defs>
    <style>
      .cls-1 {
        fill: #fff;
      }

      .cls-2 {
        opacity: .2;
      }

      .cls-3 {
        fill: url(#linear-gradient);
      }

      .cls-4 {
        clip-path: url(#clippath);
      }
    </style>
    <linearGradient id="linear-gradient" x1="-30" y1="594.13" x2="543.17" y2="-83.52" gradientUnits="userSpaceOnUse">
      <stop offset="0" stop-color="#0a0863"/>
      <stop offset="1" stop-color="#0251dc"/>
    </linearGradient>
    <clipPath id="clippath">
      <path class="cls-1" d="M227.31,252.52c1.4-8.24,7.61-39.54-6.22-35.16-3.86,1.22-6.31,3.89-7.49,6.98-1.51,3.96-1.59,8.7-.27,13.27,1.34,4.66,4.08,8.95,8.17,11.89,1.69,1.21,3.62,2.23,5.81,3.01M190.71,392.46c.05-.19,19.5-61.92,27.33-95.36-8.7-2.28-16.36-6-22.93-10.72-12.97-9.31-21.47-22.35-25.47-36.22-4.03-13.95-3.57-28.93,1.4-41.97,13.17-34.57,67.55-51.88,87.6-25.23,10.4,13.83,7.96,38.08,7.37,64.65,2.42-1.03,4.93-2.19,7.52-3.5,28.2-14.15,48.51-32.73,55.56-49.64,5.05-12.11.73-17.75-10.62-23.04-24.98-11.63-100.73-27.93-183.13,2.62,41.38-62.31,162.68-62.23,202.27-43.79,33.69,15.69,47.93,46.8,33.4,81.68-11.04,26.49-39.3,53.81-77.16,72.8-11.51,5.77-22.3,9.7-32.36,12.06-12.27,83.03-30.81,91.93-70.77,95.66Z"/>
    </clipPath>
  </defs>
  <path class="cls-3" d="M512,192v128c0,8.62-.57,17.11-1.67,25.43-11.34,85.7-79.2,153.56-164.9,164.9-8.32,1.1-16.81,1.67-25.43,1.67h-128C85.96,512,0,426.04,0,320v-128c0-8.62.57-17.11,1.67-25.43C13.01,80.87,80.87,13.01,166.57,1.67c8.32-1.1,16.81-1.67,25.43-1.67h128c106.04,0,192,85.96,192,192Z"/>
  <g>
    <path class="cls-1" d="M227.31,252.52c1.4-8.24,7.61-39.54-6.22-35.16-3.86,1.22-6.31,3.89-7.49,6.98-1.51,3.96-1.59,8.7-.27,13.27,1.34,4.66,4.08,8.95,8.17,11.89,1.69,1.21,3.62,2.23,5.81,3.01M190.71,392.46c.05-.19,19.5-61.92,27.33-95.36-8.7-2.28-16.36-6-22.93-10.72-12.97-9.31-21.47-22.35-25.47-36.22-4.03-13.95-3.57-28.93,1.4-41.97,13.17-34.57,67.55-51.88,87.6-25.23,10.4,13.83,7.96,38.08,7.37,64.65,2.42-1.03,4.93-2.19,7.52-3.5,28.2-14.15,48.51-32.73,55.56-49.64,5.05-12.11.73-17.75-10.62-23.04-24.98-11.63-100.73-27.93-183.13,2.62,41.38-62.31,162.68-62.23,202.27-43.79,33.69,15.69,47.93,46.8,33.4,81.68-11.04,26.49-39.3,53.81-77.16,72.8-11.51,5.77-22.3,9.7-32.36,12.06-12.27,83.03-30.81,91.93-70.77,95.66Z"/>
    <g class="cls-4">
      <rect class="cls-1" x="89.93" y="129.65" width="297.01" height="245.14" transform="translate(-58.62 431.74) rotate(-77.76)"/>
    </g>
  </g>
  <path class="cls-2" d="M510.33,345.43c-11.34,85.7-79.2,153.56-164.9,164.9.89-90.68,74.22-164.01,164.9-164.9Z"/>
  <path class="cls-2" d="M166.57,1.67c-.89,90.68-74.22,164.01-164.9,164.9C13.01,80.87,80.87,13.01,166.57,1.67Z"/>
</svg>