<?xml version="1.0" encoding="UTF-8"?>
<svg id="Layer_1" xmlns="http://www.w3.org/2000/svg" xmlns:xlink="http://www.w3.org/1999/xlink" viewBox="0 0 512 512">
  <defs>
    <style>
      .cls-1 {
        fill: #fff;
      }

      .cls-2 {
        opacity: .2;
      }

      .cls-3 {
        fill: url(#linear-gradient);
      }

      .cls-4 {
        clip-path: url(#clippath);
      }
    </style>
    <linearGradient id="linear-gradient" x1="368.06" y1="-121.72" x2="179.59" y2="513.57" gradientUnits="userSpaceOnUse">
      <stop offset="0" stop-color="#06f"/>
      <stop offset=".99" stop-color="#0b0055"/>
    </linearGradient>
    <clipPath id="clippath">
      <path class="cls-1" d="M226.13,252.38c1.46-8.57,7.92-41.16-6.48-36.6-4.02,1.27-6.57,4.05-7.79,7.27-1.57,4.12-1.66,9.06-.29,13.82,1.4,4.85,4.25,9.32,8.51,12.38,1.76,1.26,3.77,2.32,6.05,3.13M188.04,398.04c.06-.2,20.3-64.46,28.44-99.26-9.05-2.38-17.02-6.25-23.87-11.16-13.5-9.69-22.35-23.27-26.51-37.7-4.19-14.52-3.71-30.11,1.46-43.69,13.71-35.98,70.32-54.01,91.18-26.26,10.83,14.4,8.28,39.64,7.67,67.3,2.52-1.07,5.13-2.28,7.83-3.64,29.35-14.73,50.5-34.07,57.83-51.67,5.25-12.61.76-18.48-11.05-23.98-26.01-12.11-104.85-29.07-190.62,2.73,43.07-64.86,169.33-64.77,210.54-45.58,35.07,16.33,49.89,48.71,34.76,85.02-11.49,27.57-40.91,56.01-80.31,75.78-11.98,6.01-23.22,10.09-33.69,12.55-12.77,86.43-32.07,95.69-73.66,99.57Z"/>
    </clipPath>
  </defs>
  <rect class="cls-3" width="512" height="512" rx="128" ry="128"/>
  <g>
    <path class="cls-1" d="M226.13,252.38c1.46-8.57,7.92-41.16-6.48-36.6-4.02,1.27-6.57,4.05-7.79,7.27-1.57,4.12-1.66,9.06-.29,13.82,1.4,4.85,4.25,9.32,8.51,12.38,1.76,1.26,3.77,2.32,6.05,3.13M188.04,398.04c.06-.2,20.3-64.46,28.44-99.26-9.05-2.38-17.02-6.25-23.87-11.16-13.5-9.69-22.35-23.27-26.51-37.7-4.19-14.52-3.71-30.11,1.46-43.69,13.71-35.98,70.32-54.01,91.18-26.26,10.83,14.4,8.28,39.64,7.67,67.3,2.52-1.07,5.13-2.28,7.83-3.64,29.35-14.73,50.5-34.07,57.83-51.67,5.25-12.61.76-18.48-11.05-23.98-26.01-12.11-104.85-29.07-190.62,2.73,43.07-64.86,169.33-64.77,210.54-45.58,35.07,16.33,49.89,48.71,34.76,85.02-11.49,27.57-40.91,56.01-80.31,75.78-11.98,6.01-23.22,10.09-33.69,12.55-12.77,86.43-32.07,95.69-73.66,99.57Z"/>
    <g class="cls-4">
      <rect class="cls-1" x="83.14" y="124.48" width="309.15" height="255.17" transform="translate(-59.03 430.92) rotate(-77.76)"/>
    </g>
  </g>
  <path class="cls-2" d="M512,347.29v36.71c0,70.69-57.31,128-128,128h-56.71c5.18-92,81.42-165,174.71-165,3.36,0,6.69.09,10,.29Z"/>
  <path class="cls-2" d="M184.65,0c-5.67,91.53-81.69,164-174.65,164-3.36,0-6.69-.09-10-.29v-35.71C0,57.31,57.31,0,128,0h56.65Z"/>
</svg>