<?xml version="1.0" encoding="UTF-8"?>
<svg xmlns="http://www.w3.org/2000/svg" xmlns:xlink="http://www.w3.org/1999/xlink" viewBox="0 0 512 512">
  <defs>
    <style>
      .cls-1 {
        fill: url(#linear-gradient-2);
      }

      .cls-2 {
        fill: #fff;
      }

      .cls-3 {
        fill: url(#linear-gradient-4);
      }

      .cls-4 {
        fill: url(#linear-gradient-3);
      }

      .cls-5 {
        clip-path: url(#clippath-1);
      }

      .cls-6 {
        fill: url(#linear-gradient-5);
      }

      .cls-7 {
        fill: url(#linear-gradient);
      }

      .cls-8 {
        clip-path: url(#clippath);
      }
    </style>
    <linearGradient id="linear-gradient" x1="98.69" y1="267" x2="393.31" y2="267" gradientUnits="userSpaceOnUse">
      <stop offset="0" stop-color="#046834"/>
      <stop offset=".96" stop-color="#0b7f42"/>
      <stop offset="1" stop-color="#0b8043"/>
    </linearGradient>
    <clipPath id="clippath">
      <path class="cls-7" d="M229.65,267.18c-.47-10.26-1.17-49.51-16.65-40.63-4.32,2.48-6.56,6.33-7.17,10.34-.78,5.16.35,10.87,3.13,16.03,2.83,5.25,7.24,9.7,12.92,12.16,2.34,1.02,4.93,1.73,7.76,2.1M222.17,444.92c.01-.22,7.29-79.51,7.97-121.74-11.04-.47-21.22-2.95-30.35-6.91-18.01-7.81-31.63-21.27-40.05-36.89-8.47-15.72-11.83-33.84-9.26-50.81,6.81-44.98,67.64-79.98,98.67-53.17,16.16,13.96,19.52,43.9,25.78,76.12l8.06-6.5c30.19-24.36,49.76-51.99,53.81-74.15,2.9-15.88-3.75-21.53-18.76-24.92-33.05-7.46-128.31-7.29-219.35,50.92,33.47-85.68,179.23-117.22,231.61-105.39,44.57,10.07,69.79,43.74,61.43,89.46-6.35,34.72-33.19,74.92-73.72,107.63-12.32,9.94-24.26,17.47-35.73,22.93,0,0,0,0,0,.02,6.91,102.98-13.05,118.52-60.09,133.42Z"/>
    </clipPath>
    <linearGradient id="linear-gradient-2" x1="-31.39" y1="544.43" x2="546.03" y2="-35.81" xlink:href="#linear-gradient"/>
    <linearGradient id="linear-gradient-3" x1="0" y1="256" x2="512" y2="256" xlink:href="#linear-gradient"/>
    <linearGradient id="linear-gradient-4" x1="0" y1="256" x2="512" y2="256" xlink:href="#linear-gradient"/>
    <clipPath id="clippath-1">
      <path class="cls-3" d="M256.09-.08c67.89-.07,133.03,26.87,181.03,74.88,48.01,48.01,74.95,113.14,74.88,181.03.1,107.01-66.37,202.78-166.65,240.13-100.28,37.35-213.2,8.39-283.13-72.61C-7.7,342.36-19.87,226.41,31.71,132.66.84,207.81,9.28,293.38,54.25,361.04c44.97,67.66,120.59,108.58,201.83,109.22,56.88.05,111.45-22.52,151.68-62.75,40.22-40.22,62.8-94.79,62.75-151.68.04-56.88-22.54-111.44-62.76-151.66-40.22-40.22-94.78-62.8-151.66-62.76-113.79-.15-207.82,88.73-214.09,202.34-8.25-61.65,10.57-123.85,51.61-170.59C134.64,26.42,193.89-.28,256.09-.08"/>
    </clipPath>
    <linearGradient id="linear-gradient-5" x1="-87.68" y1="606.96" x2="549.73" y2="-43.15" xlink:href="#linear-gradient"/>
  </defs>
  <g id="Dimensions">
    <circle class="cls-2" cx="256" cy="256" r="256"/>
  </g>
  <g id="Layer_1">
    <g>
      <path class="cls-7" d="M229.65,267.18c-.47-10.26-1.17-49.51-16.65-40.63-4.32,2.48-6.56,6.33-7.17,10.34-.78,5.16.35,10.87,3.13,16.03,2.83,5.25,7.24,9.7,12.92,12.16,2.34,1.02,4.93,1.73,7.76,2.1M222.17,444.92c.01-.22,7.29-79.51,7.97-121.74-11.04-.47-21.22-2.95-30.35-6.91-18.01-7.81-31.63-21.27-40.05-36.89-8.47-15.72-11.83-33.84-9.26-50.81,6.81-44.98,67.64-79.98,98.67-53.17,16.16,13.96,19.52,43.9,25.78,76.12l8.06-6.5c30.19-24.36,49.76-51.99,53.81-74.15,2.9-15.88-3.75-21.53-18.76-24.92-33.05-7.46-128.31-7.29-219.35,50.92,33.47-85.68,179.23-117.22,231.61-105.39,44.57,10.07,69.79,43.74,61.43,89.46-6.35,34.72-33.19,74.92-73.72,107.63-12.32,9.94-24.26,17.47-35.73,22.93,0,0,0,0,0,.02,6.91,102.98-13.05,118.52-60.09,133.42Z"/>
      <g class="cls-8">
        <rect class="cls-1" x="98.69" y="79.64" width="301.4" height="365.28"/>
      </g>
    </g>
    <g>
      <path class="cls-4" d="M256.09-.08c67.89-.07,133.03,26.87,181.03,74.88,48.01,48.01,74.95,113.14,74.88,181.03.1,107.01-66.37,202.78-166.65,240.13-100.28,37.35-213.2,8.39-283.13-72.61C-7.7,342.36-19.87,226.41,31.71,132.66.84,207.81,9.28,293.38,54.25,361.04c44.97,67.66,120.59,108.58,201.83,109.22,56.88.05,111.45-22.52,151.68-62.75,40.22-40.22,62.8-94.79,62.75-151.68.04-56.88-22.54-111.44-62.76-151.66-40.22-40.22-94.78-62.8-151.66-62.76-113.79-.15-207.82,88.73-214.09,202.34-8.25-61.65,10.57-123.85,51.61-170.59C134.64,26.42,193.89-.28,256.09-.08"/>
      <g class="cls-5">
        <rect class="cls-6" x="-19.87" y="-.28" width="531.97" height="533.6"/>
      </g>
    </g>
  </g>
</svg>