<?xml version="1.0" encoding="UTF-8"?>
<svg xmlns="http://www.w3.org/2000/svg" xmlns:xlink="http://www.w3.org/1999/xlink" viewBox="0 0 1920 1080">
  <defs>
    <style>
      .cls-1, .cls-2, .cls-3 {
        fill: #fff;
      }

      .cls-1, .cls-4 {
        opacity: .2;
      }

      .cls-5 {
        stroke: url(#linear-gradient-7);
      }

      .cls-5, .cls-6, .cls-7, .cls-8, .cls-9, .cls-10, .cls-11, .cls-12, .cls-13, .cls-14 {
        fill: none;
        stroke-linecap: round;
      }

      .cls-5, .cls-6, .cls-7, .cls-8, .cls-9, .cls-10, .cls-12, .cls-13, .cls-14 {
        stroke-linejoin: round;
      }

      .cls-5, .cls-6, .cls-7, .cls-8, .cls-9, .cls-10, .cls-12, .cls-14 {
        stroke-width: .5px;
      }

      .cls-5, .cls-7 {
        stroke-dasharray: .99 1.99;
      }

      .cls-15 {
        fill: url(#linear-gradient-13);
      }

      .cls-16 {
        fill: #b3e8f4;
      }

      .cls-6 {
        stroke: url(#linear-gradient-4);
      }

      .cls-17 {
        fill: #ffdcc5;
      }

      .cls-7 {
        stroke: url(#linear-gradient-3);
      }

      .cls-18 {
        fill: #076d6d;
        opacity: .5;
      }

      .cls-19 {
        fill: #48d7e5;
      }

      .cls-20 {
        fill: url(#linear-gradient-10);
      }

      .cls-21 {
        fill: #6d3207;
      }

      .cls-22 {
        fill: url(#linear-gradient-12);
      }

      .cls-8 {
        stroke: url(#linear-gradient-2);
      }

      .cls-23 {
        fill: url(#linear-gradient);
        stroke: #231f20;
      }

      .cls-23, .cls-11 {
        stroke-miterlimit: 10;
      }

      .cls-24 {
        fill: #02f5d0;
      }

      .cls-25 {
        fill: #ffcda8;
      }

      .cls-26 {
        fill: #4de4e8;
      }

      .cls-27 {
        fill: #ff9136;
      }

      .cls-3 {
        font-family: Poppins-Medium, Poppins;
        font-weight: 500;
      }

      .cls-3, .cls-28 {
        font-size: 86px;
      }

      .cls-29 {
        fill: #5cebf2;
      }

      .cls-30 {
        opacity: .3;
      }

      .cls-30, .cls-4 {
        fill: #3a3a3a;
        mix-blend-mode: multiply;
      }

      .cls-31 {
        fill: #514745;
      }

      .cls-32 {
        fill: #c5eaef;
      }

      .cls-33 {
        fill: #f7b85c;
      }

      .cls-28 {
        font-family: BrittanySignatureRegular, 'Brittany Signature';
      }

      .cls-28, .cls-34 {
        fill: #ffdc79;
      }

      .cls-35 {
        fill: #011a5f;
      }

      .cls-9 {
        stroke: url(#linear-gradient-8);
      }

      .cls-36 {
        fill: #ffe6a6;
      }

      .cls-37 {
        fill: #00399e;
      }

      .cls-38 {
        isolation: isolate;
      }

      .cls-10 {
        stroke: url(#linear-gradient-9);
      }

      .cls-10, .cls-14 {
        stroke-dasharray: 1 2;
      }

      .cls-39 {
        fill: #71606e;
      }

      .cls-11 {
        stroke: #fff;
        stroke-dasharray: 12 20;
        stroke-width: 2px;
      }

      .cls-40 {
        font-family: Poppins-Regular, Poppins;
        font-size: 20px;
      }

      .cls-40, .cls-41 {
        fill: #e0f9fe;
      }

      .cls-12 {
        stroke: url(#linear-gradient-6);
      }

      .cls-42 {
        fill: url(#linear-gradient-14);
      }

      .cls-43 {
        fill: #fdefea;
      }

      .cls-44 {
        fill: url(#linear-gradient-11);
      }

      .cls-45 {
        fill: #ffa15a;
      }

      .cls-46 {
        fill: #4d8e93;
      }

      .cls-47 {
        fill: #063444;
      }

      .cls-48 {
        fill: #0c3184;
      }

      .cls-49 {
        fill: #6d443a;
      }

      .cls-50 {
        fill: #77bdc9;
      }

      .cls-51 {
        fill: #ededed;
      }

      .cls-52 {
        fill: #564954;
      }

      .cls-53 {
        fill: #f7f7f7;
      }

      .cls-13 {
        stroke: #8af7f5;
      }

      .cls-54 {
        fill: #0b4656;
      }

      .cls-14 {
        stroke: url(#linear-gradient-5);
      }
    </style>
    <linearGradient id="linear-gradient" x1="2203.58" y1="1248.19" x2="-1515.01" y2="-869.46" gradientUnits="userSpaceOnUse">
      <stop offset="0" stop-color="#000"/>
      <stop offset="1" stop-color="#001ecb"/>
    </linearGradient>
    <linearGradient id="linear-gradient-2" x1="547.49" y1="582.39" x2="412.67" y2="582.39" gradientUnits="userSpaceOnUse">
      <stop offset="0" stop-color="#11d6cc"/>
      <stop offset="1" stop-color="#00a9ce"/>
    </linearGradient>
    <linearGradient id="linear-gradient-3" y1="540.91" x2="412.67" y2="540.91" xlink:href="#linear-gradient-2"/>
    <linearGradient id="linear-gradient-4" x1="547.49" y1="499.58" x2="412.67" y2="499.58" xlink:href="#linear-gradient-2"/>
    <linearGradient id="linear-gradient-5" x1="547.49" y1="421.17" x2="412.67" y2="421.17" xlink:href="#linear-gradient-2"/>
    <linearGradient id="linear-gradient-6" x1="547.49" y1="343.88" x2="412.67" y2="343.88" xlink:href="#linear-gradient-2"/>
    <linearGradient id="linear-gradient-7" y1="385.36" x2="412.67" y2="385.36" xlink:href="#linear-gradient-2"/>
    <linearGradient id="linear-gradient-8" y1="426.69" y2="426.69" xlink:href="#linear-gradient-2"/>
    <linearGradient id="linear-gradient-9" y1="505.1" y2="505.1" xlink:href="#linear-gradient-2"/>
    <linearGradient id="linear-gradient-10" x1="-1835.45" y1="342.32" x2="-1826.45" y2="342.32" gradientTransform="translate(-1284.03) rotate(-180) scale(1 -1)" xlink:href="#linear-gradient-2"/>
    <linearGradient id="linear-gradient-11" x1="-1701.44" y1="426.78" x2="-1692.44" y2="426.78" gradientTransform="translate(-1284.03) rotate(-180) scale(1 -1)" xlink:href="#linear-gradient-2"/>
    <linearGradient id="linear-gradient-12" x1="-1701.44" y1="583.01" x2="-1692.44" y2="583.01" gradientTransform="translate(-1284.03) rotate(-180) scale(1 -1)" xlink:href="#linear-gradient-2"/>
    <linearGradient id="linear-gradient-13" x1="-1835.54" y1="500.6" x2="-1826.54" y2="500.6" gradientTransform="translate(-1284.03) rotate(-180) scale(1 -1)" xlink:href="#linear-gradient-2"/>
    <linearGradient id="linear-gradient-14" x1="1689.82" y1="341.01" x2="1869.82" y2="341.01" gradientUnits="userSpaceOnUse">
      <stop offset="0" stop-color="#00062b"/>
      <stop offset="1" stop-color="#00106e"/>
    </linearGradient>
  </defs>
  <g class="cls-38">
    <g id="Layer_1">
      <rect class="cls-23" width="1920" height="1080"/>
      <g>
        <path class="cls-13" d="M286.78,499.39v60.88c0,5.15,5.64,8.3,10.02,5.6l79.59-49.08"/>
        <path class="cls-13" d="M235.56,350.55v60.88c0,5.15,5.64,8.3,10.02,5.6l121.94-75.13c5.59-3.44,12.79.58,12.79,7.14v61.05"/>
        <path class="cls-13" d="M136.77,545.49v174.81c0,5.15,5.64,8.3,10.02,5.6l218.74-134.23"/>
        <line class="cls-13" x1="452.43" y1="260.5" x2="452.43" y2="377.62"/>
        <path class="cls-13" d="M708.39,381.82v59.77c0,6.94-3.62,13.38-9.54,16.98l-86.42,52.61"/>
        <path class="cls-13" d="M679.59,217.46v59.77c0,6.94-3.62,13.38-9.54,16.98l-86.42,52.61"/>
        <path class="cls-1" d="M782.31,264.92v79.05c0,2.12-1.02,4.13-2.79,5.35-.08.04-.16.12-.24.16l-25.84,15.93-53.37,32.88c-.94.59-2.01.51-2.79-.04-.67-.43-1.18-1.22-1.18-2.16v-77.04c0-2.79,1.46-5.39,3.81-6.88l79.4-48.92c.59-.35,1.22-.39,1.77-.16.12.04.24.12.35.2.51.35.86.94.86,1.65Z"/>
        <path class="cls-1" d="M530.57,173.81v64.32c0,1.73-.83,3.36-2.27,4.35-.06.03-.13.1-.19.13l-21.02,12.96-43.42,26.75c-.77.48-1.63.42-2.27-.03-.54-.35-.96-.99-.96-1.76v-62.69c0-2.27,1.18-4.38,3.1-5.6l64.61-39.81c.48-.29.99-.32,1.44-.13.1.03.19.1.29.16.42.29.7.77.7,1.34Z"/>
        <path class="cls-1" d="M298.78,326.31v46.98c0,1.26-.61,2.45-1.66,3.18-.05.02-.09.07-.14.09l-15.36,9.47-31.72,19.54c-.56.35-1.19.3-1.66-.02-.4-.26-.7-.72-.7-1.29v-45.79c0-1.66.86-3.2,2.27-4.09l47.19-29.07c.35-.21.72-.23,1.05-.09.07.02.14.07.21.12.3.21.51.56.51.98Z"/>
        <path class="cls-1" d="M286.14,442.92v64.66c0,1.74-.84,3.38-2.28,4.38-.06.03-.13.1-.19.13l-21.14,13.03-43.65,26.89c-.77.48-1.64.42-2.28-.03-.55-.35-.96-1-.96-1.77v-63.02c0-2.28,1.19-4.41,3.12-5.63l64.95-40.02c.48-.29,1-.32,1.45-.13.1.03.19.1.29.16.42.29.71.77.71,1.35Z"/>
        <path class="cls-1" d="M231.45,576.23v44.49c0,1.2-.58,2.32-1.57,3.01-.04.02-.09.07-.13.09l-14.54,8.96-30.04,18.5c-.53.33-1.13.29-1.57-.02-.38-.24-.66-.69-.66-1.22v-43.36c0-1.57.82-3.03,2.15-3.87l44.69-27.54c.33-.2.69-.22,1-.09.07.02.13.07.2.11.29.2.49.53.49.93Z"/>
        <path class="cls-1" d="M131.42,477.05v59.71c0,1.6-.77,3.12-2.11,4.04-.06.03-.12.09-.18.12l-19.52,12.03-40.31,24.83c-.71.45-1.52.39-2.11-.03-.5-.33-.89-.92-.89-1.63v-58.19c0-2.11,1.1-4.07,2.88-5.2l59.97-36.95c.45-.27.92-.3,1.34-.12.09.03.18.09.27.15.39.27.65.71.65,1.25Z"/>
        <g>
          <path class="cls-18" d="M751.13,663.37l37.3-22.97c3.97-2.44,3.96-8.21,0-10.65l-191.68-117.95c-3.62-2.22-8.18-2.22-11.79,0l-240.8,148.27c-3.92,2.41-3.91,8.1,0,10.51l191.76,118c3.64,2.23,8.23,2.23,11.86,0l40.26-24.79,163.1-100.43Z"/>
          <path class="cls-19" d="M604.22,267.01l-7.68-4.88-.03.02c-1.67-1.15-3.94-1.4-5.91-.18l-239.92,147.73c-4.36,2.69-7.02,7.45-7.02,12.57v208.76c0,2.1,1.07,3.79,2.58,4.82l-.02.03.46.29s0,0,0,0l8.37,5.29s1.2-7.08.92-7.22c-.03-.01-.11-.05-.23-.1l238.25-146.7c3.05-1.88,4.9-5.2,4.9-8.78v-210.47l5.33-1.18Z"/>
          <path class="cls-41" d="M360.83,641.25l241.35-148.61c3.05-1.88,4.9-5.2,4.9-8.78v-212.06c0-4.26-4.67-6.86-8.29-4.63l-239.92,147.73c-4.36,2.69-7.02,7.45-7.02,12.57v208.76c0,4.61,5.06,7.44,8.98,5.02Z"/>
          <path class="cls-37" d="M366.01,628.97l231.07-142.28c2.92-1.8,4.7-4.98,4.7-8.4v-191.18c0-4.07-4.47-6.57-7.94-4.43l-229.7,141.44c-4.18,2.57-6.72,7.13-6.72,12.04v188.02c0,4.41,4.84,7.12,8.6,4.8Z"/>
          <path class="cls-19" d="M791.31,617.51l.04-.02v-11.16h-13.66l-164.71-101.17c-3.62-2.22-8.18-2.22-11.8,0l-225.85,139.07-17.88,2.55v11.49l.05.03c-.13,2.15.81,4.36,2.89,5.64l175.52,107.81c3.64,2.23,8.23,2.23,11.86,0l240.66-148.18c2.22-1.37,3.15-3.77,2.88-6.06Z"/>
          <path class="cls-41" d="M547.77,759.84l240.66-148.18c3.97-2.44,3.96-8.21,0-10.65l-175.44-107.76c-3.62-2.22-8.18-2.22-11.8,0l-240.8,148.27c-3.92,2.41-3.91,8.1,0,10.51l175.52,107.81c3.64,2.23,8.23,2.23,11.86,0Z"/>
          <path class="cls-32" d="M501.88,707.92l202.08-124.45c3.53-2.17,3.53-7.31,0-9.48l-100.49-62.81c-3.22-1.98-7.28-1.98-10.5,0l-202.2,124.53c-3.49,2.15-3.48,7.21,0,9.36l100.56,62.85c3.24,1.99,7.32,1.99,10.56,0Z"/>
          <path class="cls-51" d="M619.95,708.18l84.18-51.84c1.39-.85,1.39-2.87,0-3.72l-48.75-30.5c-1.27-.78-2.86-.78-4.13,0l-84.23,51.87c-1.37.84-1.37,2.84,0,3.68l48.77,30.52c1.27.78,2.88.78,4.15,0Z"/>
          <g>
            <path class="cls-19" d="M408.83,629.2c-.38-.23-.86-.23-1.24,0l-10.5,6.45-1.18-.39v1.48h0c0,.21.1.42.31.55l11.91,7.44c.38.24.87.24,1.25,0l11.36-6.98c.2-.13.31-.34.31-.55h0s0-1.46,0-1.46l-12.21-6.55Z"/>
            <path class="cls-19" d="M425.66,618.82c-.38-.23-.86-.23-1.24,0l-10.5,6.45-1.18-.39v1.48h0c0,.21.1.42.31.55l11.91,7.44c.38.24.87.24,1.25,0l11.36-6.98c.2-.13.31-.34.31-.55h0s0-1.46,0-1.46l-12.21-6.55Z"/>
            <path class="cls-19" d="M442.5,608.44c-.38-.23-.86-.23-1.24,0l-10.5,6.45-1.18-.39v1.48h0c0,.21.1.42.31.55l11.91,7.44c.38.24.87.23,1.25,0l11.36-6.98c.2-.13.31-.34.31-.55h0s0-1.46,0-1.46l-12.21-6.55Z"/>
            <path class="cls-19" d="M459.33,598.06c-.38-.23-.86-.23-1.24,0l-10.5,6.45-1.18-.39v1.48h0c0,.21.1.42.31.55l11.91,7.44c.38.24.87.24,1.25,0l11.36-6.98c.2-.13.31-.34.31-.55h0s0-1.46,0-1.46l-12.21-6.55Z"/>
            <path class="cls-19" d="M476.17,587.68c-.38-.23-.86-.23-1.24,0l-10.5,6.45-1.18-.39v1.48h0c0,.21.1.42.31.55l11.91,7.44c.38.24.87.24,1.25,0l11.36-6.98c.2-.13.31-.34.31-.55h0s0-1.46,0-1.46l-12.21-6.55Z"/>
            <path class="cls-19" d="M493.01,577.3c-.38-.23-.86-.23-1.24,0l-10.5,6.45-1.18-.39v1.48h0c0,.21.1.42.31.55l11.91,7.44c.38.24.87.24,1.25,0l11.36-6.98c.2-.13.31-.34.31-.55h0s0-1.46,0-1.46l-12.21-6.55Z"/>
            <path class="cls-19" d="M509.84,566.92c-.38-.23-.86-.23-1.24,0l-10.5,6.45-1.18-.39v1.48h0c0,.21.1.42.31.55l11.91,7.44c.38.24.87.24,1.25,0l11.36-6.98c.2-.13.31-.34.31-.55h0s0-1.46,0-1.46l-12.21-6.55Z"/>
            <path class="cls-2" d="M510.38,580.99l11.36-6.98c.42-.26.42-.87,0-1.12l-11.9-7.44c-.38-.23-.86-.23-1.24,0l-11.37,6.99c-.41.25-.41.85,0,1.11l11.91,7.44c.38.24.87.24,1.25,0Z"/>
            <path class="cls-19" d="M526.68,556.54c-.38-.23-.86-.23-1.24,0l-10.5,6.45-1.18-.39v1.48h0c0,.21.1.42.31.55l11.91,7.44c.38.24.87.24,1.25,0l11.36-6.98c.2-.13.31-.34.31-.55h0s0-1.46,0-1.46l-12.21-6.55Z"/>
            <path class="cls-19" d="M543.51,546.16c-.38-.23-.86-.23-1.24,0l-10.5,6.45-1.18-.39v1.48h0c0,.21.1.42.31.55l11.91,7.44c.38.24.87.24,1.25,0l11.36-6.98c.2-.13.31-.34.31-.55h0s0-1.46,0-1.46l-12.21-6.55Z"/>
            <path class="cls-19" d="M560.35,535.78c-.38-.23-.86-.23-1.24,0l-10.5,6.45-1.18-.39v1.48h0c0,.21.1.42.31.55l11.91,7.44c.38.24.87.24,1.25,0l11.36-6.98c.2-.13.31-.34.31-.55h0s0-1.46,0-1.46l-12.21-6.55Z"/>
            <path class="cls-19" d="M577.18,525.4c-.38-.23-.86-.23-1.24,0l-10.5,6.45-1.18-.39v1.48h0c0,.21.1.42.31.55l11.91,7.44c.38.24.87.24,1.25,0l11.36-6.98c.2-.13.31-.34.31-.55h0s0-1.46,0-1.46l-12.21-6.55Z"/>
            <path class="cls-19" d="M594.02,515.02c-.38-.23-.86-.23-1.24,0l-10.5,6.45-1.18-.39v1.48h0c0,.21.1.42.31.55l11.91,7.44c.38.24.87.24,1.25,0l11.36-6.98c.2-.13.31-.34.31-.55h0s0-1.46,0-1.46l-12.21-6.55Z"/>
            <path class="cls-19" d="M427.59,641.06c-.38-.23-.86-.23-1.24,0l-10.5,6.45-1.18-.39v1.48h0c0,.21.1.42.31.55l11.91,7.44c.38.24.87.24,1.25,0l11.36-6.98c.2-.13.31-.34.31-.55h0s0-1.46,0-1.46l-12.21-6.55Z"/>
            <path class="cls-19" d="M444.43,630.68c-.38-.23-.86-.23-1.24,0l-10.5,6.45-1.18-.39v1.48h0c0,.21.1.42.31.55l11.91,7.44c.38.24.87.24,1.25,0l11.36-6.98c.2-.13.31-.34.31-.55h0s0-1.46,0-1.46l-12.21-6.55Z"/>
            <path class="cls-19" d="M461.26,620.29c-.38-.23-.86-.23-1.24,0l-10.5,6.45-1.18-.39v1.48h0c0,.21.1.42.31.55l11.91,7.44c.38.24.87.24,1.25,0l11.36-6.98c.2-.13.31-.34.31-.55h0s0-1.46,0-1.46l-12.21-6.55Z"/>
            <path class="cls-19" d="M478.1,609.91c-.38-.23-.86-.23-1.24,0l-10.5,6.45-1.18-.39v1.48h0c0,.21.1.42.31.55l11.91,7.44c.38.24.87.23,1.25,0l11.36-6.98c.2-.13.31-.34.31-.55h0s0-1.46,0-1.46l-12.21-6.55Z"/>
            <path class="cls-19" d="M494.93,599.53c-.38-.23-.86-.23-1.24,0l-10.5,6.45-1.18-.39v1.48h0c0,.21.1.42.31.55l11.91,7.44c.38.24.87.24,1.25,0l11.36-6.98c.2-.13.31-.34.31-.55h0s0-1.46,0-1.46l-12.21-6.55Z"/>
            <path class="cls-19" d="M511.77,589.15c-.38-.23-.86-.23-1.24,0l-10.5,6.45-1.18-.39v1.48h0c0,.21.1.42.31.55l11.91,7.44c.38.24.87.24,1.25,0l11.36-6.98c.2-.13.31-.34.31-.55h0s0-1.46,0-1.46l-12.21-6.55Z"/>
            <path class="cls-19" d="M528.61,578.77c-.38-.23-.86-.23-1.24,0l-10.5,6.45-1.18-.39v1.48h0c0,.21.1.42.31.55l11.91,7.44c.38.24.87.24,1.25,0l11.36-6.98c.2-.13.31-.34.31-.55h0s0-1.46,0-1.46l-12.21-6.55Z"/>
            <path class="cls-19" d="M545.44,568.39c-.38-.23-.86-.23-1.24,0l-10.5,6.45-1.18-.39v1.48h0c0,.21.1.42.31.55l11.91,7.44c.38.24.87.23,1.25,0l11.36-6.98c.2-.13.31-.34.31-.55h0s0-1.46,0-1.46l-12.21-6.55Z"/>
            <path class="cls-19" d="M562.27,558.01c-.38-.23-.86-.23-1.24,0l-10.5,6.45-1.18-.39v1.48h0c0,.21.1.42.31.55l11.91,7.44c.38.24.87.24,1.25,0l11.36-6.98c.2-.13.31-.34.31-.55h0s0-1.46,0-1.46l-12.21-6.55Z"/>
            <path class="cls-19" d="M579.11,547.63c-.38-.23-.86-.23-1.24,0l-10.5,6.45-1.18-.39v1.48h0c0,.21.1.42.31.55l11.91,7.44c.38.24.87.24,1.25,0l11.36-6.98c.2-.13.31-.34.31-.55h0s0-1.46,0-1.46l-12.21-6.55Z"/>
            <path class="cls-19" d="M595.95,537.25c-.38-.23-.86-.23-1.24,0l-10.5,6.45-1.18-.39v1.48h0c0,.21.1.42.31.55l11.91,7.44c.38.24.87.24,1.25,0l11.36-6.98c.2-.13.31-.34.31-.55h0s0-1.46,0-1.46l-12.21-6.55Z"/>
            <path class="cls-19" d="M612.78,526.87c-.38-.23-.86-.23-1.24,0l-10.5,6.45-1.18-.39v1.48h0c0,.21.1.42.31.55l11.91,7.44c.38.24.87.23,1.25,0l11.36-6.98c.2-.13.31-.34.31-.55h0s0-1.46,0-1.46l-12.21-6.55Z"/>
            <path class="cls-19" d="M446.36,652.91c-.38-.23-.86-.23-1.24,0l-10.5,6.45-1.18-.39v1.48h0c0,.21.1.42.31.55l11.91,7.44c.38.24.87.24,1.25,0l11.36-6.98c.2-.13.31-.34.31-.55h0s0-1.46,0-1.46l-12.21-6.55Z"/>
            <path class="cls-19" d="M463.19,642.53c-.38-.23-.86-.23-1.24,0l-10.5,6.45-1.18-.39v1.48h0c0,.21.1.42.31.55l11.91,7.44c.38.24.87.24,1.25,0l11.36-6.98c.2-.13.31-.34.31-.55h0s0-1.46,0-1.46l-12.21-6.55Z"/>
            <path class="cls-19" d="M480.03,632.15c-.38-.23-.86-.23-1.24,0l-10.5,6.45-1.18-.39v1.48h0c0,.21.1.42.31.55l11.91,7.44c.38.24.87.24,1.25,0l11.36-6.98c.2-.13.31-.34.31-.55h0s0-1.46,0-1.46l-12.21-6.55Z"/>
            <path class="cls-19" d="M496.86,621.77c-.38-.23-.86-.23-1.24,0l-10.5,6.45-1.18-.39v1.48h0c0,.21.1.42.31.55l11.91,7.44c.38.24.87.24,1.25,0l11.36-6.98c.2-.13.31-.34.31-.55h0s0-1.46,0-1.46l-12.21-6.55Z"/>
            <path class="cls-19" d="M513.7,611.39c-.38-.23-.86-.23-1.24,0l-10.5,6.45-1.18-.39v1.48h0c0,.21.1.42.31.55l11.91,7.44c.38.24.87.24,1.25,0l11.36-6.98c.2-.13.31-.34.31-.55h0s0-1.46,0-1.46l-12.21-6.55Z"/>
            <path class="cls-19" d="M530.53,601.01c-.38-.23-.86-.23-1.24,0l-10.5,6.45-1.18-.39v1.48h0c0,.21.1.42.31.55l11.91,7.44c.38.24.87.24,1.25,0l11.36-6.98c.2-.13.31-.34.31-.55h0s0-1.46,0-1.46l-12.21-6.55Z"/>
            <path class="cls-19" d="M547.37,590.63c-.38-.23-.86-.23-1.24,0l-10.5,6.45-1.18-.39v1.48h0c0,.21.1.42.31.55l11.91,7.44c.38.24.87.24,1.25,0l11.36-6.98c.2-.13.31-.34.31-.55h0s0-1.46,0-1.46l-12.21-6.55Z"/>
            <path class="cls-19" d="M564.2,580.25c-.38-.23-.86-.23-1.24,0l-10.5,6.45-1.18-.39v1.48h0c0,.21.1.42.31.55l11.91,7.44c.38.24.87.24,1.25,0l11.36-6.98c.2-.13.31-.34.31-.55h0s0-1.46,0-1.46l-12.21-6.55Z"/>
            <path class="cls-19" d="M581.04,569.86c-.38-.23-.86-.23-1.24,0l-10.5,6.45-1.18-.39v1.48h0c0,.21.1.42.31.55l11.91,7.44c.38.24.87.24,1.25,0l11.36-6.98c.2-.13.31-.34.31-.55h0s0-1.46,0-1.46l-12.21-6.55Z"/>
            <path class="cls-19" d="M597.87,559.48c-.38-.23-.86-.23-1.24,0l-10.5,6.45-1.18-.39v1.48h0c0,.21.1.42.31.55l11.91,7.44c.38.24.87.24,1.25,0l11.36-6.98c.2-.13.31-.34.31-.55h0s0-1.46,0-1.46l-12.21-6.55Z"/>
            <path class="cls-19" d="M614.71,549.1c-.38-.23-.86-.23-1.24,0l-10.5,6.45-1.18-.39v1.48h0c0,.21.1.42.31.55l11.91,7.44c.38.24.87.24,1.25,0l11.36-6.98c.2-.13.31-.34.31-.55h0s0-1.46,0-1.46l-12.21-6.55Z"/>
            <path class="cls-19" d="M631.55,538.72c-.38-.23-.86-.23-1.24,0l-10.5,6.45-1.18-.39v1.48h0c0,.21.1.42.31.55l11.91,7.44c.38.24.87.24,1.25,0l11.36-6.98c.2-.13.31-.34.31-.55h0s0-1.46,0-1.46l-12.21-6.55Z"/>
            <path class="cls-19" d="M465.12,664.76c-.38-.23-.86-.23-1.24,0l-10.5,6.45-1.18-.39v1.48h0c0,.21.1.42.31.55l11.91,7.44c.38.24.87.24,1.25,0l11.36-6.98c.2-.13.31-.34.31-.55h0s0-1.46,0-1.46l-12.21-6.55Z"/>
            <path class="cls-19" d="M481.96,654.38c-.38-.23-.86-.23-1.24,0l-10.5,6.45-1.18-.39v1.48h0c0,.21.1.42.31.55l11.91,7.44c.38.24.87.24,1.25,0l11.36-6.98c.2-.13.31-.34.31-.55h0s0-1.46,0-1.46l-12.21-6.55Z"/>
            <path class="cls-19" d="M498.79,644c-.38-.23-.86-.23-1.24,0l-10.5,6.45-1.18-.39v1.48h0c0,.21.1.42.31.55l11.91,7.44c.38.24.87.24,1.25,0l11.36-6.98c.2-.13.31-.34.31-.55h0s0-1.46,0-1.46l-12.21-6.55Z"/>
            <path class="cls-19" d="M515.63,633.62c-.38-.23-.86-.23-1.24,0l-10.5,6.45-1.18-.39v1.48h0c0,.21.1.42.31.55l11.91,7.44c.38.24.87.24,1.25,0l11.36-6.98c.2-.13.31-.34.31-.55h0s0-1.46,0-1.46l-12.21-6.55Z"/>
            <path class="cls-19" d="M532.46,623.24c-.38-.23-.86-.23-1.24,0l-10.5,6.45-1.18-.39v1.48h0c0,.21.1.42.31.55l11.91,7.44c.38.24.87.24,1.25,0l11.36-6.98c.2-.13.31-.34.31-.55h0s0-1.46,0-1.46l-12.21-6.55Z"/>
            <path class="cls-19" d="M549.3,612.86c-.38-.23-.86-.23-1.24,0l-10.5,6.45-1.18-.39v1.48h0c0,.21.1.42.31.55l11.91,7.44c.38.24.87.24,1.25,0l11.36-6.98c.2-.13.31-.34.31-.55h0s0-1.46,0-1.46l-12.21-6.55Z"/>
            <path class="cls-19" d="M566.13,602.48c-.38-.23-.86-.23-1.24,0l-10.5,6.45-1.18-.39v1.48h0c0,.21.1.42.31.55l11.91,7.44c.38.24.87.24,1.25,0l11.36-6.98c.2-.13.31-.34.31-.55h0s0-1.46,0-1.46l-12.21-6.55Z"/>
            <path class="cls-19" d="M582.97,592.1c-.38-.23-.86-.23-1.24,0l-10.5,6.45-1.18-.39v1.48h0c0,.21.1.42.31.55l11.91,7.44c.38.24.87.23,1.25,0l11.36-6.98c.2-.13.31-.34.31-.55h0s0-1.46,0-1.46l-12.21-6.55Z"/>
            <path class="cls-19" d="M599.8,581.72c-.38-.23-.86-.23-1.24,0l-10.5,6.45-1.18-.39v1.48h0c0,.21.1.42.31.55l11.91,7.44c.38.24.87.24,1.25,0l11.36-6.98c.2-.13.31-.34.31-.55h0s0-1.46,0-1.46l-12.21-6.55Z"/>
            <path class="cls-19" d="M616.64,571.34c-.38-.23-.86-.23-1.24,0l-10.5,6.45-1.18-.39v1.48h0c0,.21.1.42.31.55l11.91,7.44c.38.24.87.24,1.25,0l11.36-6.98c.2-.13.31-.34.31-.55h0s0-1.46,0-1.46l-12.21-6.55Z"/>
            <path class="cls-19" d="M633.47,560.96c-.38-.23-.86-.23-1.24,0l-10.5,6.45-1.18-.39v1.48h0c0,.21.1.42.31.55l11.91,7.44c.38.24.87.24,1.25,0l11.36-6.98c.2-.13.31-.34.31-.55h0s0-1.46,0-1.46l-12.21-6.55Z"/>
            <path class="cls-19" d="M650.31,550.58c-.38-.23-.86-.23-1.24,0l-10.5,6.45-1.18-.39v1.48h0c0,.21.1.42.31.55l11.91,7.44c.38.24.87.23,1.25,0l11.36-6.98c.2-.13.31-.34.31-.55h0s0-1.46,0-1.46l-12.21-6.55Z"/>
            <path class="cls-19" d="M483.89,676.61c-.38-.23-.86-.23-1.24,0l-10.5,6.45-1.18-.39v1.48h0c0,.21.1.42.31.55l11.91,7.44c.38.24.87.24,1.25,0l11.36-6.98c.2-.13.31-.34.31-.55h0s0-1.46,0-1.46l-12.21-6.55Z"/>
            <path class="cls-19" d="M500.72,666.23c-.38-.23-.86-.23-1.24,0l-10.5,6.45-1.18-.39v1.48h0c0,.21.1.42.31.55l11.91,7.44c.38.24.87.24,1.25,0l11.36-6.98c.2-.13.31-.34.31-.55h0s0-1.46,0-1.46l-12.21-6.55Z"/>
            <path class="cls-19" d="M517.56,655.85c-.38-.23-.86-.23-1.24,0l-10.5,6.45-1.18-.39v1.48h0c0,.21.1.42.31.55l11.91,7.44c.38.24.87.24,1.25,0l11.36-6.98c.2-.13.31-.34.31-.55h0s0-1.46,0-1.46l-12.21-6.55Z"/>
            <path class="cls-19" d="M534.39,645.47c-.38-.23-.86-.23-1.24,0l-10.5,6.45-1.18-.39v1.48h0c0,.21.1.42.31.55l11.91,7.44c.38.24.87.24,1.25,0l11.36-6.98c.2-.13.31-.34.31-.55h0s0-1.46,0-1.46l-12.21-6.55Z"/>
            <path class="cls-19" d="M551.23,635.09c-.38-.23-.86-.23-1.24,0l-10.5,6.45-1.18-.39v1.48h0c0,.21.1.42.31.55l11.91,7.44c.38.24.87.24,1.25,0l11.36-6.98c.2-.13.31-.34.31-.55h0s0-1.46,0-1.46l-12.21-6.55Z"/>
            <path class="cls-19" d="M568.06,624.71c-.38-.23-.86-.23-1.24,0l-10.5,6.45-1.18-.39v1.48h0c0,.21.1.42.31.55l11.91,7.44c.38.24.87.24,1.25,0l11.36-6.98c.2-.13.31-.34.31-.55h0s0-1.46,0-1.46l-12.21-6.55Z"/>
            <path class="cls-19" d="M584.9,614.33c-.38-.23-.86-.23-1.24,0l-10.5,6.45-1.18-.39v1.48h0c0,.21.1.42.31.55l11.91,7.44c.38.24.87.24,1.25,0l11.36-6.98c.2-.13.31-.34.31-.55h0s0-1.46,0-1.46l-12.21-6.55Z"/>
            <path class="cls-19" d="M601.73,603.95c-.38-.23-.86-.23-1.24,0l-10.5,6.45-1.18-.39v1.48h0c0,.21.1.42.31.55l11.91,7.44c.38.24.87.24,1.25,0l11.36-6.98c.2-.13.31-.34.31-.55h0s0-1.46,0-1.46l-12.21-6.55Z"/>
            <path class="cls-19" d="M618.57,593.57c-.38-.23-.86-.23-1.24,0l-10.5,6.45-1.18-.39v1.48h0c0,.21.1.42.31.55l11.91,7.44c.38.24.87.23,1.25,0l11.36-6.98c.2-.13.31-.34.31-.55h0s0-1.46,0-1.46l-12.21-6.55Z"/>
            <path class="cls-19" d="M635.4,583.19c-.38-.23-.86-.23-1.24,0l-10.5,6.45-1.18-.39v1.48h0c0,.21.1.42.31.55l11.91,7.44c.38.24.87.24,1.25,0l11.36-6.98c.2-.13.31-.34.31-.55h0s0-1.46,0-1.46l-12.21-6.55Z"/>
            <path class="cls-19" d="M652.24,572.81c-.38-.23-.86-.23-1.24,0l-10.5,6.45-1.18-.39v1.48h0c0,.21.1.42.31.55l11.91,7.44c.38.24.87.24,1.25,0l11.36-6.98c.2-.13.31-.34.31-.55h0s0-1.46,0-1.46l-12.21-6.55Z"/>
            <path class="cls-19" d="M669.07,562.43c-.38-.23-.86-.23-1.24,0l-10.5,6.45-1.18-.39v1.48h0c0,.21.1.42.31.55l11.91,7.44c.38.24.87.24,1.25,0l11.36-6.98c.2-.13.31-.34.31-.55h0s0-1.46,0-1.46l-12.21-6.55Z"/>
            <path class="cls-19" d="M502.65,688.47c-.38-.23-.86-.23-1.24,0l-10.5,6.45-1.18-.39v1.48h0c0,.21.1.42.31.55l11.91,7.44c.38.24.87.24,1.25,0l11.36-6.98c.2-.13.31-.34.31-.55h0s0-1.46,0-1.46l-12.21-6.55Z"/>
            <path class="cls-19" d="M519.49,678.09c-.38-.23-.86-.23-1.24,0l-10.5,6.45-1.18-.39v1.48h0c0,.21.1.42.31.55l11.91,7.44c.38.24.87.24,1.25,0l11.36-6.98c.2-.13.31-.34.31-.55h0s0-1.46,0-1.46l-12.21-6.55Z"/>
            <path class="cls-19" d="M536.32,667.71c-.38-.23-.86-.23-1.24,0l-10.5,6.45-1.18-.39v1.48h0c0,.21.1.42.31.55l11.91,7.44c.38.24.87.24,1.25,0l11.36-6.98c.2-.13.31-.34.31-.55h0s0-1.46,0-1.46l-12.21-6.55Z"/>
            <path class="cls-19" d="M620.5,615.8c-.38-.23-.86-.23-1.24,0l-10.5,6.45-1.18-.39v1.48h0c0,.21.1.42.31.55l11.91,7.44c.38.24.87.24,1.25,0l11.36-6.98c.2-.13.31-.34.31-.55h0s0-1.46,0-1.46l-12.21-6.55Z"/>
            <path class="cls-19" d="M637.33,605.42c-.38-.23-.86-.23-1.24,0l-10.5,6.45-1.18-.39v1.48h0c0,.21.1.42.31.55l11.91,7.44c.38.24.87.24,1.25,0l11.36-6.98c.2-.13.31-.34.31-.55h0s0-1.46,0-1.46l-12.21-6.55Z"/>
            <path class="cls-19" d="M654.17,595.04c-.38-.23-.86-.23-1.24,0l-10.5,6.45-1.18-.39v1.48h0c0,.21.1.42.31.55l11.91,7.44c.38.24.87.24,1.25,0l11.36-6.98c.2-.13.31-.34.31-.55h0s0-1.46,0-1.46l-12.21-6.55Z"/>
            <path class="cls-19" d="M671,584.66c-.38-.23-.86-.23-1.24,0l-10.5,6.45-1.18-.39v1.48h0c0,.21.1.42.31.55l4.84,3.02c.38.24.87.24,1.25,0l11.36-6.98c.2-.13.31-.34.31-.55h0s0-1.46,0-1.46l-5.15-2.13Z"/>
            <path class="cls-19" d="M678.08,589.09c-.38-.23-.86-.23-1.24,0l-10.5,6.45-1.18-.39v1.48h0c0,.21.1.42.31.55l4.84,3.02c.38.24.87.24,1.25,0l11.36-6.98c.2-.13.31-.34.31-.55h0s0-1.46,0-1.46l-5.15-2.13Z"/>
            <path class="cls-19" d="M687.84,574.28c-.38-.23-.86-.23-1.24,0l-10.5,6.45-1.18-.39v1.48h0c0,.21.1.42.31.55l11.91,7.44c.38.24.87.24,1.25,0l11.36-6.98c.2-.13.31-.34.31-.55h0s0-1.46,0-1.46l-12.21-6.55Z"/>
            <path class="cls-19" d="M603.66,626.18c-.38-.23-.86-.23-1.24,0l-10.5,6.45-1.18-.39v1.48h0c0,.21.1.42.31.55l5.77,3.61-36.07,23.5-7.59-4.07c-.38-.23-.86-.23-1.24,0l-10.5,6.45-1.18-.39v1.48h0c0,.21.1.42.31.55l11.91,7.44c.38.24.87.24,1.25,0l11.36-6.98s0-.01.01-.01l45.02-27.76h0l5.48-3.37c.2-.13.31-.34.31-.55h0s0-1.46,0-1.46l-12.21-6.55Z"/>
          </g>
          <g>
            <path class="cls-2" d="M409.37,643.27l11.36-6.98c.42-.26.42-.87,0-1.12l-11.9-7.44c-.38-.23-.86-.23-1.24,0l-11.37,6.99c-.41.25-.41.85,0,1.11l11.91,7.44c.38.24.87.24,1.25,0Z"/>
            <path class="cls-2" d="M426.21,632.89l11.36-6.98c.42-.26.42-.86,0-1.12l-11.9-7.44c-.38-.23-.86-.23-1.24,0l-11.37,6.99c-.41.25-.41.85,0,1.11l11.91,7.44c.38.24.87.24,1.25,0Z"/>
            <path class="cls-2" d="M443.04,622.51l11.36-6.98c.42-.26.42-.87,0-1.12l-11.9-7.44c-.38-.23-.86-.23-1.24,0l-11.37,6.99c-.41.25-.41.85,0,1.11l11.91,7.44c.38.24.87.24,1.25,0Z"/>
            <path class="cls-2" d="M459.88,612.13l11.36-6.98c.42-.26.42-.87,0-1.12l-11.9-7.44c-.38-.23-.86-.23-1.24,0l-11.37,6.99c-.41.25-.41.85,0,1.11l11.91,7.44c.38.24.87.24,1.25,0Z"/>
            <path class="cls-2" d="M476.71,601.75l11.36-6.98c.42-.26.42-.87,0-1.12l-11.9-7.44c-.38-.23-.86-.23-1.24,0l-11.37,6.99c-.41.25-.41.85,0,1.11l11.91,7.44c.38.24.87.24,1.25,0Z"/>
            <path class="cls-2" d="M493.55,591.37l11.36-6.98c.42-.26.42-.86,0-1.12l-11.9-7.44c-.38-.23-.86-.23-1.24,0l-11.37,6.99c-.41.25-.41.85,0,1.11l11.91,7.44c.38.24.87.24,1.25,0Z"/>
            <path class="cls-2" d="M527.22,570.61l11.36-6.98c.42-.26.42-.87,0-1.12l-11.9-7.44c-.38-.23-.86-.23-1.24,0l-11.37,6.99c-.41.25-.41.85,0,1.11l11.91,7.44c.38.24.87.24,1.25,0Z"/>
            <path class="cls-2" d="M544.05,560.23l11.36-6.98c.42-.26.42-.87,0-1.12l-11.9-7.44c-.38-.23-.86-.23-1.24,0l-11.37,6.99c-.41.25-.41.85,0,1.11l11.91,7.44c.38.24.87.23,1.25,0Z"/>
            <path class="cls-2" d="M560.89,549.85l11.36-6.98c.42-.26.42-.87,0-1.12l-11.9-7.44c-.38-.23-.86-.23-1.24,0l-11.37,6.99c-.41.25-.41.85,0,1.11l11.91,7.44c.38.24.87.24,1.25,0Z"/>
            <path class="cls-2" d="M577.72,539.47l11.36-6.98c.42-.26.42-.86,0-1.12l-11.9-7.44c-.38-.23-.86-.23-1.24,0l-11.37,6.99c-.41.25-.41.85,0,1.11l11.91,7.44c.38.24.87.24,1.25,0Z"/>
            <path class="cls-2" d="M594.56,529.09l11.36-6.98c.42-.26.42-.87,0-1.12l-11.9-7.44c-.38-.23-.86-.23-1.24,0l-11.37,6.99c-.41.25-.41.85,0,1.11l11.91,7.44c.38.24.87.24,1.25,0Z"/>
            <path class="cls-2" d="M428.14,655.12l11.36-6.98c.42-.26.42-.86,0-1.12l-11.9-7.44c-.38-.23-.86-.23-1.24,0l-11.37,6.99c-.41.25-.41.85,0,1.11l11.91,7.44c.38.24.87.24,1.25,0Z"/>
            <path class="cls-2" d="M444.97,644.74l11.36-6.98c.42-.26.42-.87,0-1.12l-11.9-7.44c-.38-.23-.86-.23-1.24,0l-11.37,6.99c-.41.25-.41.85,0,1.11l11.91,7.44c.38.24.87.24,1.25,0Z"/>
            <path class="cls-2" d="M461.81,634.36l11.36-6.98c.42-.26.42-.86,0-1.12l-11.9-7.44c-.38-.23-.86-.23-1.24,0l-11.37,6.99c-.41.25-.41.85,0,1.11l11.91,7.44c.38.24.87.24,1.25,0Z"/>
            <path class="cls-2" d="M478.64,623.98l11.36-6.98c.42-.26.42-.87,0-1.12l-11.9-7.44c-.38-.23-.86-.23-1.24,0l-11.37,6.99c-.41.25-.41.85,0,1.11l11.91,7.44c.38.24.87.23,1.25,0Z"/>
            <path class="cls-2" d="M495.48,613.6l11.36-6.98c.42-.26.42-.87,0-1.12l-11.9-7.44c-.38-.23-.86-.23-1.24,0l-11.37,6.99c-.41.25-.41.85,0,1.11l11.91,7.44c.38.24.87.24,1.25,0Z"/>
            <path class="cls-2" d="M512.31,603.22l11.36-6.98c.42-.26.42-.87,0-1.12l-11.9-7.44c-.38-.23-.86-.23-1.24,0l-11.37,6.99c-.41.25-.41.85,0,1.11l11.91,7.44c.38.24.87.24,1.25,0Z"/>
            <path class="cls-2" d="M529.15,592.84l11.36-6.98c.42-.26.42-.87,0-1.12l-11.9-7.44c-.38-.23-.86-.23-1.24,0l-11.37,6.99c-.41.25-.41.85,0,1.11l11.91,7.44c.38.24.87.24,1.25,0Z"/>
            <path class="cls-2" d="M545.98,582.46l11.36-6.98c.42-.26.42-.87,0-1.12l-11.9-7.44c-.38-.23-.86-.23-1.24,0l-11.37,6.99c-.41.25-.41.85,0,1.11l11.91,7.44c.38.24.87.23,1.25,0Z"/>
            <path class="cls-2" d="M562.82,572.08l11.36-6.98c.42-.26.42-.87,0-1.12l-11.9-7.44c-.38-.23-.86-.23-1.24,0l-11.37,6.99c-.41.25-.41.85,0,1.11l11.91,7.44c.38.24.87.24,1.25,0Z"/>
            <path class="cls-2" d="M579.65,561.7l11.36-6.98c.42-.26.42-.87,0-1.12l-11.9-7.44c-.38-.23-.86-.23-1.24,0l-11.37,6.99c-.41.25-.41.85,0,1.11l11.91,7.44c.38.24.87.24,1.25,0Z"/>
            <path class="cls-2" d="M596.49,551.32l11.36-6.98c.42-.26.42-.87,0-1.12l-11.9-7.44c-.38-.23-.86-.23-1.24,0l-11.37,6.99c-.41.25-.41.85,0,1.11l11.91,7.44c.38.24.87.24,1.25,0Z"/>
            <path class="cls-2" d="M613.32,540.94l11.36-6.98c.42-.26.42-.86,0-1.12l-11.9-7.44c-.38-.23-.86-.23-1.24,0l-11.37,6.99c-.41.25-.41.85,0,1.11l11.91,7.44c.38.24.87.23,1.25,0Z"/>
            <path class="cls-2" d="M446.9,666.98l11.36-6.98c.42-.26.42-.87,0-1.12l-11.9-7.44c-.38-.23-.86-.23-1.24,0l-11.37,6.99c-.41.25-.41.85,0,1.11l11.91,7.44c.38.24.87.24,1.25,0Z"/>
            <path class="cls-2" d="M463.73,656.6l11.36-6.98c.42-.26.42-.86,0-1.12l-11.9-7.44c-.38-.23-.86-.23-1.24,0l-11.37,6.99c-.41.25-.41.85,0,1.11l11.91,7.44c.38.24.87.24,1.25,0Z"/>
            <path class="cls-2" d="M480.57,646.22l11.36-6.98c.42-.26.42-.87,0-1.12l-11.9-7.44c-.38-.23-.86-.23-1.24,0l-11.37,6.99c-.41.25-.41.85,0,1.11l11.91,7.44c.38.24.87.24,1.25,0Z"/>
            <path class="cls-2" d="M497.4,635.83l11.36-6.98c.42-.26.42-.87,0-1.12l-11.9-7.44c-.38-.23-.86-.23-1.24,0l-11.37,6.99c-.41.25-.41.85,0,1.11l11.91,7.44c.38.24.87.24,1.25,0Z"/>
            <path class="cls-2" d="M514.24,625.45l11.36-6.98c.42-.26.42-.87,0-1.12l-11.9-7.44c-.38-.23-.86-.23-1.24,0l-11.37,6.99c-.41.25-.41.85,0,1.11l11.91,7.44c.38.24.87.24,1.25,0Z"/>
            <path class="cls-2" d="M531.08,615.07l11.36-6.98c.42-.26.42-.86,0-1.12l-11.9-7.44c-.38-.23-.86-.23-1.24,0l-11.37,6.99c-.41.25-.41.85,0,1.11l11.91,7.44c.38.24.87.24,1.25,0Z"/>
            <path class="cls-2" d="M547.91,604.69l11.36-6.98c.42-.26.42-.87,0-1.12l-11.9-7.44c-.38-.23-.86-.23-1.24,0l-11.37,6.99c-.41.25-.41.85,0,1.11l11.91,7.44c.38.24.87.24,1.25,0Z"/>
            <path class="cls-2" d="M564.75,594.31l11.36-6.98c.42-.26.42-.87,0-1.12l-11.9-7.44c-.38-.23-.86-.23-1.24,0l-11.37,6.99c-.41.25-.41.85,0,1.11l11.91,7.44c.38.24.87.24,1.25,0Z"/>
            <path class="cls-2" d="M581.58,583.93l11.36-6.98c.42-.26.42-.87,0-1.12l-11.9-7.44c-.38-.23-.86-.23-1.24,0l-11.37,6.99c-.41.25-.41.85,0,1.11l11.91,7.44c.38.24.87.23,1.25,0Z"/>
            <path class="cls-2" d="M598.42,573.55l11.36-6.98c.42-.26.42-.86,0-1.12l-11.9-7.44c-.38-.23-.86-.23-1.24,0l-11.37,6.99c-.41.25-.41.85,0,1.11l11.91,7.44c.38.24.87.24,1.25,0Z"/>
            <path class="cls-2" d="M615.25,563.17l11.36-6.98c.42-.26.42-.87,0-1.12l-11.9-7.44c-.38-.23-.86-.23-1.24,0l-11.37,6.99c-.41.25-.41.85,0,1.11l11.91,7.44c.38.24.87.24,1.25,0Z"/>
            <path class="cls-2" d="M632.09,552.79l11.36-6.98c.42-.26.42-.87,0-1.12l-11.9-7.44c-.38-.23-.86-.23-1.24,0l-11.37,6.99c-.41.25-.41.85,0,1.11l11.91,7.44c.38.24.87.24,1.25,0Z"/>
            <path class="cls-2" d="M465.66,678.83l11.36-6.98c.42-.26.42-.87,0-1.12l-11.9-7.44c-.38-.23-.86-.23-1.24,0l-11.37,6.99c-.41.25-.41.85,0,1.11l11.91,7.44c.38.24.87.24,1.25,0Z"/>
            <path class="cls-2" d="M482.5,668.45l11.36-6.98c.42-.26.42-.87,0-1.12l-11.9-7.44c-.38-.23-.86-.23-1.24,0l-11.37,6.99c-.41.25-.41.85,0,1.11l11.91,7.44c.38.24.87.24,1.25,0Z"/>
            <path class="cls-2" d="M499.33,658.07l11.36-6.98c.42-.26.42-.86,0-1.12l-11.9-7.44c-.38-.23-.86-.23-1.24,0l-11.37,6.99c-.41.25-.41.85,0,1.11l11.91,7.44c.38.24.87.24,1.25,0Z"/>
            <path class="cls-2" d="M516.17,647.69l11.36-6.98c.42-.26.42-.87,0-1.12l-11.9-7.44c-.38-.23-.86-.23-1.24,0l-11.37,6.99c-.41.25-.41.85,0,1.11l11.91,7.44c.38.24.87.24,1.25,0Z"/>
            <path class="cls-2" d="M533,637.31l11.36-6.98c.42-.26.42-.87,0-1.12l-11.9-7.44c-.38-.23-.86-.23-1.24,0l-11.37,6.99c-.41.25-.41.85,0,1.11l11.91,7.44c.38.24.87.24,1.25,0Z"/>
            <path class="cls-2" d="M549.84,626.93l11.36-6.98c.42-.26.42-.87,0-1.12l-11.9-7.44c-.38-.23-.86-.23-1.24,0l-11.37,6.99c-.41.25-.41.85,0,1.11l11.91,7.44c.38.24.87.24,1.25,0Z"/>
            <path class="cls-2" d="M566.68,616.55l11.36-6.98c.42-.26.42-.86,0-1.12l-11.9-7.44c-.38-.23-.86-.23-1.24,0l-11.37,6.99c-.41.25-.41.85,0,1.11l11.91,7.44c.38.24.87.24,1.25,0Z"/>
            <path class="cls-2" d="M583.51,606.17l11.36-6.98c.42-.26.42-.87,0-1.12l-11.9-7.44c-.38-.23-.86-.23-1.24,0l-11.37,6.99c-.41.25-.41.85,0,1.11l11.91,7.44c.38.24.87.23,1.25,0Z"/>
            <path class="cls-2" d="M600.35,595.79l11.36-6.98c.42-.26.42-.87,0-1.12l-11.9-7.44c-.38-.23-.86-.23-1.24,0l-11.37,6.99c-.41.25-.41.85,0,1.11l11.91,7.44c.38.24.87.24,1.25,0Z"/>
            <path class="cls-2" d="M617.18,585.4l11.36-6.98c.42-.26.42-.87,0-1.12l-11.9-7.44c-.38-.23-.86-.23-1.24,0l-11.37,6.99c-.41.25-.41.85,0,1.11l11.91,7.44c.38.24.87.24,1.25,0Z"/>
            <path class="cls-2" d="M634.02,575.02l11.36-6.98c.42-.26.42-.86,0-1.12l-11.9-7.44c-.38-.23-.86-.23-1.24,0l-11.37,6.99c-.41.25-.41.85,0,1.11l11.91,7.44c.38.24.87.24,1.25,0Z"/>
            <path class="cls-2" d="M650.85,564.64l11.36-6.98c.42-.26.42-.87,0-1.12l-11.9-7.44c-.38-.23-.86-.23-1.24,0l-11.37,6.99c-.41.25-.41.85,0,1.11l11.91,7.44c.38.24.87.23,1.25,0Z"/>
            <path class="cls-2" d="M484.43,690.68l11.36-6.98c.42-.26.42-.87,0-1.12l-11.9-7.44c-.38-.23-.86-.23-1.24,0l-11.37,6.99c-.41.25-.41.85,0,1.11l11.91,7.44c.38.24.87.24,1.25,0Z"/>
            <path class="cls-2" d="M501.26,680.3l11.36-6.98c.42-.26.42-.86,0-1.12l-11.9-7.44c-.38-.23-.86-.23-1.24,0l-11.37,6.99c-.41.25-.41.85,0,1.11l11.91,7.44c.38.24.87.24,1.25,0Z"/>
            <path class="cls-2" d="M518.1,669.92l11.36-6.98c.42-.26.42-.87,0-1.12l-11.9-7.44c-.38-.23-.86-.23-1.24,0l-11.37,6.99c-.41.25-.41.85,0,1.11l11.91,7.44c.38.24.87.24,1.25,0Z"/>
            <path class="cls-2" d="M534.93,659.54l11.36-6.98c.42-.26.42-.87,0-1.12l-11.9-7.44c-.38-.23-.86-.23-1.24,0l-11.37,6.99c-.41.25-.41.85,0,1.11l11.91,7.44c.38.24.87.24,1.25,0Z"/>
            <path class="cls-2" d="M551.77,649.16l11.36-6.98c.42-.26.42-.87,0-1.12l-11.9-7.44c-.38-.23-.86-.23-1.24,0l-11.37,6.99c-.41.25-.41.85,0,1.11l11.91,7.44c.38.24.87.24,1.25,0Z"/>
            <path class="cls-2" d="M568.6,638.78l11.36-6.98c.42-.26.42-.86,0-1.12l-11.9-7.44c-.38-.23-.86-.23-1.24,0l-11.37,6.99c-.41.25-.41.85,0,1.11l11.91,7.44c.38.24.87.24,1.25,0Z"/>
            <path class="cls-2" d="M585.44,628.4l11.36-6.98c.42-.26.42-.87,0-1.12l-11.9-7.44c-.38-.23-.86-.23-1.24,0l-11.37,6.99c-.41.25-.41.85,0,1.11l11.91,7.44c.38.24.87.24,1.25,0Z"/>
            <path class="cls-2" d="M602.27,618.02l11.36-6.98c.42-.26.42-.86,0-1.12l-11.9-7.44c-.38-.23-.86-.23-1.24,0l-11.37,6.99c-.41.25-.41.85,0,1.11l11.91,7.44c.38.24.87.24,1.25,0Z"/>
            <path class="cls-2" d="M619.11,607.64l11.36-6.98c.42-.26.42-.87,0-1.12l-11.9-7.44c-.38-.23-.86-.23-1.24,0l-11.37,6.99c-.41.25-.41.85,0,1.11l11.91,7.44c.38.24.87.23,1.25,0Z"/>
            <path class="cls-2" d="M635.94,597.26l11.36-6.98c.42-.26.42-.86,0-1.12l-11.9-7.44c-.38-.23-.86-.23-1.24,0l-11.37,6.99c-.41.25-.41.85,0,1.11l11.91,7.44c.38.24.87.24,1.25,0Z"/>
            <path class="cls-2" d="M652.78,586.88l11.36-6.98c.42-.26.42-.87,0-1.12l-11.9-7.44c-.38-.23-.86-.23-1.24,0l-11.37,6.99c-.41.25-.41.85,0,1.11l11.91,7.44c.38.24.87.24,1.25,0Z"/>
            <path class="cls-2" d="M669.62,576.5l11.36-6.98c.42-.26.42-.86,0-1.12l-11.9-7.44c-.38-.23-.86-.23-1.24,0l-11.37,6.99c-.41.25-.41.85,0,1.11l11.91,7.44c.38.24.87.24,1.25,0Z"/>
            <path class="cls-2" d="M503.19,702.54l11.36-6.98c.42-.26.42-.87,0-1.12l-11.9-7.44c-.38-.23-.86-.23-1.24,0l-11.37,6.99c-.41.25-.41.85,0,1.11l11.91,7.44c.38.24.87.24,1.25,0Z"/>
            <path class="cls-2" d="M520.03,692.15l11.36-6.98c.42-.26.42-.87,0-1.12l-11.9-7.44c-.38-.23-.86-.23-1.24,0l-11.37,6.99c-.41.25-.41.85,0,1.11l11.91,7.44c.38.24.87.24,1.25,0Z"/>
            <path class="cls-2" d="M536.86,681.77l11.36-6.98c.42-.26.42-.86,0-1.12l-11.9-7.44c-.38-.23-.86-.23-1.24,0l-11.37,6.99c-.41.25-.41.85,0,1.11l11.91,7.44c.38.24.87.24,1.25,0Z"/>
            <path class="cls-2" d="M621.04,629.87l11.36-6.98c.42-.26.42-.87,0-1.12l-11.9-7.44c-.38-.23-.86-.23-1.24,0l-11.37,6.99c-.41.25-.41.85,0,1.11l11.91,7.44c.38.24.87.24,1.25,0Z"/>
            <path class="cls-2" d="M637.87,619.49l11.36-6.98c.42-.26.42-.87,0-1.12l-11.9-7.44c-.38-.23-.86-.23-1.24,0l-11.37,6.99c-.41.25-.41.85,0,1.11l11.91,7.44c.38.24.87.24,1.25,0Z"/>
            <path class="cls-2" d="M654.71,609.11l11.36-6.98c.42-.26.42-.87,0-1.12l-11.9-7.44c-.38-.23-.86-.23-1.24,0l-11.37,6.99c-.41.25-.41.85,0,1.11l11.91,7.44c.38.24.87.24,1.25,0Z"/>
            <path class="cls-2" d="M664.48,594.31l11.36-6.98c.42-.26.42-.87,0-1.12l-4.83-3.02c-.38-.23-.86-.23-1.24,0l-11.37,6.99c-.41.25-.41.85,0,1.11l4.84,3.02c.38.24.87.24,1.25,0Z"/>
            <path class="cls-2" d="M671.56,598.74l11.36-6.98c.42-.26.42-.87,0-1.12l-4.83-3.02c-.38-.23-.86-.23-1.24,0l-11.37,6.99c-.41.25-.41.85,0,1.11l4.84,3.02c.38.24.87.24,1.25,0Z"/>
            <path class="cls-2" d="M688.38,588.35l11.36-6.98c.42-.26.42-.87,0-1.12l-11.9-7.44c-.38-.23-.86-.23-1.24,0l-11.37,6.99c-.41.25-.41.85,0,1.11l11.91,7.44c.38.24.87.24,1.25,0Z"/>
            <path class="cls-2" d="M615.56,632.15l-11.9-7.44c-.38-.23-.86-.23-1.24,0l-11.37,6.99s-.01.02-.02.02l-41.68,25.71h0l-8.81,5.41c-.41.25-.41.85,0,1.11l11.91,7.44c.38.24.87.24,1.25,0l11.36-6.98s0,0,0,0l44.12-27.22h0l6.37-3.92c.42-.26.42-.86,0-1.12Z"/>
          </g>
        </g>
        <g>
          <path class="cls-26" d="M158.27,490.97v48.42c0,1.3-.63,2.53-1.71,3.28-.05.02-.1.07-.14.1l-15.83,9.76-32.69,20.14c-.58.36-1.23.31-1.71-.02l-6.41-3.95c-.58-.34-.92-.96-.92-1.61v-46.8c0-1.83.94-3.54,2.51-4.48l48.03-29.63c.63-.39,1.4-.39,2.02-.02l6.09,3.71c.07.02.14.07.22.12.31.22.53.58.53,1.01Z"/>
          <path class="cls-30" d="M158.27,490.97v48.42c0,1.3-.63,2.53-1.71,3.28-.05.02-.1.07-.14.1l-15.83,9.76-32.69,20.14c-.58.36-1.23.31-1.71-.02l-6.41-3.95c-.58-.34-.92-.96-.92-1.61v-46.8c0-1.83.94-3.54,2.51-4.48l48.03-29.63c.63-.39,1.4-.39,2.02-.02l6.09,3.71c.07.02.14.07.22.12.31.22.53.58.53,1.01Z"/>
          <path class="cls-26" d="M158.27,490.97v48.42c0,1.3-.63,2.53-1.71,3.28-.05.02-.1.07-.14.1l-15.83,9.76-32.69,20.14c-.58.36-1.23.31-1.71-.02-.41-.26-.72-.75-.72-1.32v-47.19c0-1.71.89-3.3,2.34-4.22l48.63-29.97c.36-.22.75-.24,1.08-.1.07.02.14.07.22.12.31.22.53.58.53,1.01Z"/>
        </g>
        <g>
          <path class="cls-24" d="M260.52,328.16v48.42c0,1.3-.63,2.53-1.71,3.28-.05.02-.1.07-.14.1l-15.83,9.76-32.69,20.14c-.58.36-1.23.31-1.71-.02l-6.41-3.95c-.58-.34-.92-.96-.92-1.61v-46.8c0-1.83.94-3.54,2.51-4.48l48.03-29.63c.63-.39,1.4-.39,2.02-.02l6.09,3.71c.07.02.14.07.22.12.31.22.53.58.53,1.01Z"/>
          <path class="cls-4" d="M260.52,328.16v48.42c0,1.3-.63,2.53-1.71,3.28-.05.02-.1.07-.14.1l-15.83,9.76-32.69,20.14c-.58.36-1.23.31-1.71-.02l-6.41-3.95c-.58-.34-.92-.96-.92-1.61v-46.8c0-1.83.94-3.54,2.51-4.48l48.03-29.63c.63-.39,1.4-.39,2.02-.02l6.09,3.71c.07.02.14.07.22.12.31.22.53.58.53,1.01Z"/>
          <path class="cls-24" d="M260.52,328.16v48.42c0,1.3-.63,2.53-1.71,3.28-.05.02-.1.07-.14.1l-15.83,9.76-32.69,20.14c-.58.36-1.23.31-1.71-.02-.41-.27-.72-.75-.72-1.32v-47.19c0-1.71.89-3.3,2.34-4.22l48.63-29.97c.36-.22.75-.24,1.08-.1.07.02.14.07.22.12.31.22.53.58.53,1.01Z"/>
          <path class="cls-2" d="M225.39,378.02c-.45,2.54-2.6,4.61-4.81,4.61s-3.63-2.06-3.18-4.61c.45-2.54,2.6-4.61,4.81-4.61s3.63,2.06,3.18,4.61Z"/>
          <path class="cls-2" d="M239.56,370.07c-.45,2.54-2.6,4.61-4.81,4.61s-3.63-2.06-3.18-4.61c.45-2.54,2.6-4.61,4.81-4.61s3.63,2.06,3.18,4.61Z"/>
          <path class="cls-2" d="M253.72,362.12c-.45,2.54-2.6,4.61-4.81,4.61s-3.63-2.06-3.18-4.61c.45-2.54,2.6-4.61,4.81-4.61s3.63,2.06,3.18,4.61Z"/>
        </g>
        <g>
          <g>
            <path class="cls-33" d="M312.05,459.21v48.42c0,1.3-.63,2.53-1.71,3.28-.05.02-.1.07-.14.1l-15.83,9.76-32.69,20.14c-.58.36-1.23.31-1.71-.02l-6.41-3.95c-.58-.34-.92-.96-.92-1.61v-46.8c0-1.83.94-3.54,2.5-4.48l48.03-29.63c.63-.39,1.4-.39,2.02-.02l6.09,3.71c.07.02.14.07.22.12.31.22.53.58.53,1.01Z"/>
            <path class="cls-34" d="M312.05,459.21v48.42c0,1.3-.63,2.53-1.71,3.28-.05.02-.1.07-.14.1l-15.83,9.76-32.69,20.14c-.58.36-1.23.31-1.71-.02-.41-.26-.72-.75-.72-1.32v-47.19c0-1.71.89-3.3,2.34-4.22l48.63-29.97c.36-.22.75-.24,1.08-.1.07.02.14.07.22.12.31.22.53.58.53,1.01Z"/>
          </g>
          <g>
            <polygon class="cls-2" points="302.61 478.5 302.61 481.86 286.92 500.28 271.2 501.48 271.2 498.13 302.61 478.5"/>
            <polygon class="cls-2" points="286.92 502.23 302.61 483.82 302.61 501 271.2 520.63 271.2 503.43 286.92 502.23"/>
          </g>
        </g>
        <g>
          <g>
            <path class="cls-33" d="M711.5,182.99v51.34c0,1.38-.66,2.68-1.81,3.47-.05.03-.1.08-.15.1l-29.57,17.98-34.66,21.35c-.61.38-1.3.33-1.81-.03l-6.79-4.19c-.61-.36-.97-1.02-.97-1.71v-49.63c0-1.94,1-3.76,2.66-4.75l63.73-39.05c.66-.41,1.48-.41,2.15-.03l6.46,3.93c.08.03.15.08.23.13.33.23.56.61.56,1.07Z"/>
            <path class="cls-34" d="M711.51,182.99v51.34c0,1.38-.66,2.68-1.81,3.47-.05.03-.1.08-.15.1l-64.24,39.33c-.61.38-1.3.33-1.81-.03-.43-.28-.77-.79-.77-1.4v-50.04c0-1.81.95-3.5,2.48-4.47l64.36-39.41c.38-.23.79-.26,1.15-.1.08.03.15.08.23.13.33.23.56.61.56,1.07Z"/>
          </g>
          <g>
            <path class="cls-51" d="M690.94,180.65v9.73c0,.26-.13.51-.34.66,0,0-.02.01-.03.02l-20.8,12.87-6.57,4.05c-.12.07-.25.06-.34,0l-1.29-.79c-.12-.07-.18-.19-.18-.32v-9.41c0-.37.19-.71.5-.9l27.27-16.86c.13-.08.28-.08.41,0l1.23.75s.03.01.04.02c.06.04.11.12.11.2Z"/>
            <path class="cls-2" d="M690.94,180.65v9.73c0,.26-.13.51-.34.66,0,0-.02.01-.03.02l-27.37,16.92c-.12.07-.25.06-.34,0-.08-.05-.15-.15-.15-.27v-9.49c0-.34.18-.66.47-.85l27.39-16.93c.07-.04.15-.05.22-.02.01,0,.03.01.04.02.06.04.11.12.11.2Z"/>
          </g>
          <path class="cls-51" d="M707.41,172.21s-.03-.02-.04-.02l-1.23-.75c-.13-.07-.28-.07-.41,0l-27.27,16.86c-.31.19-.5.53-.5.9v10.01l1.33.84v-.41l.15.09c.1.07.23.08.34,0l6.57-4.05,20.8-12.87s.02-.01.03-.02c.22-.15.34-.4.34-.66v-9.73c0-.09-.04-.16-.11-.2Z"/>
          <path class="cls-33" d="M661.98,193.93l-6.67-3.86h0c-.51-.32-1.19-.37-1.78,0l-14.89,9.43c-1.82,1.15-2.92,3.15-2.92,5.3v19.69l20.38-12.91v-10.15l.51.96s2.44.72,2.65.72,3.84,2.3,3.84,2.3v-8.9l-1.13-2.58Z"/>
          <path class="cls-34" d="M660.53,194.09l-14.89,9.43c-1.81,1.15-2.92,3.15-2.92,5.3v19.69l20.38-12.91v-20.08c0-1.32-1.46-2.13-2.58-1.42Z"/>
          <path class="cls-2" d="M707.41,172.21s-.03-.02-.04-.02c-.07-.03-.15-.02-.22.02l-27.39,16.93c-.29.18-.47.5-.47.85v10.07l28.23-17.45v-10.19c0-.09-.04-.16-.11-.2Z"/>
        </g>
        <g>
          <path class="cls-18" d="M165.02,818.54l-12.75-4.53c-1.9-.68-3.62,1.37-2.62,3.13l3.79,6.68c.77,1.36,1.88,2.51,3.21,3.34l94.63,58.69c3.93,2.44,8.9,2.44,12.83,0h0c2.27-1.4,2.27-4.71,0-6.11l-97.29-60.34c-.57-.35-1.18-.64-1.81-.87Z"/>
          <g>
            <g>
              <path class="cls-34" d="M163.51,809.39l-1.17,2.17-4.44,8.27-11.04-12.88c-.19-.22-.1-.53.12-.62.1-.1.19-.12.31-.1l16.23,3.15Z"/>
              <path class="cls-36" d="M163.51,809.39l-1.17,2.17-3.61-.19-11.76-5.04c.1-.1.19-.12.31-.1l16.23,3.15Z"/>
            </g>
            <g>
              <path class="cls-35" d="M263.18,870.8l-1.72,3.02-4.41,7.77-97.71-60.59s0,0,0,0h0c-.27-.13-.52-.28-.74-.47-.64-.49-1.13-1.18-1.43-1.97-.59-1.55-.52-3.51.36-5.35.33-.69.74-1.3,1.21-1.82,0,0,0,0,0,0,1.3-1.43,3.03-2.19,4.64-2.02.46.04.91.16,1.33.37.08.03.15.07.22.11l.28.18s.07.04.1.06c.03.02.05.04.07.06l97.79,60.65Z"/>
              <path class="cls-48" d="M263.18,870.8l-1.72,3.02-4.32-1.3-98.41-61.12s0,0,0-.01c0,0,0,0,0,0,1.3-1.43,3.03-2.19,4.64-2.02.46.04.91.16,1.33.37.08.03.15.07.22.11l.28.18s.07.04.1.06c.03.02.05.04.07.06l97.79,60.65Z"/>
              <path class="cls-45" d="M264.99,878.58c-1.49,3.11-4.7,4.66-7.19,3.48h0c-.27-.13-.52-.28-.75-.47-.64-.5-1.13-1.18-1.42-1.97-.59-1.55-.52-3.51.36-5.35,1.24-2.58,3.66-4.09,5.86-3.85.46.04.91.16,1.33.37.08.03.15.07.22.11l.28.18s.07.04.1.06c2.01,1.43,2.58,4.59,1.22,7.43Z"/>
              <path class="cls-41" d="M246.56,860.5l8.29,5.16s-.07-.05-.1-.05c-.41-.19-.81-.29-1.24-.33-1.65-.17-3.39.62-4.68,2.08-.48.5-.88,1.1-1.19,1.77-.86,1.84-.93,3.8-.33,5.35.22.6.55,1.12.96,1.55.12.14.24.26.38.36l-7.93-4.88s-.33-.22-.5-.33c-.62-.5-1.12-1.17-1.41-1.96-.6-1.55-.53-3.51.36-5.35.31-.67.72-1.29,1.19-1.79,1.29-1.46,3.03-2.22,4.66-2.06.45.05.91.17,1.34.38.07.02.14.07.21.1Z"/>
              <path class="cls-2" d="M255.07,865.78c-.07-.05-.12-.1-.19-.12.05.02.07.05.1.05l.1.07Z"/>
              <path class="cls-27" d="M263.27,870.87c-.43-.22-.86-.33-1.34-.36-1.62-.19-3.35.57-4.64,2.03-.48.53-.88,1.12-1.22,1.82-.88,1.82-.96,3.78-.36,5.33.31.79.79,1.48,1.43,1.98l-8.01-4.95s-.36-.19-.5-.33c-.14-.1-.26-.22-.38-.36-.45-.41-.81-.98-1.05-1.6-.6-1.55-.5-3.51.36-5.35.33-.67.72-1.29,1.17-1.79,1.31-1.46,3.06-2.22,4.68-2.06.48.05.93.17,1.34.38.02,0,.07.02.1.05h.02s.07.05.1.05l.1.07,8.2,5.09Z"/>
            </g>
          </g>
        </g>
        <g>
          <path class="cls-18" d="M137.67,833.85l-12.75-4.53c-1.9-.68-3.62,1.37-2.62,3.13l3.79,6.68c.77,1.36,1.88,2.51,3.21,3.34l94.63,58.69c3.93,2.44,8.9,2.44,12.83,0h0c2.27-1.41,2.27-4.71,0-6.11l-97.29-60.34c-.57-.35-1.18-.64-1.81-.87Z"/>
          <g>
            <g>
              <path class="cls-34" d="M136.17,824.71l-1.17,2.17-4.44,8.27-11.04-12.88c-.19-.22-.1-.53.12-.62.1-.1.19-.12.31-.1l16.23,3.15Z"/>
              <path class="cls-36" d="M136.17,824.71l-1.17,2.17-3.61-.19-11.76-5.04c.1-.1.19-.12.31-.1l16.23,3.15Z"/>
            </g>
            <g>
              <path class="cls-35" d="M235.83,886.12l-1.72,3.02-4.41,7.77-97.71-60.59s0,0,0,0h0c-.27-.13-.52-.28-.74-.47-.64-.5-1.13-1.18-1.43-1.97-.59-1.55-.52-3.51.36-5.35.33-.69.74-1.3,1.21-1.82,0,0,0,0,0,0,1.3-1.43,3.03-2.19,4.64-2.02.46.04.91.16,1.33.37.08.03.15.07.22.11l.28.18s.07.04.1.06c.03.02.05.04.07.06l97.79,60.65Z"/>
              <path class="cls-48" d="M235.83,886.12l-1.72,3.02-4.32-1.3-98.41-61.12s0,0,0-.01c0,0,0,0,0,0,1.3-1.43,3.03-2.19,4.64-2.02.46.04.91.16,1.33.37.08.03.15.07.22.11l.28.18s.07.04.1.06c.03.02.05.04.07.06l97.79,60.65Z"/>
              <path class="cls-45" d="M237.65,893.9c-1.49,3.11-4.7,4.66-7.19,3.48h0c-.27-.13-.52-.28-.75-.47-.64-.5-1.13-1.18-1.43-1.97-.59-1.55-.52-3.51.36-5.35,1.24-2.58,3.66-4.09,5.86-3.85.46.04.91.17,1.33.37.08.03.15.07.22.11l.28.18s.07.04.1.06c2.01,1.43,2.58,4.59,1.22,7.43Z"/>
              <path class="cls-41" d="M219.21,875.82l8.29,5.16s-.07-.05-.1-.05c-.41-.19-.81-.29-1.24-.33-1.65-.17-3.39.62-4.68,2.08-.48.5-.88,1.1-1.2,1.77-.86,1.84-.93,3.8-.33,5.35.22.6.55,1.12.96,1.55.12.14.24.26.38.36l-7.93-4.87s-.33-.22-.5-.33c-.62-.5-1.12-1.17-1.41-1.96-.6-1.55-.53-3.51.36-5.35.31-.67.72-1.29,1.19-1.79,1.29-1.46,3.03-2.22,4.66-2.06.45.05.91.17,1.34.38.07.02.14.07.22.1Z"/>
              <path class="cls-2" d="M227.72,881.1c-.07-.05-.12-.1-.19-.12.05.02.07.05.1.05l.1.07Z"/>
              <path class="cls-27" d="M235.92,886.19c-.43-.22-.86-.33-1.34-.36-1.63-.19-3.35.57-4.64,2.03-.48.53-.88,1.12-1.22,1.82-.88,1.82-.96,3.78-.36,5.33.31.79.79,1.48,1.43,1.98l-8.01-4.95s-.36-.19-.5-.33c-.14-.1-.26-.22-.38-.36-.45-.41-.81-.98-1.05-1.6-.6-1.55-.5-3.51.36-5.35.33-.67.72-1.29,1.17-1.79,1.31-1.46,3.06-2.22,4.68-2.06.48.05.93.17,1.34.38.02,0,.07.02.1.05h.02s.07.05.1.05l.1.07,8.2,5.09Z"/>
            </g>
          </g>
        </g>
        <path class="cls-2" d="M115.78,540.56c1.6-.93,4.35-1.11,5.34,0-.42-.88-.66-1.95-.67-3.21-.03-5.74,4.59-13.11,10.32-16.45,5.63-3.29,10.23-1.45,10.41,4.07.72-1.81,1.67-3.92,4.36-5.32,3.38-1.76,6.51.21,6.52,3.56.02,3.91-1.63,8.16-5.53,10.44l-29.27,17.09c-2.71,1.58-4.92.56-5.49-2.09-.57-2.66,1.31-6.5,4.02-8.09Z"/>
        <path class="cls-43" d="M239.15,808.33c.76,1.7,2.02,3.22,3.79,4.29l12.62,7.76h.06l1.2.69-6.31-5.81h-.06l-11.3-6.94Z"/>
        <g>
          <path class="cls-18" d="M187.24,801.48l12.62,7.79h.06l95.62,58.35c1.38.82,2.81,1.46,4.3,1.91,5.42,1.77,11.44,1.12,16.39-1.91l134.11-81.85c4.08-2.5,5.54-7.2,4.3-11.24-.62-2.19-2.05-4.22-4.3-5.59l-92.5-56.5-17.29-10.54c-5.42-3.26-12.26-3.26-17.74,0l-135.71,82.86c-6.18,3.85-6.1,12.87.14,16.72Z"/>
          <path class="cls-29" d="M182.56,785.55v.06c.34.62.7,1.26,1.15,1.83.11.2.25.39.45.56.56.65,1.32,1.26,2.14,1.77l12.56,7.7.11.06,95.62,58.38c1.32.82,2.78,1.46,4.22,1.91v.06h.06c1.35.37,2.67.67,3.99.82h.31c1.32.11,2.59.11,3.91,0h.2c1.26-.2,2.59-.45,3.79-.87.25-.08.45-.14.7-.2,1.18-.45,2.39-1.01,3.51-1.71l134.11-81.85c.96-.56,1.71-1.26,2.36-2.02.17-.25.37-.51.48-.7.45-.62.76-1.18,1.1-1.88.11-.25.25-.56.31-.82.25-.76.37-1.52.45-2.28v-3.54h-.03v-5.51l-4.33.14c-.11-.06-.2-.17-.34-.22l-92.5-56.5-10.34-6.3-.51-.25-6.44-3.99c-5.42-3.29-12.26-3.29-17.74,0l-38,23.22-6.04-3.71c-2.11-1.26-4.61-1.26-6.69,0l-47.19,28.81-3.88,2.36c-1.07.62-1.63,1.6-1.77,2.64v.9c.14,1.1.76,2.11,1.83,2.78l4.24,2.59-6.07,3.71-23.27,14.19-8.85,5.37c-4.41,2.78-5.59,8.21-3.6,12.51Z"/>
          <path class="cls-54" d="M298.82,850.93v6.94h.06c1.35.37,2.67.67,3.99.82h.31c1.32.11,2.59.11,3.91,0h.2c1.26-.2,2.59-.45,3.79-.87.25-.08.45-.14.7-.2,1.18-.45,2.39-1.01,3.51-1.71l134.11-81.85c.96-.56,1.71-1.26,2.36-2.02.17-.25.37-.51.48-.7.45-.62.76-1.18,1.1-1.88.11-.25.25-.56.31-.82.25-.76.37-1.52.45-2.28v-3.54h-.03v-3.99l-2,.65-153.25,91.46Z"/>
          <path class="cls-24" d="M218.29,737.63v6.77c.14,1.1.76,2.11,1.83,2.78l4.24,2.59-6.07,3.71.03,10.12s9.25-17.54,9.25-18.24v-6.32l-3.63-.53-5.65-.87Z"/>
          <path class="cls-4" d="M218.29,737.63v6.77c.14,1.1.76,2.11,1.83,2.78l4.24,2.59-6.07,3.71.03,10.12s9.25-17.54,9.25-18.24v-6.32l-3.63-.53-5.65-.87Z"/>
          <path class="cls-54" d="M181.62,773.63l5.79-1.33,7.61-4.62.48,2.77,25.78-5.91,54.46-1.69c.04,4.22.06,8.45.08,12.67l-78.65,4.57,1.83,10.56v6.88l-.13-.06-12.56-7.7c-.82-.51-1.58-1.14-2.15-1.77-.19-.19-.32-.38-.44-.57-.44-.57-.82-1.2-1.14-1.83v-.06c-.68-1.44-.96-3-.91-4.55h-.05s0-7.36,0-7.36Z"/>
          <path class="cls-24" d="M220.1,740.24l4.75,2.92h.02l59.41-36.42-6.51-3.97c-2.04-1.23-4.61-1.23-6.67,0l-51.05,31.18c-2.33,1.45-2.3,4.84.05,6.29Z"/>
          <path class="cls-41" d="M186.3,782.88l12.62,7.79h.06l95.62,58.35c1.38.82,2.81,1.46,4.3,1.91,5.42,1.77,11.44,1.12,16.39-1.91l134.11-81.85c4.08-2.5,5.54-7.2,4.3-11.24-.62-2.19-2.05-4.22-4.3-5.59l-92.5-56.5-17.29-10.54c-5.42-3.26-12.26-3.26-17.74,0l-135.71,82.86c-6.18,3.85-6.1,12.87.14,16.72Z"/>
          <path class="cls-47" d="M298.9,850.93c5.42,1.77,11.63,1.45,16.58-1.59l134.14-82.08c4.08-2.5,5.31-7.29,4.07-11.34-4.1,2.78-7.73,5.14-9.39,6.18l-134.13,81.88c-2.19,1.32-6.38,4.08-11.27,6.94Z"/>
          <path class="cls-47" d="M186.3,782.89l12.62,7.76h.06l157.9-96.81-10.35-6.31-3.03-1.83-3.91-2.4c-5.43-3.28-12.24-3.28-17.73,0l-135.69,82.86c-6.18,3.85-6.12,12.87.13,16.72Z"/>
          <g>
            <circle class="cls-39" cx="349.59" cy="710.96" r=".73"/>
            <path class="cls-39" d="M234.51,780.79c0,.4.33.73.73.73s.73-.33.73-.73-.33-.73-.73-.73-.73.33-.73.73Z"/>
          </g>
          <g>
            <path class="cls-39" d="M420.24,754.62c0,.4.33.73.73.73s.73-.33.73-.73-.33-.73-.73-.73-.73.33-.73.73Z"/>
            <circle class="cls-39" cx="306.63" cy="824.44" r=".73"/>
          </g>
          <g>
            <polygon class="cls-52" points="327.24 695.84 329.16 697.01 345.52 686.99 343.6 685.83 327.24 695.84"/>
            <polygon class="cls-41" points="327.25 695.83 329.18 697.03 335.93 692.89 334 691.69 327.25 695.83"/>
          </g>
          <g>
            <polygon class="cls-52" points="207.21 775.64 205.28 774.47 188.92 784.49 190.85 785.66 207.21 775.64"/>
            <polygon class="cls-41" points="207.19 775.66 205.27 774.45 198.52 778.59 200.45 779.79 207.19 775.66"/>
          </g>
        </g>
        <g>
          <path class="cls-24" d="M744.46,330.57v71.83c0,1.93-.93,3.75-2.54,4.86-.07.04-.14.11-.21.14l-23.48,14.47-48.49,29.87c-.86.54-1.82.46-2.54-.04l-9.51-5.86c-.86-.5-1.36-1.43-1.36-2.39v-69.43c0-2.72,1.39-5.25,3.72-6.65l71.26-43.95c.93-.57,2.07-.57,3-.04l9.04,5.5c.11.04.21.11.32.18.46.32.79.86.79,1.5Z"/>
          <path class="cls-4" d="M744.46,330.57v71.83c0,1.93-.93,3.75-2.54,4.86-.07.04-.14.11-.21.14l-23.48,14.47-48.49,29.87c-.86.54-1.82.46-2.54-.04l-9.51-5.86c-.86-.5-1.36-1.43-1.36-2.39v-69.43c0-2.72,1.39-5.25,3.72-6.65l71.26-43.95c.93-.57,2.07-.57,3-.04l9.04,5.5c.11.04.21.11.32.18.46.32.79.86.79,1.5Z"/>
          <path class="cls-24" d="M744.46,330.57v71.83c0,1.93-.93,3.75-2.54,4.86-.07.04-.14.11-.21.14l-23.48,14.47-48.49,29.87c-.86.54-1.82.46-2.54-.04-.61-.39-1.07-1.11-1.07-1.97v-70.01c0-2.54,1.32-4.9,3.47-6.25l72.15-44.45c.54-.32,1.11-.36,1.61-.14.11.04.21.11.32.18.46.32.79.86.79,1.5Z"/>
          <path class="cls-47" d="M738.62,402.71l.12-.09.09-60.92c0-1.86-2.04-3-3.62-2.03l-62.66,38.61c-.47.3-.79.87-.79,1.47v59.91c0,1.86,2.04,3,3.62,2.02l63.24-38.97Z"/>
        </g>
        <path class="cls-18" d="M393.95,847.69l77.7-47.42c1.26-.77,2.85-.77,4.11,0l1.91,1.17,13.38-8.16c1.18-.72,2.66-.72,3.85,0l19.47,11.88c1.15.7,1.15,2.37,0,3.07l-12.78,7.8,2.64,1.61c.94.57.94,1.93,0,2.51l-78.63,47.98c-1.11.68-2.5.68-3.61,0l-28.04-17.11c-1.24-.76-1.24-2.57,0-3.33Z"/>
        <g>
          <polygon class="cls-27" points="397.61 833.94 397.61 844.06 414.84 843.37 405.09 838.93 405.26 834.88 402.79 833.88 397.61 833.94"/>
          <polygon class="cls-4" points="397.61 833.94 397.61 844.06 414.84 843.37 405.09 838.93 405.26 834.88 402.79 833.88 397.61 833.94"/>
          <path class="cls-19" d="M504.46,801.98l-17.15-10.46c-1.04-.63-2.35-.63-3.39,0l-51.64,31.51,21.06,12.85,51.11-31.19c1.01-.62,1.01-2.09,0-2.7Z"/>
          <path class="cls-27" d="M495.53,816.14l-25.06-15.29c-1.11-.68-2.51-.68-3.62,0l-68.42,41.75c-1.1.67-1.1,2.26,0,2.93l24.69,15.07c.98.6,2.2.6,3.18,0l69.23-42.25c.83-.5.83-1.7,0-2.21Z"/>
          <path class="cls-4" d="M495.53,816.14l-25.06-15.29c-1.11-.68-2.51-.68-3.62,0l-68.42,41.75c-1.1.67-1.1,2.26,0,2.93l24.69,15.07c.98.6,2.2.6,3.18,0l69.23-42.25c.83-.5.83-1.7,0-2.21Z"/>
          <polygon class="cls-27" points="496.15 807.39 496.15 817.29 491.25 814.22 488.77 811.92 488.17 809.15 489.79 807.39 496.15 807.39"/>
          <polygon class="cls-4" points="496.15 807.39 496.15 817.29 491.25 814.22 488.77 811.92 488.17 809.15 489.79 807.39 496.15 807.39"/>
          <path class="cls-19" d="M505.22,796.52v6.75s-5.7.82-5.91.82-.68-.61-.68-2.23.68-4.68.68-4.68l1.15-.66h4.76Z"/>
          <path class="cls-41" d="M504.46,795.15l-17.15-10.46c-1.04-.63-2.35-.63-3.39,0l-51.64,31.51,21.06,12.85,51.11-31.19c1.01-.62,1.01-2.09,0-2.7Z"/>
          <g>
            <polygon class="cls-27" points="491.25 797.18 493.54 798.59 496.88 796.54 494.59 795.12 491.25 797.18"/>
            <polygon class="cls-27" points="481.91 791.36 484.2 792.78 487.53 790.73 485.24 789.31 481.91 791.36"/>
          </g>
          <path class="cls-27" d="M495.53,806.14l-25.06-15.29c-1.11-.68-2.51-.68-3.62,0l-68.42,41.76c-1.1.67-1.1,2.26,0,2.93l24.69,15.07c.98.6,2.2.6,3.18,0l69.23-42.25c.83-.5.83-1.7,0-2.21Z"/>
        </g>
        <g>
          <path class="cls-27" d="M486.52,173.27v70.13c0,1.88-.91,3.66-2.48,4.74-.07.04-.14.1-.21.14l-22.92,14.13-47.35,29.17c-.84.52-1.78.45-2.48-.04l-9.28-5.72c-.84-.49-1.33-1.4-1.33-2.34v-67.79c0-2.65,1.36-5.13,3.63-6.49l69.57-42.92c.91-.56,2.02-.56,2.93-.03l8.83,5.37c.11.04.21.1.31.17.45.31.77.84.77,1.47Z"/>
          <path class="cls-4" d="M486.52,173.27v70.13c0,1.88-.91,3.66-2.48,4.74-.07.04-.14.1-.21.14l-22.92,14.13-47.35,29.17c-.84.52-1.78.45-2.48-.04l-9.28-5.72c-.84-.49-1.33-1.4-1.33-2.34v-67.79c0-2.65,1.36-5.13,3.63-6.49l69.57-42.92c.91-.56,2.02-.56,2.93-.03l8.83,5.37c.11.04.21.1.31.17.45.31.77.84.77,1.47Z"/>
          <path class="cls-27" d="M486.52,173.27v70.13c0,1.88-.91,3.66-2.48,4.74-.07.04-.14.1-.21.14l-22.92,14.13-47.35,29.17c-.84.52-1.78.45-2.48-.04-.59-.38-1.05-1.08-1.05-1.92v-68.35c0-2.48,1.29-4.78,3.38-6.11l70.44-43.4c.52-.31,1.08-.35,1.57-.14.11.04.21.1.31.17.45.31.77.84.77,1.47Z"/>
          <path class="cls-21" d="M478.38,240.75v-51.76c0-1.87-2.05-3.01-3.64-2.03l-55.42,34.15c-.7.43-1.13,1.2-1.13,2.03v51.76c0,1.87,2.05,3.01,3.64,2.03l55.42-34.15c.71-.43,1.13-1.2,1.13-2.03Z"/>
        </g>
        <g>
          <path class="cls-18" d="M725.11,541.57c0,1.39.7,2.79,2.04,3.59l104.38,63.71c1.34.86,3.05.86,4.39,0l17.58-10.72,5.25-3.21,53.26-32.47,2.57-1.61,3.27-1.98c1.29-.75,1.93-2.04,1.98-3.38.11-1.45-.59-2.95-1.98-3.8l-104.06-63.5c-1.34-.8-3-.8-4.39,0l-6.97,4.23-2.57,1.55-53.47,32.36-5.14,3.11-14.09,8.52c-1.34.8-2.04,2.2-2.04,3.59Z"/>
          <path class="cls-16" d="M911.19,540.69l-97.25-59.35c-1.26-.77-2.83-.77-4.09,0l-76.9,46.52c-2.53,1.53-2.54,5.2-.01,6.74l97.58,59.55c1.26.77,2.85.77,4.11,0l76.57-46.73c2.52-1.54,2.52-5.19,0-6.73Z"/>
          <path class="cls-50" d="M737.61,530.47c.46.22.66.8.78,1.41l71.47-43.23c1.26-.76,2.84-.76,4.09,0l93.5,57.06c2.44-.67,5.63-1.47,5.63-1.47v7.51l-.11.03c-.13,1.15-.67,2.26-1.78,2.94l-76.57,46.73c-1.26.77-2.85.77-4.11,0l-97.58-59.55c-.99-.6-1.48-1.56-1.69-2.56h-.2v-8.14s5.49-1.25,6.56-.73Z"/>
          <path class="cls-51" d="M731.04,531.22v8.11h.2c.2,1,.7,1.95,1.7,2.55l97.58,59.56c1.25.75,2.86.75,4.11,0l16.38-10.02,5.01-3.06,55.2-33.66c1.1-.65,1.65-1.8,1.75-2.96h.1v-7.51s-3.21.8-5.61,1.45l-93.52-57.05c-1.25-.75-2.8-.75-4.11,0l-52.9,32.01-4.81,2.91-13.72,8.32c-.15-.6-.35-1.2-.8-1.4-1.05-.55-6.56.75-6.56.75Z"/>
          <path class="cls-26" d="M731.04,531.22c0,1.3.65,2.6,1.9,3.36l97.58,59.56c1.25.8,2.86.8,4.11,0l16.43-10.02,4.91-3.01,49.79-30.36,2.4-1.5,3.06-1.85c1.2-.7,1.8-1.9,1.85-3.16.1-1.35-.55-2.75-1.85-3.56l-97.28-59.36c-1.25-.75-2.8-.75-4.11,0l-6.51,3.96-2.4,1.45-49.99,30.25-4.81,2.91-13.17,7.96c-1.25.75-1.9,2.05-1.9,3.36Z"/>
          <polygon class="cls-46" points="851.06 583.97 851.06 584.12 851.01 591.43 856.02 588.38 856.07 581.16 855.97 581.11 756.94 520.65 750.92 517 746.12 519.9 752.13 523.56 851.06 583.97"/>
          <polygon class="cls-41" points="809.1 498.59 824.81 508.18 793.14 527.45 777.37 517.83 809.1 498.59"/>
        </g>
        <g>
          <g>
            <rect class="cls-47" x="676.65" y="638.15" width="49.61" height="32.77" rx=".57" ry=".57" transform="translate(847.23 -293.73) rotate(55.72)"/>
            <rect class="cls-47" x="684.29" y="632.94" width="13.06" height="8.62" rx=".57" ry=".57" transform="translate(828.29 -292.49) rotate(55.72)"/>
            <path class="cls-26" d="M702.31,682.23s.07-.01.11-.03l24.44-16.66-26.09-38.62-24.71,16.6,26.09,38.62.16.09Z"/>
            <polygon class="cls-2" points="722.32 664 700.5 631.71 680.6 645.09 702.5 677.51 722.32 664"/>
          </g>
          <g>
            <path class="cls-25" d="M702.84,667.63s-5.84-2.5-7.79-3.71c-1.95-1.21-4.02-7.98-5.5-7.99-1.64-.01-2.21,3.1-.57,5.99-1.48-.88-3.03-1.13-3.85-2.25-1.75-2.4-1.17-1.65-1.17-1.65,0,0-6.57,8.26,1.67,11.96,4.86,2.19,7.38-.43,14.52,5.62"/>
            <g>
              <path class="cls-18" d="M779.91,839.49c9.37,5.18,8.18,16.27-3.81,19.3-3.53.89-7.97.37-9,3.87-3.2,10.94-19.66,6.45-33.76.56-16.22-6.78-12.23-20.76,2.38-21.77,3.47-.24,7.24-1.1,8.87-3.17,3.58-4.54,12.38-11.48,35.32,1.21Z"/>
              <g>
                <path class="cls-2" d="M777.1,841.28s1.79.76,2.26,2.55c1.62,6.26-2.02,8.69-5.11,9.23-4.86.84-12.69-4.81-16.64-7.11-3.71-2.16-4.18-5.01-3.2-8.5.78-2.77,3.37-2.52,7.08-1.61,5.47,1.34,15.61,5.44,15.61,5.44Z"/>
                <path class="cls-27" d="M776.79,839.95c4.17,3.43,3.97,9.86-3.05,11.2-4.72.9-12.08-4.72-15.96-6.9-2.54-1.43-4.22-5.26-3.13-7.52,1.24-2.59,4.87-3.74,8.47-2.85,5.31,1.31,10.57,3.52,13.67,6.08Z"/>
              </g>
              <path class="cls-25" d="M760.85,778.63c.07.9.13,1.79.2,2.69.18,2.36.35,4.72.53,7.08.25,3.34.5,6.69.75,10.03.29,3.84.57,7.68.86,11.52.29,3.85.58,7.71.87,11.56.25,3.38.51,6.77.76,10.15.18,2.43.36,4.85.55,7.28.09,1.2-.03,2.85.55,3.88.78,1.39,2.22,2.48,3.73,2.94,2.6.79,6.29-.25,6.19-3.52-.19-6.26,3.51-29.28,4.67-37.5,2.05-14.56-.72-24.01-.94-31.98l-9.54,2.57-9.17,3.29Z"/>
              <g>
                <path class="cls-2" d="M759.2,850.37s1.92.94,2.32,2.94c1.39,6.96-2.76,9.41-6.18,9.8-5.38.62-13.61-6.06-17.8-8.83-3.94-2.6-4.27-5.76-2.98-9.52,1.03-2.99,3.85-2.56,7.87-1.33,5.92,1.81,16.78,6.94,16.78,6.94Z"/>
                <path class="cls-27" d="M758.94,848.89c4.36,4.02,3.74,11.06-4.04,12.09-5.23.7-12.95-5.93-17.07-8.56-2.69-1.72-4.3-6.03-2.97-8.44,1.52-2.76,5.57-3.8,9.47-2.6,5.74,1.77,11.37,4.52,14.61,7.51Z"/>
              </g>
              <path class="cls-17" d="M760.85,778.63l4.74,63.28c.04.56.31,1.09.73,1.48.12.11.25.23.4.37-.09-5.74-.46-31.89-.36-40.58.11-9.78,2.87-25.42,2.87-25.42l.8-2.43-9.17,3.29Z"/>
              <path class="cls-25" d="M741.76,777.19c.07.77.14,1.53.22,2.3.19,2.06.39,4.13.58,6.19.28,3.01.57,6.01.85,9.02.34,3.6.68,7.19,1.02,10.79.36,3.83.72,7.66,1.09,11.49.35,3.71.7,7.43,1.05,11.14.31,3.24.61,6.48.92,9.73.23,2.42.46,4.83.69,7.25.18,1.86.02,4.54,1.34,5.93.22.23.46.43.71.61,1.72,1.19,4.07,1.66,6.11,1.27,1.33-.25,2.77-1.28,2.67-2.8-.32-4.81-.04-16.99.99-25.81,1.24-10.81,6.32-29.78,1.35-47.34l-13.36.07-6.23.18Z"/>
              <path class="cls-17" d="M741.76,777.19l6.79,71.9c.04.31.11.94.39,1.3.15.16.3.34.5.53-.41-10.1-2.13-52.21-2.33-58.55-.24-7.21,1.23-12.54,1.23-12.54l-.35-2.81-6.23.18Z"/>
              <path class="cls-27" d="M782.12,639.95c.39,7.92-7.99,40.99-3.54,42.56,5.89,2.08,14.71-16.61,15.5-19.62.78-3.01-1.76-25.98-6.26-38.4-2.79-2.38-4.63,4.11-5.48,10.09-.25,1.78-.32,3.57-.23,5.37Z"/>
              <path class="cls-4" d="M782.12,639.95c.39,7.92-7.99,40.99-3.54,42.56,5.89,2.08,14.71-16.61,15.5-19.62.78-3.01-1.76-25.98-6.26-38.4-2.79-2.38-4.63,4.11-5.48,10.09-.25,1.78-.32,3.57-.23,5.37Z"/>
              <path class="cls-53" d="M739.85,778.46c.46.59,1.1,1.2,2.1,1.67.64.31,1.23.58,1.75.8,2.54,1.1,4.1,1.39,7.53,1.31,13.28-.31,27.3-6.57,31.21-8.44.6-.29.96-.91.89-1.58-.12-1.19-.21-3.58.13-8.08.56-7.47,2.86-33.28,4.77-42.44,1.03-4.92.81-10.68.14-13.56-.29-1.24-.55-2.4-.77-3.44-.47-2.12-.77-3.65-.85-4.02-.01-.06-.01-.09-.01-.09l-50.72,5.43c-5.09,30.36,3.82,72.44,3.82,72.44Z"/>
              <path class="cls-2" d="M739.85,778.46c.46.59,1.1,1.2,2.1,1.67.64.31,1.23.58,1.75.8-2.3-15.58-13.83-54.63-2.28-64.91,4.63-4.12,9.18-1.45,23.79-3.15,12.77-1.46,20.61-6.83,22.39-8.17-.47-2.12-.77-3.65-.85-4.02l-50.73,5.35c-5.09,30.36,3.82,72.44,3.82,72.44Z"/>
              <path class="cls-27" d="M733.96,704.31c-.14.96.37,1.91,1.26,2.28,0,.03.39.17.59.23,1.43.53,3.29,1.04,4.98,1.49.42.11.82.2,1.24.31.51.11.98.25,1.41.34,1.12.25,1.88.42,1.88.42,24.26,3.74,38.42-4.69,42.05-7.22.56-.39.82-1.1.67-1.74-.93-4.13-4.19-12.17-4.05-19.2.62-33.17,16.78-62.65-9.56-63.69-13.75,1.24-24.54,3.32-30.72,5.57-.39.14-.76.31-1.15.53l-3.74,38.71c.03-.06.06-.11.06-.14,0,0-.9,21.39-1.43,26.98,0,.17-.03.34-.06.51-.56,4.83-2.67,10.37-3.43,14.64Z"/>
              <path class="cls-25" d="M738.31,591.41s-2.34,16.26,1.93,20.79c3.85,4.09,12.49,5.1,12.49,5.1l1.21-18.1-15.62-7.79Z"/>
              <path class="cls-27" d="M693.1,674.88c12.63,8.42,42.19,18.38,47.76,16.36,1.67-.59,3.04-3.27,4.12-6.73,2.35-7.6,3.43-19.01,3.63-20.56l-6.05-40.33-4,2.77c-3.06,3.45-4.73,9.9-5.12,14.31-1.1,12.08-2.31,26.01-2.57,31.33-.02.82-.48,1.38-1.27,1.17l-30.98-8.86c-.93-.25-1.84.15-2.58.81-.85.71-1.66,1.58-2.61,3.46-.17.34-.31.62-.43.94-1.1,2.84-.38,5,.1,5.33Z"/>
              <path class="cls-4" d="M749.86,646.89c-.11,4.16-.31,8.31-.56,12.45-.28,4.14-.69,8.28-1.31,12.38-.56,4.1-1.3,8.2-2.66,12.11-.7,1.93-1.55,3.84-2.84,5.44-1.19,1.66-3.29,2.66-5.37,2.25,2.04.54,4.31-.36,5.63-2.02,1.38-1.62,2.27-3.55,3.02-5.5,1.45-3.93,2.27-8.05,2.91-12.17.55-4.14.88-8.29,1.09-12.45.22-4.16.26-8.32.1-12.48Z"/>
              <path class="cls-49" d="M738.4,582.24s.34-3.09,2.19-6.08c7.65-12.36,23.92-6.52,25.79-6.05,25.61,6.36,7.51,39.9,23.58,54.56.89.81-.02,2.41-1.06,3.03-5.24,3.13-24.03,14.2-44.83,8.35-1.31-.37-2.14-1.65-1.89-2.99,1.04-5.68,5.78-23.48,4.53-31.96,0,0-7.89-4.28-9.07-6.87-1.25-2.73.77-11.98.77-11.98Z"/>
            </g>
          </g>
        </g>
        <g>
          <path class="cls-18" d="M321.43,896.95c.1-.82.59-1.4,1.4-1.89l28.75-17.56,14.49-8.94c1.08-.59,2.35-.59,3.43,0l21.31,13.09c1.08.69,1.66,1.63,1.66,2.71v.1c0,1.08-.59,2.12-1.53,2.71l-5.19,3.2-6.82,4.11-14.39,8.85-16.97,10.38c-1.04.59-2.35.59-3.43,0l-6.82-4.11-9.43-5.91-5.19-3.17c-.82-.49-1.4-1.44-1.4-2.38v-1.17h.13Z"/>
          <path class="cls-31" d="M326.26,883v-.28c-.06.11-.08.2,0,.28Z"/>
          <path class="cls-26" d="M326.26,882.58v.14c.03-.06.08-.11.11-.14h-.11Z"/>
          <path class="cls-26" d="M326.26,883.59v10.57h.11c.08.7.51,1.21,1.1,1.63l18.47,11.36c.93.51,2.05.51,2.95,0l27.1-16.64c-.08-1.83-.08-3.57-.08-5.28v-4.78l-12.4,7.62-14.62,8.94c-.9.51-2.02.51-2.95,0l-5.87-3.54-8.12-5.09-4.47-2.73c-.7-.42-1.21-1.24-1.21-2.05Z"/>
          <path class="cls-31" d="M326.36,882.58l24.26-5.58,9.84-6.09,4.36-2.64c.91-.61,2.03-.61,2.94,0l7.92,4.87,11.87-1.42v10.86h-.2c-.1.71-.51,1.22-1.12,1.62l-10.25,6.29-27.1,16.64c-.69.38-1.48.48-2.23.29-.25-.06-.5-.16-.73-.29l-18.47-11.36c-.27-.2-.5-.41-.68-.66-.21-.28-.37-.59-.42-.97h-.1s0,0,0,0v-.16c-.04-.09-.06-.18,0-.24v-11.16h.1Z"/>
          <path class="cls-4" d="M326.36,882.58l24.26-5.58,9.84-6.09,4.36-2.64c.91-.61,2.03-.61,2.94,0l7.92,4.87,11.87-1.42v10.86h-.2c-.1.71-.51,1.22-1.12,1.62l-10.25,6.29-27.1,16.64c-.69.38-1.48.48-2.23.29-.25-.06-.5-.16-.73-.29l-18.47-11.36c-.27-.2-.5-.41-.68-.66-.21-.28-.37-.59-.42-.97h-.1s0,0,0,0v-.16c-.04-.09-.06-.18,0-.24v-11.16h.1Z"/>
          <path class="cls-31" d="M352.34,865.83c.62.42,1.01.73,1.21.82l6.91,4.27,5.57,3.34,5.9,3.65c.39.2,1.91,1.21,3.96,2.53l5.87-3.54,4.47-2.75c.82-.51,1.32-1.41,1.32-2.33v-.08c0-.93-.51-1.74-1.43-2.33l-18.36-11.27c-.93-.51-2.02-.51-2.95,0l-12.48,7.7Z"/>
          <path class="cls-31" d="M326.26,882.58v1.01c0,.82.51,1.63,1.21,2.05l4.47,2.73,8.12,5.09,5.87,3.54c.93.51,2.05.51,2.95,0l14.62-8.94,12.4-7.62c-2.05-1.32-3.57-2.33-3.96-2.53l-5.9-3.65-5.57-3.34-6.91-4.27c-.2-.08-.59-.39-1.21-.82l-24.76,15.12c-.7.42-1.12.93-1.21,1.63h-.11Z"/>
        </g>
        <g>
          <path class="cls-19" d="M443.46,483.96l11.58-54.14,35.19-17.6,22.6,29.4-30.05,82.92-2.47-51.61,1.38,52.29-38.24-41.27ZM488.32,458.18c0-7.59-4.55-13.74-10.18-13.74s-10.2,6.16-10.2,13.74,4.55,13.75,10.2,13.75,10.18-6.16,10.18-13.75Z"/>
          <path class="cls-24" d="M498.74,392.88v16.44c0,.77-.4,1.48-1.06,1.88l-50.87,31.04c-1.47.9-3.36-.16-3.36-1.88v-16.86c0-.77.41-1.49,1.07-1.89l50.87-30.63c1.47-.89,3.35.17,3.35,1.89Z"/>
          <path class="cls-4" d="M498.74,392.88v16.44c0,.77-.4,1.48-1.06,1.88l-50.87,31.04c-1.47.9-3.36-.16-3.36-1.88v-16.86c0-.77.41-1.49,1.07-1.89l50.87-30.63c1.47-.89,3.35.17,3.35,1.89Z"/>
          <polygon class="cls-24" points="503.62 390.67 496.49 390.67 496.13 393.99 502.23 396.09 504.22 394.45 503.62 390.67"/>
          <polygon class="cls-4" points="503.62 390.67 496.49 390.67 496.13 393.99 502.23 396.09 504.22 394.45 503.62 390.67"/>
          <path class="cls-24" d="M445.62,442.58h7.04s.13-2.1-.1-2.43c-.23-.33-.93-1.82-.93-1.82l-2.48-.1-1.85,1.19-1.69,3.15Z"/>
          <path class="cls-4" d="M445.62,442.58h7.04s.13-2.1-.1-2.43c-.23-.33-.93-1.82-.93-1.82l-2.48-.1-1.85,1.19-1.69,3.15Z"/>
          <path class="cls-19" d="M482.78,522.5h7.79l1.47-16.87-1.63-4.33s-3.17-1.17-3.99-.47c-.82.7-3.64,21.68-3.64,21.68Z"/>
          <polygon class="cls-19" points="481.7 525.22 488.75 525.22 483.37 513.67 478.15 510.64 476.23 515.09 481.7 525.22"/>
          <path class="cls-51" d="M450.51,483.96l11.58-54.14,35.19-17.6,22.6,29.4-29.31,80.88-3.21-49.57,1.38,52.29-38.24-41.27ZM495.37,458.18c0-7.59-4.55-13.74-10.18-13.74s-10.2,6.16-10.2,13.74,4.55,13.75,10.2,13.75,10.18-6.16,10.18-13.75Z"/>
          <path class="cls-24" d="M505.79,392.88v16.44c0,.77-.4,1.48-1.06,1.88l-50.87,31.04c-1.47.9-3.36-.16-3.36-1.88v-16.86c0-.77.41-1.49,1.07-1.89l50.87-30.63c1.47-.89,3.35.17,3.35,1.89Z"/>
        </g>
        <g>
          <g>
            <polyline class="cls-8" points="412.92 582.14 412.92 582.64 413.34 582.37"/>
            <line class="cls-7" x1="415.03" y1="581.33" x2="545.97" y2="500.48"/>
            <polyline class="cls-6" points="546.81 499.96 547.24 499.7 547.24 499.2"/>
            <line class="cls-14" x1="547.24" y1="497.2" x2="547.24" y2="345.13"/>
            <polyline class="cls-12" points="547.24 344.13 547.24 343.63 546.81 343.9"/>
            <line class="cls-5" x1="545.12" y1="344.94" x2="414.19" y2="425.79"/>
            <polyline class="cls-9" points="413.34 426.31 412.92 426.57 412.92 427.07"/>
            <line class="cls-10" x1="412.92" y1="429.07" x2="412.92" y2="581.14"/>
          </g>
          <circle class="cls-20" cx="546.92" cy="342.32" r="4.5"/>
          <circle class="cls-44" cx="412.92" cy="426.78" r="4.5"/>
          <circle class="cls-22" cx="412.92" cy="583.01" r="4.5"/>
          <path class="cls-15" d="M542.51,500.6c0,2.49,2.01,4.5,4.5,4.5s4.5-2.02,4.5-4.5-2.01-4.5-4.5-4.5-4.5,2.01-4.5,4.5Z"/>
        </g>
      </g>
      <g>
        <rect class="cls-42" x="1689.82" y="309.63" width="180" height="62.76" rx="6.79" ry="6.79"/>
        <text class="cls-3" transform="translate(1000.03 402.8)"><tspan x="0" y="0">PIXELLAB PROJECTS</tspan><tspan x="0" y="133">FILES</tspan></text>
        <text class="cls-28" transform="translate(1237.86 528.32)"><tspan x="0" y="0">Library</tspan></text>
        <text class="cls-40" transform="translate(1006.48 650.03)"><tspan x="0" y="0">PLP Files offers a variety of graphic design files for download and purchase, </tspan><tspan x="0" y="36">including business cards, flyers, and social media graphics. Enjoy both free </tspan><tspan x="0" y="72">and paid options tailored for mobile design projects. Join us for updates and </tspan><tspan x="0" y="108">enhance your creativity with our professional designs!</tspan></text>
      </g>
      <line class="cls-11" x1="1523.44" y1="533.94" x2="1872.6" y2="533.94"/>
    </g>
  </g>
</svg>